<svg width="168" height="132" viewBox="0 0 168 132" fill="none" xmlns="http://www.w3.org/2000/svg">
<g clip-path="url(#clip0_201_101)">
<path d="M103.903 1.33633C103.943 1.24407 104.079 1.27233 104.079 1.3727V7.36753C104.079 7.39929 104.063 7.42881 104.036 7.4457L100.54 9.6543C100.464 9.70248 100.372 9.62301 100.407 9.53975L103.903 1.33633Z" fill="#F7F7F8"/>
<path d="M102.254 45.0895C102.305 45.0567 102.375 45.0834 102.39 45.1428L104.403 52.467C104.414 52.5117 104.392 52.5583 104.35 52.5773C103.262 53.071 102.097 54.2185 101.33 56.2898C101.327 56.3001 101.325 56.3111 101.325 56.322V58.3088C101.325 58.3388 101.34 58.3669 101.364 58.3842L103.651 60.0065C103.696 60.0383 103.703 60.102 103.668 60.1432L101.389 62.728C101.354 62.7676 101.294 62.7696 101.256 62.7325L97.8996 59.4005C97.8877 59.3886 97.8794 59.3732 97.8749 59.3567C97.0683 56.0916 97.1289 54.2192 97.8794 50.8447C97.8804 50.8387 97.8831 50.8326 97.885 50.8271C99.5467 47.0646 100.535 46.1738 102.254 45.0895Z" fill="#F7F7F8"/>
<path d="M129.802 53.1929C129.742 53.1167 129.825 53.011 129.912 53.0526C134.02 55.0045 136.031 56.3806 138.493 59.3562C138.506 59.3728 138.514 59.394 138.514 59.4155V64.7597C138.514 64.8107 138.472 64.852 138.422 64.852H135.507C135.456 64.852 135.415 64.8107 135.415 64.7597V61.4587C135.415 61.4421 135.41 61.4253 135.401 61.4111C132.564 56.6078 131.702 55.6045 129.802 53.1929Z" fill="#F7F7F8"/>
<path d="M108.525 64.0882C108.533 64.1326 108.571 64.1647 108.616 64.1647H112.888C112.939 64.1647 112.98 64.121 112.98 64.0694C112.859 55.8316 113.695 52.2704 117.741 49.0605C117.757 49.0483 117.776 49.0412 117.795 49.0406C122.677 48.8767 125.381 49.1759 130.068 50.7601C136.434 53.9591 139.313 56.67 143.723 62.4266C143.732 62.4392 143.738 62.4544 143.741 62.4702L144.068 64.7729C144.074 64.8183 144.113 64.8521 144.159 64.8521H150.75C150.822 64.8521 150.865 64.7718 150.828 64.7102C148.29 60.497 147.625 57.6718 146.814 52.4859C146.813 52.4812 146.813 52.4762 146.813 52.4714V39.8397C146.813 39.7946 146.845 39.756 146.89 39.7488C148.004 39.5694 148.667 39.6426 149.864 40.4328C149.88 40.4431 149.898 40.4487 149.916 40.4482C151.712 40.4036 155.03 40.3409 156.585 40.3842C156.695 40.3873 156.807 40.0561 156.715 39.996L142.734 30.8396C142.72 30.8301 142.702 30.825 142.686 30.8247C135.933 30.6965 132.169 30.3831 125.284 29.4503C121.889 28.5829 119.736 27.8445 115.75 26.3698C115.728 26.3617 115.709 26.3447 115.699 26.3236C113.641 22.1464 112.64 19.837 110.987 15.8382C110.961 15.7756 111.009 15.7061 111.076 15.71C112.109 15.7713 112.745 15.9195 114.672 16.7258C114.684 16.7306 114.696 16.7332 114.709 16.7331C115.412 16.7276 115.812 16.7249 116.385 16.733C116.394 16.7332 116.403 16.732 116.412 16.7296C117.332 16.4706 117.855 16.2676 118.791 15.7021C119.692 15.1571 110.689 10.9137 109.953 10.5688C109.921 10.5535 109.905 10.5234 109.905 10.4875V5.77679C109.905 5.74999 109.917 5.72433 109.937 5.70666C111.389 4.42655 111.819 2.90635 113.742 1.15684C113.812 1.09308 113.754 0.975687 113.663 0.996917C110.586 1.70632 109.829 3.25041 107.526 4.6955C107.518 4.70072 107.51 4.70734 107.504 4.7149L104.108 8.81367C104.1 8.8231 104.09 8.83097 104.079 8.83663C98.7162 11.6362 95.8561 13.4577 90.7866 16.7215C90.7748 16.7291 90.7644 16.7397 90.7573 16.7518C90.3329 17.4665 90.29 17.9708 90.76 19.1189C90.7654 19.132 90.7739 19.144 90.7845 19.1534L93.4658 21.5134C93.4887 21.5333 93.5007 21.5634 93.497 21.5934C93.3401 22.9865 93.0336 23.7932 92.3078 25.0349C92.261 25.1159 92.3491 25.21 92.4317 25.1654L96.5571 22.9309C96.5709 22.9237 96.5856 22.9199 96.6012 22.9199H101.283C101.329 22.9199 101.367 22.952 101.374 22.9974C102.51 30.9805 103.376 45.1035 104.082 45.9344C104.093 45.9467 104.097 45.9526 104.102 45.9679C104.25 46.4514 107.129 55.8917 108.525 64.0882Z" fill="#F7F7F8"/>
<path d="M7.84065 1.15381H76.6593C80.08 1.15381 82.853 3.94342 82.853 7.38458V66.2307H1.64697V7.38458C1.64697 3.94342 4.41998 1.15381 7.84065 1.15381Z" fill="#F7F7F8" stroke="#2F2F2F" stroke-width="2.5"/>
<path d="M20.4535 43.0267V43.9272H19.5583V43.0267H20.4535ZM20.4535 42.126V43.0267H19.5583V42.126H20.4535ZM20.4535 41.2255V42.126H19.5583V41.2255H20.4535ZM20.4535 40.3249V41.2255H19.5583V40.3249H20.4535ZM20.4535 39.4243V40.3249H19.5583V39.4243H20.4535ZM20.4535 38.5238V39.4243H19.5583V38.5238H20.4535ZM20.4535 37.6232V38.5238H19.5583V37.6232H20.4535ZM20.4535 36.7227V37.6232H19.5583V36.7227H20.4535ZM20.4535 35.8221V36.7227H19.5583V35.8221H20.4535ZM20.4535 34.9216V35.8221H19.5583V34.9216H20.4535ZM20.4535 34.021V34.9216H19.5583V34.021H20.4535ZM20.4535 33.1205V34.021H19.5583V33.1205H20.4535ZM20.4535 32.2198V33.1205H19.5583V32.2198H20.4535ZM20.4535 31.3193V32.2198H19.5583V31.3193H20.4535ZM20.4535 30.4187V31.3193H19.5583V30.4187H20.4535ZM21.3487 30.4187V31.3193H20.4535V30.4187H21.3487ZM21.3487 31.3193V32.2198H20.4535V31.3193H21.3487ZM21.3487 32.2198V33.1205H20.4535V32.2198H21.3487ZM21.3487 33.1205V34.021H20.4535V33.1205H21.3487ZM21.3487 34.021V34.9216H20.4535V34.021H21.3487ZM21.3487 34.9216V35.8221H20.4535V34.9216H21.3487ZM21.3487 35.8221V36.7227H20.4535V35.8221H21.3487ZM22.2439 36.7227V37.6232H21.3487V36.7227H22.2439ZM22.2439 37.6232V38.5238H21.3487V37.6232H22.2439ZM22.2439 38.5238V39.4243H21.3487V38.5238H22.2439ZM22.2439 39.4243V40.3249H21.3487V39.4243H22.2439ZM22.2439 40.3249V41.2255H21.3487V40.3249H22.2439ZM22.2439 41.2255V42.126H21.3487V41.2255H22.2439ZM22.2439 42.126V43.0267H21.3487V42.126H22.2439ZM22.2439 43.0267V43.9272H21.3487V43.0267H22.2439ZM23.1391 43.0267V43.9272H22.2439V43.0267H23.1391ZM24.0343 43.0267V43.9272H23.1391V43.0267H24.0343ZM24.0343 42.126V43.0267H23.1391V42.126H24.0343ZM24.0343 41.2255V42.126H23.1391V41.2255H24.0343ZM24.0343 40.3249V41.2255H23.1391V40.3249H24.0343ZM24.0343 39.4243V40.3249H23.1391V39.4243H24.0343ZM24.0343 38.5238V39.4243H23.1391V38.5238H24.0343ZM24.0343 37.6232V38.5238H23.1391V37.6232H24.0343ZM24.0343 36.7227V37.6232H23.1391V36.7227H24.0343ZM23.1391 36.7227V37.6232H22.2439V36.7227H23.1391ZM23.1391 35.8221V36.7227H22.2439V35.8221H23.1391ZM23.1391 37.6232V38.5238H22.2439V37.6232H23.1391ZM23.1391 38.5238V39.4243H22.2439V38.5238H23.1391ZM23.1391 39.4243V40.3249H22.2439V39.4243H23.1391ZM23.1391 40.3249V41.2255H22.2439V40.3249H23.1391ZM23.1391 41.2255V42.126H22.2439V41.2255H23.1391ZM23.1391 42.126V43.0267H22.2439V42.126H23.1391ZM21.3487 43.0267V43.9272H20.4535V43.0267H21.3487ZM21.3487 42.126V43.0267H20.4535V42.126H21.3487ZM21.3487 41.2255V42.126H20.4535V41.2255H21.3487ZM21.3487 40.3249V41.2255H20.4535V40.3249H21.3487ZM21.3487 39.4243V40.3249H20.4535V39.4243H21.3487ZM21.3487 38.5238V39.4243H20.4535V38.5238H21.3487ZM21.3487 37.6232V38.5238H20.4535V37.6232H21.3487ZM21.3487 36.7227V37.6232H20.4535V36.7227H21.3487ZM20.4535 21.4131V22.3136H19.5583V21.4131H20.4535ZM20.4535 22.3136V23.2142H19.5583V22.3136H20.4535ZM20.4535 23.2142V24.1148H19.5583V23.2142H20.4535ZM20.4535 24.1148V25.0154H19.5583V24.1148H20.4535ZM20.4535 25.0154V25.9159H19.5583V25.0154H20.4535ZM20.4535 25.9159V26.8165H19.5583V25.9159H20.4535ZM20.4535 26.8165V27.7171H19.5583V26.8165H20.4535ZM20.4535 27.7171V28.6176H19.5583V27.7171H20.4535ZM20.4535 28.6176V29.5182H19.5583V28.6176H20.4535ZM20.4535 29.5182V30.4187H19.5583V29.5182H20.4535ZM23.1391 21.4131V22.3136H22.2439V21.4131H23.1391ZM23.1391 22.3136V23.2142H22.2439V22.3136H23.1391ZM23.1391 23.2142V24.1148H22.2439V23.2142H23.1391ZM23.1391 24.1148V25.0154H22.2439V24.1148H23.1391ZM23.1391 25.0154V25.9159H22.2439V25.0154H23.1391ZM23.1391 25.9159V26.8165H22.2439V25.9159H23.1391ZM23.1391 27.7171V28.6176H22.2439V27.7171H23.1391ZM23.1391 28.6176V29.5182H22.2439V28.6176H23.1391ZM23.1391 29.5182V30.4187H22.2439V29.5182H23.1391ZM23.1391 30.4187V31.3193H22.2439V30.4187H23.1391ZM23.1391 31.3193V32.2198H22.2439V31.3193H23.1391ZM23.1391 32.2198V33.1205H22.2439V32.2198H23.1391ZM23.1391 33.1205V34.021H22.2439V33.1205H23.1391ZM24.0343 34.021V34.9216H23.1391V34.021H24.0343ZM24.0343 34.9216V35.8221H23.1391V34.9216H24.0343ZM24.0343 35.8221V36.7227H23.1391V35.8221H24.0343ZM24.0343 33.1205V34.021H23.1391V33.1205H24.0343ZM24.0343 32.2198V33.1205H23.1391V32.2198H24.0343ZM24.0343 31.3193V32.2198H23.1391V31.3193H24.0343ZM24.0343 30.4187V31.3193H23.1391V30.4187H24.0343ZM24.0343 29.5182V30.4187H23.1391V29.5182H24.0343ZM24.0343 28.6176V29.5182H23.1391V28.6176H24.0343ZM24.0343 27.7171V28.6176H23.1391V27.7171H24.0343ZM24.0343 26.8165V27.7171H23.1391V26.8165H24.0343ZM24.0343 25.9159V26.8165H23.1391V25.9159H24.0343ZM24.0343 25.0154V25.9159H23.1391V25.0154H24.0343ZM23.1391 26.8165V27.7171H22.2439V26.8165H23.1391ZM24.0343 24.1148V25.0154H23.1391V24.1148H24.0343ZM24.0343 23.2142V24.1148H23.1391V23.2142H24.0343ZM24.0343 22.3136V23.2142H23.1391V22.3136H24.0343ZM24.0343 21.4131V22.3136H23.1391V21.4131H24.0343ZM22.2439 21.4131V22.3136H21.3487V21.4131H22.2439ZM21.3487 21.4131V22.3136H20.4535V21.4131H21.3487ZM21.3487 22.3136V23.2142H20.4535V22.3136H21.3487ZM22.2439 22.3136V23.2142H21.3487V22.3136H22.2439ZM22.2439 23.2142V24.1148H21.3487V23.2142H22.2439ZM22.2439 24.1148V25.0154H21.3487V24.1148H22.2439ZM22.2439 25.0154V25.9159H21.3487V25.0154H22.2439ZM22.2439 25.9159V26.8165H21.3487V25.9159H22.2439ZM22.2439 26.8165V27.7171H21.3487V26.8165H22.2439ZM22.2439 27.7171V28.6176H21.3487V27.7171H22.2439ZM21.3487 28.6176V29.5182H20.4535V28.6176H21.3487ZM21.3487 29.5182V30.4187H20.4535V29.5182H21.3487ZM21.3487 27.7171V28.6176H20.4535V27.7171H21.3487ZM21.3487 26.8165V27.7171H20.4535V26.8165H21.3487ZM21.3487 25.9159V26.8165H20.4535V25.9159H21.3487ZM21.3487 25.0154V25.9159H20.4535V25.0154H21.3487ZM21.3487 24.1148V25.0154H20.4535V24.1148H21.3487ZM21.3487 23.2142V24.1148H20.4535V23.2142H21.3487ZM22.2439 28.6176V29.5182H21.3487V28.6176H22.2439ZM22.2439 29.5182V30.4187H21.3487V29.5182H22.2439ZM22.2439 30.4187V31.3193H21.3487V30.4187H22.2439ZM22.2439 31.3193V32.2198H21.3487V31.3193H22.2439ZM22.2439 32.2198V33.1205H21.3487V32.2198H22.2439ZM22.2439 33.1205V34.021H21.3487V33.1205H22.2439ZM22.2439 34.021V34.9216H21.3487V34.021H22.2439ZM22.2439 34.9216V35.8221H21.3487V34.9216H22.2439ZM22.2439 35.8221V36.7227H21.3487V35.8221H22.2439ZM23.1391 34.9216V35.8221H22.2439V34.9216H23.1391ZM23.1391 34.021V34.9216H22.2439V34.021H23.1391ZM19.5583 21.4131V22.3136H18.6631V21.4131H19.5583ZM18.6631 21.4131V22.3136H17.7679V21.4131H18.6631ZM17.7679 21.4131V22.3136H16.8728V21.4131H17.7679ZM16.8728 21.4131V22.3136H15.9775V21.4131H16.8728ZM15.9775 21.4131V22.3136H15.0823V21.4131H15.9775ZM15.9775 22.3136V23.2142H15.0823V22.3136H15.9775ZM15.9775 23.2142V24.1148H15.0823V23.2142H15.9775ZM16.8728 22.3136V23.2142H15.9775V22.3136H16.8728ZM17.7679 22.3136V23.2142H16.8728V22.3136H17.7679ZM18.6631 22.3136V23.2142H17.7679V22.3136H18.6631ZM19.5583 23.2142V24.1148H18.6631V23.2142H19.5583ZM19.5583 22.3136V23.2142H18.6631V22.3136H19.5583ZM18.6631 23.2142V24.1148H17.7679V23.2142H18.6631ZM17.7679 23.2142V24.1148H16.8728V23.2142H17.7679ZM16.8728 23.2142V24.1148H15.9775V23.2142H16.8728ZM24.9295 21.4131V22.3136H24.0343V21.4131H24.9295ZM25.8248 21.4131V22.3136H24.9295V21.4131H25.8248ZM26.72 21.4131V22.3136H25.8248V21.4131H26.72ZM27.6152 21.4131V22.3136H26.72V21.4131H27.6152ZM28.5104 21.4131V22.3136H27.6152V21.4131H28.5104ZM28.5104 22.3136V23.2142H27.6152V22.3136H28.5104ZM27.6152 22.3136V23.2142H26.72V22.3136H27.6152ZM26.72 22.3136V23.2142H25.8248V22.3136H26.72ZM25.8248 22.3136V23.2142H24.9295V22.3136H25.8248ZM24.9295 22.3136V23.2142H24.0343V22.3136H24.9295ZM24.9295 23.2142V24.1148H24.0343V23.2142H24.9295ZM25.8248 23.2142V24.1148H24.9295V23.2142H25.8248ZM26.72 23.2142V24.1148H25.8248V23.2142H26.72ZM27.6152 23.2142V24.1148H26.72V23.2142H27.6152ZM28.5104 23.2142V24.1148H27.6152V23.2142H28.5104ZM15.9775 24.1148V25.0154H15.0823V24.1148H15.9775ZM15.9775 25.0154V25.9159H15.0823V25.0154H15.9775ZM16.8728 25.0154V25.9159H15.9775V25.0154H16.8728ZM17.7679 25.0154V25.9159H16.8728V25.0154H17.7679ZM18.6631 25.0154V25.9159H17.7679V25.0154H18.6631ZM19.5583 25.0154V25.9159H18.6631V25.0154H19.5583ZM19.5583 24.1148V25.0154H18.6631V24.1148H19.5583ZM18.6631 24.1148V25.0154H17.7679V24.1148H18.6631ZM17.7679 24.1148V25.0154H16.8728V24.1148H17.7679ZM16.8728 24.1148V25.0154H15.9775V24.1148H16.8728ZM28.5104 24.1148V25.0154H27.6152V24.1148H28.5104ZM28.5104 25.0154V25.9159H27.6152V25.0154H28.5104ZM27.6152 25.0154V25.9159H26.72V25.0154H27.6152ZM26.72 25.0154V25.9159H25.8248V25.0154H26.72ZM25.8248 25.0154V25.9159H24.9295V25.0154H25.8248ZM24.9295 25.0154V25.9159H24.0343V25.0154H24.9295ZM24.9295 24.1148V25.0154H24.0343V24.1148H24.9295ZM25.8248 24.1148V25.0154H24.9295V24.1148H25.8248ZM26.72 24.1148V25.0154H25.8248V24.1148H26.72ZM27.6152 24.1148V25.0154H26.72V24.1148H27.6152ZM33.0029 21.4131V22.3136H32.1077V21.4131H33.0029ZM33.0029 22.3136V23.2142H32.1077V22.3136H33.0029ZM33.0029 23.2142V24.1148H32.1077V23.2142H33.0029ZM35.6886 21.4131V22.3136H34.7934V21.4131H35.6886ZM35.6886 22.3136V23.2142H34.7934V22.3136H35.6886ZM35.6886 23.2142V24.1148H34.7934V23.2142H35.6886ZM36.5838 23.2142V24.1148H35.6886V23.2142H36.5838ZM36.5838 22.3136V23.2142H35.6886V22.3136H36.5838ZM36.5838 21.4131V22.3136H35.6886V21.4131H36.5838ZM34.7934 21.4131V22.3136H33.8981V21.4131H34.7934ZM33.8981 21.4131V22.3136H33.0029V21.4131H33.8981ZM33.8981 22.3136V23.2142H33.0029V22.3136H33.8981ZM34.7934 22.3136V23.2142H33.8981V22.3136H34.7934ZM34.7934 23.2142V24.1148H33.8981V23.2142H34.7934ZM33.8981 23.2142V24.1148H33.0029V23.2142H33.8981ZM33.0029 24.1148V25.0154H32.1077V24.1148H33.0029ZM33.8981 24.1148V25.0154H33.0029V24.1148H33.8981ZM34.7934 24.1148V25.0154H33.8981V24.1148H34.7934ZM35.6886 24.1148V25.0154H34.7934V24.1148H35.6886ZM36.5838 24.1148V25.0154H35.6886V24.1148H36.5838ZM33.0029 43.0267V43.9272H32.1077V43.0267H33.0029ZM33.0029 42.126V43.0267H32.1077V42.126H33.0029ZM33.0029 41.2255V42.126H32.1077V41.2255H33.0029ZM33.0029 40.3249V41.2255H32.1077V40.3249H33.0029ZM33.0029 39.4243V40.3249H32.1077V39.4243H33.0029ZM33.0029 38.5238V39.4243H32.1077V38.5238H33.0029ZM33.0029 37.6232V38.5238H32.1077V37.6232H33.0029ZM33.0029 36.7227V37.6232H32.1077V36.7227H33.0029ZM33.0029 35.8221V36.7227H32.1077V35.8221H33.0029ZM33.0029 34.9216V35.8221H32.1077V34.9216H33.0029ZM33.0029 34.021V34.9216H32.1077V34.021H33.0029ZM33.0029 33.1205V34.021H32.1077V33.1205H33.0029ZM33.0029 32.2198V33.1205H32.1077V32.2198H33.0029ZM33.0029 31.3193V32.2198H32.1077V31.3193H33.0029ZM33.0029 30.4187V31.3193H32.1077V30.4187H33.0029ZM33.8981 30.4187V31.3193H33.0029V30.4187H33.8981ZM33.8981 31.3193V32.2198H33.0029V31.3193H33.8981ZM33.8981 32.2198V33.1205H33.0029V32.2198H33.8981ZM33.8981 33.1205V34.021H33.0029V33.1205H33.8981ZM33.8981 34.021V34.9216H33.0029V34.021H33.8981ZM33.8981 34.9216V35.8221H33.0029V34.9216H33.8981ZM33.8981 35.8221V36.7227H33.0029V35.8221H33.8981ZM34.7934 36.7227V37.6232H33.8981V36.7227H34.7934ZM34.7934 37.6232V38.5238H33.8981V37.6232H34.7934ZM34.7934 38.5238V39.4243H33.8981V38.5238H34.7934ZM34.7934 39.4243V40.3249H33.8981V39.4243H34.7934ZM34.7934 40.3249V41.2255H33.8981V40.3249H34.7934ZM34.7934 41.2255V42.126H33.8981V41.2255H34.7934ZM34.7934 42.126V43.0267H33.8981V42.126H34.7934ZM34.7934 43.0267V43.9272H33.8981V43.0267H34.7934ZM35.6886 43.0267V43.9272H34.7934V43.0267H35.6886ZM36.5838 43.0267V43.9272H35.6886V43.0267H36.5838ZM36.5838 42.126V43.0267H35.6886V42.126H36.5838ZM36.5838 41.2255V42.126H35.6886V41.2255H36.5838ZM36.5838 40.3249V41.2255H35.6886V40.3249H36.5838ZM36.5838 39.4243V40.3249H35.6886V39.4243H36.5838ZM36.5838 38.5238V39.4243H35.6886V38.5238H36.5838ZM36.5838 37.6232V38.5238H35.6886V37.6232H36.5838ZM36.5838 36.7227V37.6232H35.6886V36.7227H36.5838ZM35.6886 36.7227V37.6232H34.7934V36.7227H35.6886ZM35.6886 35.8221V36.7227H34.7934V35.8221H35.6886ZM35.6886 37.6232V38.5238H34.7934V37.6232H35.6886ZM35.6886 38.5238V39.4243H34.7934V38.5238H35.6886ZM35.6886 39.4243V40.3249H34.7934V39.4243H35.6886ZM35.6886 40.3249V41.2255H34.7934V40.3249H35.6886ZM35.6886 41.2255V42.126H34.7934V41.2255H35.6886ZM35.6886 42.126V43.0267H34.7934V42.126H35.6886ZM33.8981 43.0267V43.9272H33.0029V43.0267H33.8981ZM33.8981 42.126V43.0267H33.0029V42.126H33.8981ZM33.8981 41.2255V42.126H33.0029V41.2255H33.8981ZM33.8981 40.3249V41.2255H33.0029V40.3249H33.8981ZM33.8981 39.4243V40.3249H33.0029V39.4243H33.8981ZM33.8981 38.5238V39.4243H33.0029V38.5238H33.8981ZM33.8981 37.6232V38.5238H33.0029V37.6232H33.8981ZM33.8981 36.7227V37.6232H33.0029V36.7227H33.8981ZM33.0029 28.6176V29.5182H32.1077V28.6176H33.0029ZM33.0029 29.5182V30.4187H32.1077V29.5182H33.0029ZM35.6886 28.6176V29.5182H34.7934V28.6176H35.6886ZM35.6886 29.5182V30.4187H34.7934V29.5182H35.6886ZM35.6886 30.4187V31.3193H34.7934V30.4187H35.6886ZM35.6886 31.3193V32.2198H34.7934V31.3193H35.6886ZM35.6886 32.2198V33.1205H34.7934V32.2198H35.6886ZM35.6886 33.1205V34.021H34.7934V33.1205H35.6886ZM36.5838 34.021V34.9216H35.6886V34.021H36.5838ZM36.5838 34.9216V35.8221H35.6886V34.9216H36.5838ZM36.5838 35.8221V36.7227H35.6886V35.8221H36.5838ZM36.5838 33.1205V34.021H35.6886V33.1205H36.5838ZM36.5838 32.2198V33.1205H35.6886V32.2198H36.5838ZM36.5838 31.3193V32.2198H35.6886V31.3193H36.5838ZM36.5838 30.4187V31.3193H35.6886V30.4187H36.5838ZM36.5838 29.5182V30.4187H35.6886V29.5182H36.5838ZM36.5838 28.6176V29.5182H35.6886V28.6176H36.5838ZM33.8981 28.6176V29.5182H33.0029V28.6176H33.8981ZM33.8981 29.5182V30.4187H33.0029V29.5182H33.8981ZM34.7934 28.6176V29.5182H33.8981V28.6176H34.7934ZM34.7934 29.5182V30.4187H33.8981V29.5182H34.7934ZM34.7934 30.4187V31.3193H33.8981V30.4187H34.7934ZM34.7934 31.3193V32.2198H33.8981V31.3193H34.7934ZM34.7934 32.2198V33.1205H33.8981V32.2198H34.7934ZM34.7934 33.1205V34.021H33.8981V33.1205H34.7934ZM34.7934 34.021V34.9216H33.8981V34.021H34.7934ZM34.7934 34.9216V35.8221H33.8981V34.9216H34.7934ZM34.7934 35.8221V36.7227H33.8981V35.8221H34.7934ZM35.6886 34.9216V35.8221H34.7934V34.9216H35.6886ZM35.6886 34.021V34.9216H34.7934V34.021H35.6886ZM35.6886 27.7171V28.6176H34.7934V27.7171H35.6886ZM36.5838 27.7171V28.6176H35.6886V27.7171H36.5838ZM34.7934 27.7171V28.6176H33.8981V27.7171H34.7934ZM33.8981 27.7171V28.6176H33.0029V27.7171H33.8981ZM33.0029 27.7171V28.6176H32.1077V27.7171H33.0029ZM50.0197 32.2198V33.1205H49.1245V32.2198H50.0197ZM50.9149 32.2198V33.1205H50.0197V32.2198H50.9149ZM51.8101 32.2198V33.1205H50.9149V32.2198H51.8101ZM52.7053 32.2198V33.1205H51.8101V32.2198H52.7053ZM53.6005 32.2198V33.1205H52.7053V32.2198H53.6005ZM53.6005 31.3193V32.2198H52.7053V31.3193H53.6005ZM53.6005 30.4187V31.3193H52.7053V30.4187H53.6005ZM52.7053 30.4187V31.3193H51.8101V30.4187H52.7053ZM51.8101 30.4187V31.3193H50.9149V30.4187H51.8101ZM50.9149 30.4187V31.3193H50.0197V30.4187H50.9149ZM50.9149 31.3193V32.2198H50.0197V31.3193H50.9149ZM50.0197 31.3193V32.2198H49.1245V31.3193H50.0197ZM51.8101 31.3193V32.2198H50.9149V31.3193H51.8101ZM52.7053 31.3193V32.2198H51.8101V31.3193H52.7053ZM50.0197 30.4187V31.3193H49.1245V30.4187H50.0197ZM49.1245 30.4187V31.3193H48.2293V30.4187H49.1245ZM49.1245 29.5182V30.4187H48.2293V29.5182H49.1245ZM50.0197 29.5182V30.4187H49.1245V29.5182H50.0197ZM50.9149 29.5182V30.4187H50.0197V29.5182H50.9149ZM51.8101 29.5182V30.4187H50.9149V29.5182H51.8101ZM52.7053 29.5182V30.4187H51.8101V29.5182H52.7053ZM52.7053 28.6176V29.5182H51.8101V28.6176H52.7053ZM51.8101 28.6176V29.5182H50.9149V28.6176H51.8101ZM50.9149 28.6176V29.5182H50.0197V28.6176H50.9149ZM50.0197 28.6176V29.5182H49.1245V28.6176H50.0197ZM49.1245 28.6176V29.5182H48.2293V28.6176H49.1245ZM50.9149 27.7171V28.6176H50.0197V27.7171H50.9149ZM51.8101 27.7171V28.6176H50.9149V27.7171H51.8101ZM50.0197 27.7171V28.6176H49.1245V27.7171H50.0197ZM50.0197 26.8165V27.7171H49.1245V26.8165H50.0197ZM49.1245 26.8165V27.7171H48.2293V26.8165H49.1245ZM49.1245 27.7171V28.6176H48.2293V27.7171H49.1245ZM48.2293 27.7171V28.6176H47.3341V27.7171H48.2293ZM48.2293 26.8165V27.7171H47.3341V26.8165H48.2293ZM48.2293 28.6176V29.5182H47.3341V28.6176H48.2293ZM47.3341 28.6176V29.5182H46.4389V28.6176H47.3341ZM47.3341 29.5182V30.4187H46.4389V29.5182H47.3341ZM48.2293 29.5182V30.4187H47.3341V29.5182H48.2293ZM46.4389 29.5182V30.4187H45.5436V29.5182H46.4389ZM46.4389 28.6176V29.5182H45.5436V28.6176H46.4389ZM46.4389 27.7171V28.6176H45.5436V27.7171H46.4389ZM46.4389 26.8165V27.7171H45.5436V26.8165H46.4389ZM47.3341 26.8165V27.7171H46.4389V26.8165H47.3341ZM47.3341 27.7171V28.6176H46.4389V27.7171H47.3341ZM45.5436 26.8165V27.7171H44.6484V26.8165H45.5436ZM44.6484 26.8165V27.7171H43.7532V26.8165H44.6484ZM43.7532 26.8165V27.7171H42.858V26.8165H43.7532ZM43.7532 27.7171V28.6176H42.858V27.7171H43.7532ZM43.7532 28.6176V29.5182H42.858V28.6176H43.7532ZM43.7532 29.5182V30.4187H42.858V29.5182H43.7532ZM44.6484 29.5182V30.4187H43.7532V29.5182H44.6484ZM45.5436 29.5182V30.4187H44.6484V29.5182H45.5436ZM45.5436 28.6176V29.5182H44.6484V28.6176H45.5436ZM45.5436 27.7171V28.6176H44.6484V27.7171H45.5436ZM44.6484 27.7171V28.6176H43.7532V27.7171H44.6484ZM44.6484 28.6176V29.5182H43.7532V28.6176H44.6484ZM42.858 28.6176V29.5182H41.9629V28.6176H42.858ZM42.858 27.7171V28.6176H41.9629V27.7171H42.858ZM41.9629 27.7171V28.6176H41.0677V27.7171H41.9629ZM41.9629 28.6176V29.5182H41.0677V28.6176H41.9629ZM41.0677 28.6176V29.5182H40.1725V28.6176H41.0677ZM41.0677 29.5182V30.4187H40.1725V29.5182H41.0677ZM41.0677 30.4187V31.3193H40.1725V30.4187H41.0677ZM41.9629 30.4187V31.3193H41.0677V30.4187H41.9629ZM41.9629 29.5182V30.4187H41.0677V29.5182H41.9629ZM42.858 29.5182V30.4187H41.9629V29.5182H42.858ZM42.858 30.4187V31.3193H41.9629V30.4187H42.858ZM43.7532 30.4187V31.3193H42.858V30.4187H43.7532ZM44.6484 30.4187V31.3193H43.7532V30.4187H44.6484ZM40.1725 30.4187V31.3193H39.2773V30.4187H40.1725ZM40.1725 31.3193V32.2198H39.2773V31.3193H40.1725ZM40.1725 32.2198V33.1205H39.2773V32.2198H40.1725ZM40.1725 33.1205V34.021H39.2773V33.1205H40.1725ZM40.1725 34.021V34.9216H39.2773V34.021H40.1725ZM40.1725 34.9216V35.8221H39.2773V34.9216H40.1725ZM40.1725 35.8221V36.7227H39.2773V35.8221H40.1725ZM40.1725 36.7227V37.6232H39.2773V36.7227H40.1725ZM40.1725 37.6232V38.5238H39.2773V37.6232H40.1725ZM40.1725 38.5238V39.4243H39.2773V38.5238H40.1725ZM41.0677 38.5238V39.4243H40.1725V38.5238H41.0677ZM41.0677 39.4243V40.3249H40.1725V39.4243H41.0677ZM40.1725 39.4243V40.3249H39.2773V39.4243H40.1725ZM41.9629 39.4243V40.3249H41.0677V39.4243H41.9629ZM42.858 39.4243V40.3249H41.9629V39.4243H42.858ZM43.7532 39.4243V40.3249H42.858V39.4243H43.7532ZM44.6484 39.4243V40.3249H43.7532V39.4243H44.6484ZM43.7532 38.5238V39.4243H42.858V38.5238H43.7532ZM43.7532 37.6232V38.5238H42.858V37.6232H43.7532ZM43.7532 36.7227V37.6232H42.858V36.7227H43.7532ZM43.7532 35.8221V36.7227H42.858V35.8221H43.7532ZM43.7532 34.9216V35.8221H42.858V34.9216H43.7532ZM43.7532 34.021V34.9216H42.858V34.021H43.7532ZM43.7532 33.1205V34.021H42.858V33.1205H43.7532ZM43.7532 32.2198V33.1205H42.858V32.2198H43.7532ZM43.7532 31.3193V32.2198H42.858V31.3193H43.7532ZM42.858 31.3193V32.2198H41.9629V31.3193H42.858ZM41.9629 31.3193V32.2198H41.0677V31.3193H41.9629ZM41.0677 31.3193V32.2198H40.1725V31.3193H41.0677ZM41.0677 32.2198V33.1205H40.1725V32.2198H41.0677ZM41.0677 33.1205V34.021H40.1725V33.1205H41.0677ZM41.0677 34.021V34.9216H40.1725V34.021H41.0677ZM41.0677 34.9216V35.8221H40.1725V34.9216H41.0677ZM41.0677 35.8221V36.7227H40.1725V35.8221H41.0677ZM41.0677 36.7227V37.6232H40.1725V36.7227H41.0677ZM41.0677 37.6232V38.5238H40.1725V37.6232H41.0677ZM41.9629 38.5238V39.4243H41.0677V38.5238H41.9629ZM42.858 38.5238V39.4243H41.9629V38.5238H42.858ZM42.858 37.6232V38.5238H41.9629V37.6232H42.858ZM42.858 36.7227V37.6232H41.9629V36.7227H42.858ZM42.858 35.8221V36.7227H41.9629V35.8221H42.858ZM42.858 34.9216V35.8221H41.9629V34.9216H42.858ZM41.9629 34.9216V35.8221H41.0677V34.9216H41.9629ZM41.9629 34.021V34.9216H41.0677V34.021H41.9629ZM41.9629 33.1205V34.021H41.0677V33.1205H41.9629ZM41.9629 32.2198V33.1205H41.0677V32.2198H41.9629ZM42.858 32.2198V33.1205H41.9629V32.2198H42.858ZM42.858 33.1205V34.021H41.9629V33.1205H42.858ZM42.858 34.021V34.9216H41.9629V34.021H42.858ZM41.9629 36.7227V37.6232H41.0677V36.7227H41.9629ZM41.9629 37.6232V38.5238H41.0677V37.6232H41.9629ZM41.9629 35.8221V36.7227H41.0677V35.8221H41.9629ZM50.0197 38.5238V39.4243H49.1245V38.5238H50.0197ZM50.9149 38.5238V39.4243H50.0197V38.5238H50.9149ZM51.8101 38.5238V39.4243H50.9149V38.5238H51.8101ZM52.7053 38.5238V39.4243H51.8101V38.5238H52.7053ZM53.6005 38.5238V39.4243H52.7053V38.5238H53.6005ZM53.6005 39.4243V40.3249H52.7053V39.4243H53.6005ZM52.7053 39.4243V40.3249H51.8101V39.4243H52.7053ZM51.8101 39.4243V40.3249H50.9149V39.4243H51.8101ZM50.9149 39.4243V40.3249H50.0197V39.4243H50.9149ZM50.0197 39.4243V40.3249H49.1245V39.4243H50.0197ZM49.1245 39.4243V40.3249H48.2293V39.4243H49.1245ZM49.1245 40.3249V41.2255H48.2293V40.3249H49.1245ZM50.0197 40.3249V41.2255H49.1245V40.3249H50.0197ZM50.9149 40.3249V41.2255H50.0197V40.3249H50.9149ZM51.8101 40.3249V41.2255H50.9149V40.3249H51.8101ZM51.8101 41.2255V42.126H50.9149V41.2255H51.8101ZM52.7053 41.2255V42.126H51.8101V41.2255H52.7053ZM52.7053 40.3249V41.2255H51.8101V40.3249H52.7053ZM51.8101 42.126V43.0267H50.9149V42.126H51.8101ZM50.9149 42.126V43.0267H50.0197V42.126H50.9149ZM50.9149 41.2255V42.126H50.0197V41.2255H50.9149ZM50.0197 41.2255V42.126H49.1245V41.2255H50.0197ZM50.0197 42.126V43.0267H49.1245V42.126H50.0197ZM50.0197 43.0267V43.9272H49.1245V43.0267H50.0197ZM49.1245 43.0267V43.9272H48.2293V43.0267H49.1245ZM48.2293 43.0267V43.9272H47.3341V43.0267H48.2293ZM47.3341 43.0267V43.9272H46.4389V43.0267H47.3341ZM46.4389 43.0267V43.9272H45.5436V43.0267H46.4389ZM45.5436 43.0267V43.9272H44.6484V43.0267H45.5436ZM44.6484 43.0267V43.9272H43.7532V43.0267H44.6484ZM43.7532 43.0267V43.9272H42.858V43.0267H43.7532ZM44.6484 42.126V43.0267H43.7532V42.126H44.6484ZM45.5436 42.126V43.0267H44.6484V42.126H45.5436ZM46.4389 42.126V43.0267H45.5436V42.126H46.4389ZM47.3341 42.126V43.0267H46.4389V42.126H47.3341ZM48.2293 42.126V43.0267H47.3341V42.126H48.2293ZM49.1245 42.126V43.0267H48.2293V42.126H49.1245ZM49.1245 41.2255V42.126H48.2293V41.2255H49.1245ZM48.2293 41.2255V42.126H47.3341V41.2255H48.2293ZM47.3341 41.2255V42.126H46.4389V41.2255H47.3341ZM46.4389 41.2255V42.126H45.5436V41.2255H46.4389ZM45.5436 41.2255V42.126H44.6484V41.2255H45.5436ZM44.6484 41.2255V42.126H43.7532V41.2255H44.6484ZM43.7532 42.126V43.0267H42.858V42.126H43.7532ZM42.858 42.126V43.0267H41.9629V42.126H42.858ZM41.9629 42.126V43.0267H41.0677V42.126H41.9629ZM41.9629 41.2255V42.126H41.0677V41.2255H41.9629ZM41.0677 41.2255V42.126H40.1725V41.2255H41.0677ZM41.0677 40.3249V41.2255H40.1725V40.3249H41.0677ZM41.9629 40.3249V41.2255H41.0677V40.3249H41.9629ZM42.858 40.3249V41.2255H41.9629V40.3249H42.858ZM43.7532 40.3249V41.2255H42.858V40.3249H43.7532ZM44.6484 40.3249V41.2255H43.7532V40.3249H44.6484ZM45.5436 40.3249V41.2255H44.6484V40.3249H45.5436ZM46.4389 40.3249V41.2255H45.5436V40.3249H46.4389ZM47.3341 40.3249V41.2255H46.4389V40.3249H47.3341ZM48.2293 40.3249V41.2255H47.3341V40.3249H48.2293ZM43.7532 41.2255V42.126H42.858V41.2255H43.7532ZM42.858 41.2255V42.126H41.9629V41.2255H42.858ZM53.6005 33.1205V34.021H52.7053V33.1205H53.6005ZM52.7053 33.1205V34.021H51.8101V33.1205H52.7053ZM51.8101 33.1205V34.021H50.9149V33.1205H51.8101ZM50.9149 33.1205V34.021H50.0197V33.1205H50.9149ZM50.0197 33.1205V34.021H49.1245V33.1205H50.0197ZM53.6005 34.021V34.9216H52.7053V34.021H53.6005ZM51.8101 34.021V34.9216H50.9149V34.021H51.8101ZM50.9149 34.021V34.9216H50.0197V34.021H50.9149ZM49.1245 34.021V34.9216H48.2293V34.021H49.1245ZM48.2293 34.021V34.9216H47.3341V34.021H48.2293ZM47.3341 34.021V34.9216H46.4389V34.021H47.3341ZM46.4389 34.021V34.9216H45.5436V34.021H46.4389ZM45.5436 34.021V34.9216H44.6484V34.021H45.5436ZM44.6484 34.021V34.9216H43.7532V34.021H44.6484ZM50.0197 34.021V34.9216H49.1245V34.021H50.0197ZM52.7053 34.021V34.9216H51.8101V34.021H52.7053ZM53.6005 34.9216V35.8221H52.7053V34.9216H53.6005ZM52.7053 34.9216V35.8221H51.8101V34.9216H52.7053ZM51.8101 34.9216V35.8221H50.9149V34.9216H51.8101ZM50.9149 34.9216V35.8221H50.0197V34.9216H50.9149ZM50.0197 34.9216V35.8221H49.1245V34.9216H50.0197ZM49.1245 34.9216V35.8221H48.2293V34.9216H49.1245ZM48.2293 34.9216V35.8221H47.3341V34.9216H48.2293ZM47.3341 34.9216V35.8221H46.4389V34.9216H47.3341ZM46.4389 34.9216V35.8221H45.5436V34.9216H46.4389ZM45.5436 34.9216V35.8221H44.6484V34.9216H45.5436ZM44.6484 34.9216V35.8221H43.7532V34.9216H44.6484ZM44.6484 35.8221V36.7227H43.7532V35.8221H44.6484ZM45.5436 35.8221V36.7227H44.6484V35.8221H45.5436ZM46.4389 35.8221V36.7227H45.5436V35.8221H46.4389ZM48.2293 35.8221V36.7227H47.3341V35.8221H48.2293ZM49.1245 35.8221V36.7227H48.2293V35.8221H49.1245ZM50.0197 35.8221V36.7227H49.1245V35.8221H50.0197ZM50.9149 35.8221V36.7227H50.0197V35.8221H50.9149ZM51.8101 35.8221V36.7227H50.9149V35.8221H51.8101ZM52.7053 35.8221V36.7227H51.8101V35.8221H52.7053ZM53.6005 35.8221V36.7227H52.7053V35.8221H53.6005ZM47.3341 35.8221V36.7227H46.4389V35.8221H47.3341ZM57.197 43.0267V43.9272H56.3018V43.0267H57.197ZM57.197 42.126V43.0267H56.3018V42.126H57.197ZM57.197 41.2255V42.126H56.3018V41.2255H57.197ZM57.197 40.3249V41.2255H56.3018V40.3249H57.197ZM57.197 39.4243V40.3249H56.3018V39.4243H57.197ZM57.197 38.5238V39.4243H56.3018V38.5238H57.197ZM57.197 37.6232V38.5238H56.3018V37.6232H57.197ZM57.197 36.7227V37.6232H56.3018V36.7227H57.197ZM57.197 35.8221V36.7227H56.3018V35.8221H57.197ZM57.197 34.9216V35.8221H56.3018V34.9216H57.197ZM57.197 34.021V34.9216H56.3018V34.021H57.197ZM57.197 33.1205V34.021H56.3018V33.1205H57.197ZM57.197 32.2198V33.1205H56.3018V32.2198H57.197ZM57.197 31.3193V32.2198H56.3018V31.3193H57.197ZM57.197 30.4187V31.3193H56.3018V30.4187H57.197ZM58.0922 30.4187V31.3193H57.197V30.4187H58.0922ZM58.0922 31.3193V32.2198H57.197V31.3193H58.0922ZM58.0922 32.2198V33.1205H57.197V32.2198H58.0922ZM58.0922 33.1205V34.021H57.197V33.1205H58.0922ZM58.0922 34.021V34.9216H57.197V34.021H58.0922ZM58.0922 34.9216V35.8221H57.197V34.9216H58.0922ZM58.0922 35.8221V36.7227H57.197V35.8221H58.0922ZM58.9874 36.7227V37.6232H58.0922V36.7227H58.9874ZM58.9874 37.6232V38.5238H58.0922V37.6232H58.9874ZM58.9874 38.5238V39.4243H58.0922V38.5238H58.9874ZM58.9874 39.4243V40.3249H58.0922V39.4243H58.9874ZM58.9874 40.3249V41.2255H58.0922V40.3249H58.9874ZM58.9874 41.2255V42.126H58.0922V41.2255H58.9874ZM58.9874 42.126V43.0267H58.0922V42.126H58.9874ZM58.9874 43.0267V43.9272H58.0922V43.0267H58.9874ZM59.8827 43.0267V43.9272H58.9874V43.0267H59.8827ZM60.7779 43.0267V43.9272H59.8827V43.0267H60.7779ZM60.7779 42.126V43.0267H59.8827V42.126H60.7779ZM60.7779 41.2255V42.126H59.8827V41.2255H60.7779ZM60.7779 40.3249V41.2255H59.8827V40.3249H60.7779ZM60.7779 39.4243V40.3249H59.8827V39.4243H60.7779ZM60.7779 38.5238V39.4243H59.8827V38.5238H60.7779ZM60.7779 37.6232V38.5238H59.8827V37.6232H60.7779ZM60.7779 36.7227V37.6232H59.8827V36.7227H60.7779ZM59.8827 36.7227V37.6232H58.9874V36.7227H59.8827ZM59.8827 35.8221V36.7227H58.9874V35.8221H59.8827ZM59.8827 37.6232V38.5238H58.9874V37.6232H59.8827ZM59.8827 38.5238V39.4243H58.9874V38.5238H59.8827ZM59.8827 39.4243V40.3249H58.9874V39.4243H59.8827ZM59.8827 40.3249V41.2255H58.9874V40.3249H59.8827ZM59.8827 41.2255V42.126H58.9874V41.2255H59.8827ZM59.8827 42.126V43.0267H58.9874V42.126H59.8827ZM58.0922 43.0267V43.9272H57.197V43.0267H58.0922ZM58.0922 42.126V43.0267H57.197V42.126H58.0922ZM58.0922 41.2255V42.126H57.197V41.2255H58.0922ZM58.0922 40.3249V41.2255H57.197V40.3249H58.0922ZM58.0922 39.4243V40.3249H57.197V39.4243H58.0922ZM58.0922 38.5238V39.4243H57.197V38.5238H58.0922ZM58.0922 37.6232V38.5238H57.197V37.6232H58.0922ZM58.0922 36.7227V37.6232H57.197V36.7227H58.0922ZM57.197 26.8165V27.7171H56.3018V26.8165H57.197ZM57.197 27.7171V28.6176H56.3018V27.7171H57.197ZM57.197 28.6176V29.5182H56.3018V28.6176H57.197ZM57.197 29.5182V30.4187H56.3018V29.5182H57.197ZM59.8827 27.7171V28.6176H58.9874V27.7171H59.8827ZM59.8827 28.6176V29.5182H58.9874V28.6176H59.8827ZM59.8827 29.5182V30.4187H58.9874V29.5182H59.8827ZM59.8827 30.4187V31.3193H58.9874V30.4187H59.8827ZM59.8827 31.3193V32.2198H58.9874V31.3193H59.8827ZM59.8827 32.2198V33.1205H58.9874V32.2198H59.8827ZM59.8827 33.1205V34.021H58.9874V33.1205H59.8827ZM60.7779 34.021V34.9216H59.8827V34.021H60.7779ZM60.7779 34.9216V35.8221H59.8827V34.9216H60.7779ZM60.7779 35.8221V36.7227H59.8827V35.8221H60.7779ZM60.7779 33.1205V34.021H59.8827V33.1205H60.7779ZM60.7779 32.2198V33.1205H59.8827V32.2198H60.7779ZM60.7779 31.3193V32.2198H59.8827V31.3193H60.7779ZM60.7779 30.4187V31.3193H59.8827V30.4187H60.7779ZM60.7779 29.5182V30.4187H59.8827V29.5182H60.7779ZM60.7779 28.6176V29.5182H59.8827V28.6176H60.7779ZM60.7779 27.7171V28.6176H59.8827V27.7171H60.7779ZM60.7779 26.8165V27.7171H59.8827V26.8165H60.7779ZM59.8827 26.8165V27.7171H58.9874V26.8165H59.8827ZM58.9874 26.8165V27.7171H58.0922V26.8165H58.9874ZM58.9874 27.7171V28.6176H58.0922V27.7171H58.9874ZM58.0922 28.6176V29.5182H57.197V28.6176H58.0922ZM58.0922 29.5182V30.4187H57.197V29.5182H58.0922ZM58.0922 27.7171V28.6176H57.197V27.7171H58.0922ZM58.0922 26.8165V27.7171H57.197V26.8165H58.0922ZM58.9874 28.6176V29.5182H58.0922V28.6176H58.9874ZM58.9874 29.5182V30.4187H58.0922V29.5182H58.9874ZM58.9874 30.4187V31.3193H58.0922V30.4187H58.9874ZM58.9874 31.3193V32.2198H58.0922V31.3193H58.9874ZM58.9874 32.2198V33.1205H58.0922V32.2198H58.9874ZM58.9874 33.1205V34.021H58.0922V33.1205H58.9874ZM58.9874 34.021V34.9216H58.0922V34.021H58.9874ZM58.9874 34.9216V35.8221H58.0922V34.9216H58.9874ZM58.9874 35.8221V36.7227H58.0922V35.8221H58.9874ZM59.8827 34.9216V35.8221H58.9874V34.9216H59.8827ZM59.8827 34.021V34.9216H58.9874V34.021H59.8827ZM67.0442 30.4187V31.3193H66.149V30.4187H67.0442ZM67.0442 26.8165V27.7171H66.149V26.8165H67.0442ZM67.0442 27.7171V28.6176H66.149V27.7171H67.0442ZM67.9394 27.7171V28.6176H67.0442V27.7171H67.9394ZM68.8346 28.6176V29.5182H67.9394V28.6176H68.8346ZM67.9394 29.5182V30.4187H67.0442V29.5182H67.9394ZM67.9394 28.6176V29.5182H67.0442V28.6176H67.9394ZM67.0442 28.6176V29.5182H66.149V28.6176H67.0442ZM66.149 28.6176V29.5182H65.2538V28.6176H66.149ZM66.149 29.5182V30.4187H65.2538V29.5182H66.149ZM67.0442 29.5182V30.4187H66.149V29.5182H67.0442ZM66.149 30.4187V31.3193H65.2538V30.4187H66.149ZM65.2538 29.5182V30.4187H64.3587V29.5182H65.2538ZM65.2538 28.6176V29.5182H64.3587V28.6176H65.2538ZM65.2538 27.7171V28.6176H64.3587V27.7171H65.2538ZM65.2538 26.8165V27.7171H64.3587V26.8165H65.2538ZM66.149 26.8165V27.7171H65.2538V26.8165H66.149ZM66.149 27.7171V28.6176H65.2538V27.7171H66.149ZM64.3587 26.8165V27.7171H63.4635V26.8165H64.3587ZM64.3587 27.7171V28.6176H63.4635V27.7171H64.3587ZM64.3587 28.6176V29.5182H63.4635V28.6176H64.3587ZM64.3587 29.5182V30.4187H63.4635V29.5182H64.3587ZM63.4635 26.8165V27.7171H62.5683V26.8165H63.4635ZM63.4635 27.7171V28.6176H62.5683V27.7171H63.4635ZM62.5683 27.7171V28.6176H61.6731V27.7171H62.5683ZM62.5683 28.6176V29.5182H61.6731V28.6176H62.5683ZM61.6731 28.6176V29.5182H60.7779V28.6176H61.6731ZM61.6731 29.5182V30.4187H60.7779V29.5182H61.6731ZM62.5683 29.5182V30.4187H61.6731V29.5182H62.5683ZM63.4635 29.5182V30.4187H62.5683V29.5182H63.4635ZM63.4635 28.6176V29.5182H62.5683V28.6176H63.4635ZM61.6731 30.4187V31.3193H60.7779V30.4187H61.6731ZM62.5683 26.8165V27.7171H61.6731V26.8165H62.5683ZM61.6731 27.7171V28.6176H60.7779V27.7171H61.6731ZM65.2538 30.4187V31.3193H64.3587V30.4187H65.2538ZM66.149 31.3193V32.2198H65.2538V31.3193H66.149Z" fill="#2F2F2F"/>
<path d="M1.64697 65.7693H160.159C163.58 65.7693 166.353 68.5589 166.353 72.0001V124.615C166.353 128.057 163.58 130.846 160.159 130.846H7.84065C4.41998 130.846 1.64697 128.057 1.64697 124.615V65.7693Z" fill="#31E7C3" stroke="#2F2F2F" stroke-width="2.5"/>
<path d="M82.853 81.2307V64.6154" stroke="#2F2F2F" stroke-width="2.5"/>
<path d="M82.853 132V115.385" stroke="#2F2F2F" stroke-width="2.5"/>
<path d="M16.0317 106.176V107.077H15.1365V106.176H16.0317ZM16.0317 105.276V106.176H15.1365V105.276H16.0317ZM16.0317 104.375V105.276H15.1365V104.375H16.0317ZM16.0317 103.475V104.375H15.1365V103.475H16.0317ZM16.0317 102.574V103.475H15.1365V102.574H16.0317ZM16.0317 101.673V102.574H15.1365V101.673H16.0317ZM16.0317 100.773V101.673H15.1365V100.773H16.0317ZM16.0317 99.8723V100.773H15.1365V99.8723H16.0317ZM16.0317 98.9723V99.8723H15.1365V98.9723H16.0317ZM16.0317 98.0714V98.9723H15.1365V98.0714H16.0317ZM16.0317 97.1704V98.0714H15.1365V97.1704H16.0317ZM16.0317 96.2704V97.1704H15.1365V96.2704H16.0317ZM16.0317 95.3695V96.2704H15.1365V95.3695H16.0317ZM16.0317 94.4686V95.3695H15.1365V94.4686H16.0317ZM16.0317 93.5686V94.4686H15.1365V93.5686H16.0317ZM16.9269 93.5686V94.4686H16.0317V93.5686H16.9269ZM16.9269 94.4686V95.3695H16.0317V94.4686H16.9269ZM16.9269 95.3695V96.2704H16.0317V95.3695H16.9269ZM16.9269 96.2704V97.1704H16.0317V96.2704H16.9269ZM16.9269 97.1704V98.0714H16.0317V97.1704H16.9269ZM16.9269 98.0714V98.9723H16.0317V98.0714H16.9269ZM16.9269 98.9723V99.8723H16.0317V98.9723H16.9269ZM17.8221 99.8723V100.773H16.9269V99.8723H17.8221ZM17.8221 100.773V101.673H16.9269V100.773H17.8221ZM17.8221 101.673V102.574H16.9269V101.673H17.8221ZM17.8221 102.574V103.475H16.9269V102.574H17.8221ZM17.8221 103.475V104.375H16.9269V103.475H17.8221ZM17.8221 104.375V105.276H16.9269V104.375H17.8221ZM17.8221 105.276V106.176H16.9269V105.276H17.8221ZM17.8221 106.176V107.077H16.9269V106.176H17.8221ZM18.7173 106.176V107.077H17.8221V106.176H18.7173ZM19.6125 106.176V107.077H18.7173V106.176H19.6125ZM19.6125 105.276V106.176H18.7173V105.276H19.6125ZM19.6125 104.375V105.276H18.7173V104.375H19.6125ZM19.6125 103.475V104.375H18.7173V103.475H19.6125ZM19.6125 102.574V103.475H18.7173V102.574H19.6125ZM19.6125 101.673V102.574H18.7173V101.673H19.6125ZM19.6125 100.773V101.673H18.7173V100.773H19.6125ZM19.6125 99.8723V100.773H18.7173V99.8723H19.6125ZM18.7173 99.8723V100.773H17.8221V99.8723H18.7173ZM18.7173 98.9723V99.8723H17.8221V98.9723H18.7173ZM18.7173 100.773V101.673H17.8221V100.773H18.7173ZM18.7173 101.673V102.574H17.8221V101.673H18.7173ZM18.7173 102.574V103.475H17.8221V102.574H18.7173ZM18.7173 103.475V104.375H17.8221V103.475H18.7173ZM18.7173 104.375V105.276H17.8221V104.375H18.7173ZM18.7173 105.276V106.176H17.8221V105.276H18.7173ZM16.9269 106.176V107.077H16.0317V106.176H16.9269ZM16.9269 105.276V106.176H16.0317V105.276H16.9269ZM16.9269 104.375V105.276H16.0317V104.375H16.9269ZM16.9269 103.475V104.375H16.0317V103.475H16.9269ZM16.9269 102.574V103.475H16.0317V102.574H16.9269ZM16.9269 101.673V102.574H16.0317V101.673H16.9269ZM16.9269 100.773V101.673H16.0317V100.773H16.9269ZM16.9269 99.8723V100.773H16.0317V99.8723H16.9269ZM16.0317 84.5629V85.4634H15.1365V84.5629H16.0317ZM16.0317 85.4634V86.364H15.1365V85.4634H16.0317ZM16.0317 86.364V87.2645H15.1365V86.364H16.0317ZM16.0317 87.2645V88.1651H15.1365V87.2645H16.0317ZM16.0317 88.1651V89.0656H15.1365V88.1651H16.0317ZM16.0317 89.0656V89.9662H15.1365V89.0656H16.0317ZM16.0317 89.9662V90.8667H15.1365V89.9662H16.0317ZM16.0317 90.8667V91.7673H15.1365V90.8667H16.0317ZM16.0317 91.7673V92.6677H15.1365V91.7673H16.0317ZM16.0317 92.6677V93.5686H15.1365V92.6677H16.0317ZM18.7173 84.5629V85.4634H17.8221V84.5629H18.7173ZM18.7173 85.4634V86.364H17.8221V85.4634H18.7173ZM18.7173 86.364V87.2645H17.8221V86.364H18.7173ZM18.7173 87.2645V88.1651H17.8221V87.2645H18.7173ZM18.7173 88.1651V89.0656H17.8221V88.1651H18.7173ZM18.7173 89.0656V89.9662H17.8221V89.0656H18.7173ZM18.7173 90.8667V91.7673H17.8221V90.8667H18.7173ZM18.7173 91.7673V92.6677H17.8221V91.7673H18.7173ZM18.7173 92.6677V93.5686H17.8221V92.6677H18.7173ZM18.7173 93.5686V94.4686H17.8221V93.5686H18.7173ZM18.7173 94.4686V95.3695H17.8221V94.4686H18.7173ZM18.7173 95.3695V96.2704H17.8221V95.3695H18.7173ZM18.7173 96.2704V97.1704H17.8221V96.2704H18.7173ZM19.6125 97.1704V98.0714H18.7173V97.1704H19.6125ZM19.6125 98.0714V98.9723H18.7173V98.0714H19.6125ZM19.6125 98.9723V99.8723H18.7173V98.9723H19.6125ZM19.6125 96.2704V97.1704H18.7173V96.2704H19.6125ZM19.6125 95.3695V96.2704H18.7173V95.3695H19.6125ZM19.6125 94.4686V95.3695H18.7173V94.4686H19.6125ZM19.6125 93.5686V94.4686H18.7173V93.5686H19.6125ZM19.6125 92.6677V93.5686H18.7173V92.6677H19.6125ZM19.6125 91.7673V92.6677H18.7173V91.7673H19.6125ZM19.6125 90.8667V91.7673H18.7173V90.8667H19.6125ZM19.6125 89.9662V90.8667H18.7173V89.9662H19.6125ZM19.6125 89.0656V89.9662H18.7173V89.0656H19.6125ZM19.6125 88.1651V89.0656H18.7173V88.1651H19.6125ZM18.7173 89.9662V90.8667H17.8221V89.9662H18.7173ZM19.6125 87.2645V88.1651H18.7173V87.2645H19.6125ZM19.6125 86.364V87.2645H18.7173V86.364H19.6125ZM19.6125 85.4634V86.364H18.7173V85.4634H19.6125ZM19.6125 84.5629V85.4634H18.7173V84.5629H19.6125ZM17.8221 84.5629V85.4634H16.9269V84.5629H17.8221ZM16.9269 84.5629V85.4634H16.0317V84.5629H16.9269ZM16.9269 85.4634V86.364H16.0317V85.4634H16.9269ZM17.8221 85.4634V86.364H16.9269V85.4634H17.8221ZM17.8221 86.364V87.2645H16.9269V86.364H17.8221ZM17.8221 87.2645V88.1651H16.9269V87.2645H17.8221ZM17.8221 88.1651V89.0656H16.9269V88.1651H17.8221ZM17.8221 89.0656V89.9662H16.9269V89.0656H17.8221ZM17.8221 89.9662V90.8667H16.9269V89.9662H17.8221ZM17.8221 90.8667V91.7673H16.9269V90.8667H17.8221ZM16.9269 91.7673V92.6677H16.0317V91.7673H16.9269ZM16.9269 92.6677V93.5686H16.0317V92.6677H16.9269ZM16.9269 90.8667V91.7673H16.0317V90.8667H16.9269ZM16.9269 89.9662V90.8667H16.0317V89.9662H16.9269ZM16.9269 89.0656V89.9662H16.0317V89.0656H16.9269ZM16.9269 88.1651V89.0656H16.0317V88.1651H16.9269ZM16.9269 87.2645V88.1651H16.0317V87.2645H16.9269ZM16.9269 86.364V87.2645H16.0317V86.364H16.9269ZM17.8221 91.7673V92.6677H16.9269V91.7673H17.8221ZM17.8221 92.6677V93.5686H16.9269V92.6677H17.8221ZM17.8221 93.5686V94.4686H16.9269V93.5686H17.8221ZM17.8221 94.4686V95.3695H16.9269V94.4686H17.8221ZM17.8221 95.3695V96.2704H16.9269V95.3695H17.8221ZM17.8221 96.2704V97.1704H16.9269V96.2704H17.8221ZM17.8221 97.1704V98.0714H16.9269V97.1704H17.8221ZM17.8221 98.0714V98.9723H16.9269V98.0714H17.8221ZM17.8221 98.9723V99.8723H16.9269V98.9723H17.8221ZM18.7173 98.0714V98.9723H17.8221V98.0714H18.7173ZM18.7173 97.1704V98.0714H17.8221V97.1704H18.7173ZM33.0405 84.5629V85.4634H32.1453V84.5629H33.0405ZM33.0405 85.4634V86.364H32.1453V85.4634H33.0405ZM33.0405 86.364V87.2645H32.1453V86.364H33.0405ZM33.0405 88.1651V89.0656H32.1453V88.1651H33.0405ZM33.0405 89.0656V89.9662H32.1453V89.0656H33.0405ZM33.0405 89.9662V90.8667H32.1453V89.9662H33.0405ZM33.0405 90.8667V91.7673H32.1453V90.8667H33.0405ZM33.0405 91.7673V92.6677H32.1453V91.7673H33.0405ZM33.0405 92.6677V93.5686H32.1453V92.6677H33.0405ZM33.0405 93.5686V94.4686H32.1453V93.5686H33.0405ZM33.9357 94.4686V95.3695H33.0405V94.4686H33.9357ZM33.9357 95.3695V96.2704H33.0405V95.3695H33.9357ZM33.9357 96.2704V97.1704H33.0405V96.2704H33.9357ZM33.9357 97.1704V98.0714H33.0405V97.1704H33.9357ZM33.9357 98.0714V98.9723H33.0405V98.0714H33.9357ZM33.9357 98.9723V99.8723H33.0405V98.9723H33.9357ZM34.8309 98.9723V99.8723H33.9357V98.9723H34.8309ZM34.8309 99.8723V100.773H33.9357V99.8723H34.8309ZM34.8309 100.773V101.673H33.9357V100.773H34.8309ZM34.8309 101.673V102.574H33.9357V101.673H34.8309ZM34.8309 102.574V103.475H33.9357V102.574H34.8309ZM34.8309 103.475V104.375H33.9357V103.475H34.8309ZM34.8309 104.375V105.276H33.9357V104.375H34.8309ZM34.8309 105.276V106.176H33.9357V105.276H34.8309ZM34.8309 106.176V107.077H33.9357V106.176H34.8309ZM33.9357 106.176V107.077H33.0405V106.176H33.9357ZM33.9357 105.276V106.176H33.0405V105.276H33.9357ZM33.9357 104.375V105.276H33.0405V104.375H33.9357ZM33.9357 103.475V104.375H33.0405V103.475H33.9357ZM33.9357 102.574V103.475H33.0405V102.574H33.9357ZM33.9357 101.673V102.574H33.0405V101.673H33.9357ZM33.9357 100.773V101.673H33.0405V100.773H33.9357ZM33.0405 100.773V101.673H32.1453V100.773H33.0405ZM33.0405 99.8723V100.773H32.1453V99.8723H33.0405ZM33.9357 99.8723V100.773H33.0405V99.8723H33.9357ZM33.0405 94.4686V95.3695H32.1453V94.4686H33.0405ZM33.0405 95.3695V96.2704H32.1453V95.3695H33.0405ZM33.0405 96.2704V97.1704H32.1453V96.2704H33.0405ZM33.0405 97.1704V98.0714H32.1453V97.1704H33.0405ZM33.0405 98.0714V98.9723H32.1453V98.0714H33.0405ZM33.0405 98.9723V99.8723H32.1453V98.9723H33.0405ZM33.0405 87.2645V88.1651H32.1453V87.2645H33.0405ZM33.0405 101.673V102.574H32.1453V101.673H33.0405ZM33.0405 102.574V103.475H32.1453V102.574H33.0405ZM33.0405 103.475V104.375H32.1453V103.475H33.0405ZM33.0405 104.375V105.276H32.1453V104.375H33.0405ZM33.0405 105.276V106.176H32.1453V105.276H33.0405ZM33.0405 106.176V107.077H32.1453V106.176H33.0405ZM35.7261 106.176V107.077H34.8309V106.176H35.7261ZM36.6214 106.176V107.077H35.7261V106.176H36.6214ZM36.6214 105.276V106.176H35.7261V105.276H36.6214ZM36.6214 104.375V105.276H35.7261V104.375H36.6214ZM36.6214 103.475V104.375H35.7261V103.475H36.6214ZM36.6214 102.574V103.475H35.7261V102.574H36.6214ZM36.6214 101.673V102.574H35.7261V101.673H36.6214ZM36.6214 100.773V101.673H35.7261V100.773H36.6214ZM36.6214 99.8723V100.773H35.7261V99.8723H36.6214ZM36.6214 98.9723V99.8723H35.7261V98.9723H36.6214ZM36.6214 98.0714V98.9723H35.7261V98.0714H36.6214ZM36.6214 97.1704V98.0714H35.7261V97.1704H36.6214ZM36.6214 96.2704V97.1704H35.7261V96.2704H36.6214ZM36.6214 95.3695V96.2704H35.7261V95.3695H36.6214ZM36.6214 94.4686V95.3695H35.7261V94.4686H36.6214ZM36.6214 93.5686V94.4686H35.7261V93.5686H36.6214ZM36.6214 92.6677V93.5686H35.7261V92.6677H36.6214ZM36.6214 91.7673V92.6677H35.7261V91.7673H36.6214ZM36.6214 90.8667V91.7673H35.7261V90.8667H36.6214ZM36.6214 89.9662V90.8667H35.7261V89.9662H36.6214ZM33.9357 84.5629V85.4634H33.0405V84.5629H33.9357ZM34.8309 84.5629V85.4634H33.9357V84.5629H34.8309ZM35.7261 84.5629V85.4634H34.8309V84.5629H35.7261ZM36.6214 84.5629V85.4634H35.7261V84.5629H36.6214ZM36.6214 85.4634V86.364H35.7261V85.4634H36.6214ZM36.6214 86.364V87.2645H35.7261V86.364H36.6214ZM36.6214 87.2645V88.1651H35.7261V87.2645H36.6214ZM36.6214 88.1651V89.0656H35.7261V88.1651H36.6214ZM36.6214 89.0656V89.9662H35.7261V89.0656H36.6214ZM33.9357 85.4634V86.364H33.0405V85.4634H33.9357ZM34.8309 85.4634V86.364H33.9357V85.4634H34.8309ZM35.7261 85.4634V86.364H34.8309V85.4634H35.7261ZM35.7261 86.364V87.2645H34.8309V86.364H35.7261ZM35.7261 87.2645V88.1651H34.8309V87.2645H35.7261ZM35.7261 88.1651V89.0656H34.8309V88.1651H35.7261ZM35.7261 89.0656V89.9662H34.8309V89.0656H35.7261ZM34.8309 89.0656V89.9662H33.9357V89.0656H34.8309ZM34.8309 88.1651V89.0656H33.9357V88.1651H34.8309ZM34.8309 87.2645V88.1651H33.9357V87.2645H34.8309ZM34.8309 86.364V87.2645H33.9357V86.364H34.8309ZM33.9357 86.364V87.2645H33.0405V86.364H33.9357ZM33.9357 87.2645V88.1651H33.0405V87.2645H33.9357ZM33.9357 88.1651V89.0656H33.0405V88.1651H33.9357ZM33.9357 89.0656V89.9662H33.0405V89.0656H33.9357ZM33.9357 89.9662V90.8667H33.0405V89.9662H33.9357ZM33.9357 90.8667V91.7673H33.0405V90.8667H33.9357ZM33.9357 91.7673V92.6677H33.0405V91.7673H33.9357ZM33.9357 92.6677V93.5686H33.0405V92.6677H33.9357ZM34.8309 92.6677V93.5686H33.9357V92.6677H34.8309ZM34.8309 91.7673V92.6677H33.9357V91.7673H34.8309ZM34.8309 90.8667V91.7673H33.9357V90.8667H34.8309ZM34.8309 89.9662V90.8667H33.9357V89.9662H34.8309ZM35.7261 89.9662V90.8667H34.8309V89.9662H35.7261ZM35.7261 90.8667V91.7673H34.8309V90.8667H35.7261ZM35.7261 91.7673V92.6677H34.8309V91.7673H35.7261ZM35.7261 92.6677V93.5686H34.8309V92.6677H35.7261ZM35.7261 93.5686V94.4686H34.8309V93.5686H35.7261ZM35.7261 94.4686V95.3695H34.8309V94.4686H35.7261ZM35.7261 95.3695V96.2704H34.8309V95.3695H35.7261ZM35.7261 96.2704V97.1704H34.8309V96.2704H35.7261ZM35.7261 97.1704V98.0714H34.8309V97.1704H35.7261ZM35.7261 98.0714V98.9723H34.8309V98.0714H35.7261ZM34.8309 98.0714V98.9723H33.9357V98.0714H34.8309ZM34.8309 97.1704V98.0714H33.9357V97.1704H34.8309ZM34.8309 96.2704V97.1704H33.9357V96.2704H34.8309ZM34.8309 95.3695V96.2704H33.9357V95.3695H34.8309ZM34.8309 94.4686V95.3695H33.9357V94.4686H34.8309ZM33.9357 93.5686V94.4686H33.0405V93.5686H33.9357ZM34.8309 93.5686V94.4686H33.9357V93.5686H34.8309ZM35.7261 98.9723V99.8723H34.8309V98.9723H35.7261ZM35.7261 99.8723V100.773H34.8309V99.8723H35.7261ZM35.7261 100.773V101.673H34.8309V100.773H35.7261ZM35.7261 101.673V102.574H34.8309V101.673H35.7261ZM35.7261 102.574V103.475H34.8309V102.574H35.7261ZM35.7261 103.475V104.375H34.8309V103.475H35.7261ZM35.7261 104.375V105.276H34.8309V104.375H35.7261ZM35.7261 105.276V106.176H34.8309V105.276H35.7261ZM25.8789 95.3695V96.2704H24.9837V95.3695H25.8789ZM25.8789 94.4686V95.3695H24.9837V94.4686H25.8789ZM25.8789 93.5686V94.4686H24.9837V93.5686H25.8789ZM25.8789 92.6677V93.5686H24.9837V92.6677H25.8789ZM25.8789 91.7673V92.6677H24.9837V91.7673H25.8789ZM25.8789 90.8667V91.7673H24.9837V90.8667H25.8789ZM25.8789 96.2704V97.1704H24.9837V96.2704H25.8789ZM27.6694 89.9662V90.8667H26.7741V89.9662H27.6694ZM28.5646 89.0656V89.9662H27.6694V89.0656H28.5646ZM29.4598 88.1651V89.0656H28.5646V88.1651H29.4598ZM30.3549 87.2645V88.1651H29.4598V87.2645H30.3549ZM24.9837 89.9662V90.8667H24.0885V89.9662H24.9837ZM24.0885 89.0656V89.9662H23.1933V89.0656H24.0885ZM23.1933 88.1651V89.0656H22.2981V88.1651H23.1933ZM22.2981 87.2645V88.1651H21.4029V87.2645H22.2981ZM27.6694 95.3695V96.2704H26.7741V95.3695H27.6694ZM28.5646 94.4686V95.3695H27.6694V94.4686H28.5646ZM29.4598 93.5686V94.4686H28.5646V93.5686H29.4598ZM30.3549 92.6677V93.5686H29.4598V92.6677H30.3549ZM24.9837 95.3695V96.2704H24.0885V95.3695H24.9837ZM24.0885 94.4686V95.3695H23.1933V94.4686H24.0885ZM23.1933 93.5686V94.4686H22.2981V93.5686H23.1933ZM22.2981 92.6677V93.5686H21.4029V92.6677H22.2981ZM20.5077 85.4634V86.364H19.6125V85.4634H20.5077ZM21.4029 86.364V87.2645H20.5077V86.364H21.4029ZM31.2501 86.364V87.2645H30.3549V86.364H31.2501ZM32.1453 85.4634V86.364H31.2501V85.4634H32.1453ZM21.4029 89.0656V89.9662H20.5077V89.0656H21.4029ZM21.4029 91.7673V92.6677H20.5077V91.7673H21.4029ZM21.4029 90.8667V91.7673H20.5077V90.8667H21.4029ZM20.5077 90.8667V91.7673H19.6125V90.8667H20.5077ZM31.2501 91.7673V92.6677H30.3549V91.7673H31.2501ZM32.1453 90.8667V91.7673H31.2501V90.8667H32.1453ZM32.1453 89.9662V90.8667H31.2501V89.9662H32.1453ZM32.1453 89.0656V89.9662H31.2501V89.0656H32.1453ZM32.1453 88.1651V89.0656H31.2501V88.1651H32.1453ZM32.1453 87.2645V88.1651H31.2501V87.2645H32.1453ZM32.1453 86.364V87.2645H31.2501V86.364H32.1453ZM31.2501 87.2645V88.1651H30.3549V87.2645H31.2501ZM31.2501 88.1651V89.0656H30.3549V88.1651H31.2501ZM31.2501 89.0656V89.9662H30.3549V89.0656H31.2501ZM31.2501 89.9662V90.8667H30.3549V89.9662H31.2501ZM31.2501 90.8667V91.7673H30.3549V90.8667H31.2501ZM30.3549 88.1651V89.0656H29.4598V88.1651H30.3549ZM30.3549 89.0656V89.9662H29.4598V89.0656H30.3549ZM30.3549 89.9662V90.8667H29.4598V89.9662H30.3549ZM30.3549 90.8667V91.7673H29.4598V90.8667H30.3549ZM30.3549 91.7673V92.6677H29.4598V91.7673H30.3549ZM29.4598 89.0656V89.9662H28.5646V89.0656H29.4598ZM29.4598 89.9662V90.8667H28.5646V89.9662H29.4598ZM29.4598 90.8667V91.7673H28.5646V90.8667H29.4598ZM29.4598 91.7673V92.6677H28.5646V91.7673H29.4598ZM29.4598 92.6677V93.5686H28.5646V92.6677H29.4598ZM28.5646 89.9662V90.8667H27.6694V89.9662H28.5646ZM28.5646 90.8667V91.7673H27.6694V90.8667H28.5646ZM28.5646 91.7673V92.6677H27.6694V91.7673H28.5646ZM28.5646 92.6677V93.5686H27.6694V92.6677H28.5646ZM28.5646 93.5686V94.4686H27.6694V93.5686H28.5646ZM27.6694 90.8667V91.7673H26.7741V90.8667H27.6694ZM27.6694 91.7673V92.6677H26.7741V91.7673H27.6694ZM27.6694 92.6677V93.5686H26.7741V92.6677H27.6694ZM27.6694 93.5686V94.4686H26.7741V93.5686H27.6694ZM27.6694 94.4686V95.3695H26.7741V94.4686H27.6694ZM24.9837 94.4686V95.3695H24.0885V94.4686H24.9837ZM24.9837 93.5686V94.4686H24.0885V93.5686H24.9837ZM24.0885 93.5686V94.4686H23.1933V93.5686H24.0885ZM24.0885 92.6677V93.5686H23.1933V92.6677H24.0885ZM23.1933 92.6677V93.5686H22.2981V92.6677H23.1933ZM23.1933 91.7673V92.6677H22.2981V91.7673H23.1933ZM22.2981 91.7673V92.6677H21.4029V91.7673H22.2981ZM22.2981 90.8667V91.7673H21.4029V90.8667H22.2981ZM21.4029 89.9662V90.8667H20.5077V89.9662H21.4029ZM20.5077 89.9662V90.8667H19.6125V89.9662H20.5077ZM20.5077 89.0656V89.9662H19.6125V89.0656H20.5077ZM20.5077 88.1651V89.0656H19.6125V88.1651H20.5077ZM20.5077 87.2645V88.1651H19.6125V87.2645H20.5077ZM20.5077 86.364V87.2645H19.6125V86.364H20.5077ZM21.4029 87.2645V88.1651H20.5077V87.2645H21.4029ZM21.4029 88.1651V89.0656H20.5077V88.1651H21.4029ZM22.2981 88.1651V89.0656H21.4029V88.1651H22.2981ZM22.2981 89.0656V89.9662H21.4029V89.0656H22.2981ZM23.1933 89.0656V89.9662H22.2981V89.0656H23.1933ZM23.1933 89.9662V90.8667H22.2981V89.9662H23.1933ZM24.0885 89.9662V90.8667H23.1933V89.9662H24.0885ZM24.0885 90.8667V91.7673H23.1933V90.8667H24.0885ZM24.9837 90.8667V91.7673H24.0885V90.8667H24.9837ZM24.9837 91.7673V92.6677H24.0885V91.7673H24.9837ZM24.9837 92.6677V93.5686H24.0885V92.6677H24.9837ZM24.0885 91.7673V92.6677H23.1933V91.7673H24.0885ZM23.1933 90.8667V91.7673H22.2981V90.8667H23.1933ZM22.2981 89.9662V90.8667H21.4029V89.9662H22.2981ZM26.7741 90.8667V91.7673H25.8789V90.8667H26.7741ZM26.7741 91.7673V92.6677H25.8789V91.7673H26.7741ZM26.7741 92.6677V93.5686H25.8789V92.6677H26.7741ZM26.7741 93.5686V94.4686H25.8789V93.5686H26.7741ZM26.7741 94.4686V95.3695H25.8789V94.4686H26.7741ZM26.7741 95.3695V96.2704H25.8789V95.3695H26.7741ZM26.7741 96.2704V97.1704H25.8789V96.2704H26.7741ZM50.217 101.673V100.773H51.1122V101.673H50.217ZM49.3218 101.673V100.773H50.217V101.673H49.3218ZM48.4266 101.673V100.773H49.3218V101.673H48.4266ZM47.5315 101.673V100.773H48.4266V101.673H47.5315ZM46.6363 101.673V100.773H47.5315V101.673H46.6363ZM46.6363 102.574V101.673H47.5315V102.574H46.6363ZM46.6363 103.475V102.574H47.5315V103.475H46.6363ZM47.5315 103.475V102.574H48.4266V103.475H47.5315ZM48.4266 103.475V102.574H49.3218V103.475H48.4266ZM49.3218 103.475V102.574H50.217V103.475H49.3218ZM49.3218 102.574V101.673H50.217V102.574H49.3218ZM50.217 102.574V101.673H51.1122V102.574H50.217ZM48.4266 102.574V101.673H49.3218V102.574H48.4266ZM47.5315 102.574V101.673H48.4266V102.574H47.5315ZM50.217 103.475V102.574H51.1122V103.475H50.217ZM51.1122 103.475V102.574H52.0075V103.475H51.1122ZM51.1122 104.375V103.475H52.0075V104.375H51.1122ZM50.217 104.375V103.475H51.1122V104.375H50.217ZM49.3218 104.375V103.475H50.217V104.375H49.3218ZM48.4266 104.375V103.475H49.3218V104.375H48.4266ZM47.5315 104.375V103.475H48.4266V104.375H47.5315ZM47.5315 105.276V104.375H48.4266V105.276H47.5315ZM48.4266 105.276V104.375H49.3218V105.276H48.4266ZM49.3218 105.276V104.375H50.217V105.276H49.3218ZM50.217 105.276V104.375H51.1122V105.276H50.217ZM51.1122 105.276V104.375H52.0075V105.276H51.1122ZM49.3218 106.176V105.276H50.217V106.176H49.3218ZM48.4266 106.176V105.276H49.3218V106.176H48.4266ZM50.217 106.176V105.276H51.1122V106.176H50.217ZM50.217 107.077V106.176H51.1122V107.077H50.217ZM51.1122 107.077V106.176H52.0075V107.077H51.1122ZM51.1122 106.176V105.276H52.0075V106.176H51.1122ZM52.0075 106.176V105.276H52.9027V106.176H52.0075ZM52.0075 107.077V106.176H52.9027V107.077H52.0075ZM52.0075 105.276V104.375H52.9027V105.276H52.0075ZM52.9027 105.276V104.375H53.7979V105.276H52.9027ZM52.9027 104.375V103.475H53.7979V104.375H52.9027ZM52.0075 104.375V103.475H52.9027V104.375H52.0075ZM53.7979 104.375V103.475H54.6931V104.375H53.7979ZM53.7979 105.276V104.375H54.6931V105.276H53.7979ZM53.7979 106.176V105.276H54.6931V106.176H53.7979ZM53.7979 107.077V106.176H54.6931V107.077H53.7979ZM52.9027 107.077V106.176H53.7979V107.077H52.9027ZM52.9027 106.176V105.276H53.7979V106.176H52.9027ZM54.6931 107.077V106.176H55.5883V107.077H54.6931ZM56.4835 106.176V105.276H57.3787V106.176H56.4835ZM56.4835 105.276V104.375H57.3787V105.276H56.4835ZM56.4835 104.375V103.475H57.3787V104.375H56.4835ZM55.5883 104.375V103.475H56.4835V104.375H55.5883ZM54.6931 104.375V103.475H55.5883V104.375H54.6931ZM54.6931 105.276V104.375H55.5883V105.276H54.6931ZM54.6931 106.176V105.276H55.5883V106.176H54.6931ZM55.5883 106.176V105.276H56.4835V106.176H55.5883ZM55.5883 105.276V104.375H56.4835V105.276H55.5883ZM57.3787 105.276V104.375H58.2739V105.276H57.3787ZM57.3787 106.176V105.276H58.2739V106.176H57.3787ZM58.2739 106.176V105.276H59.1691V106.176H58.2739ZM58.2739 105.276V104.375H59.1691V105.276H58.2739ZM59.1691 105.276V104.375H60.0642V105.276H59.1691ZM59.1691 104.375V103.475H60.0642V104.375H59.1691ZM59.1691 103.475V102.574H60.0642V103.475H59.1691ZM58.2739 103.475V102.574H59.1691V103.475H58.2739ZM58.2739 104.375V103.475H59.1691V104.375H58.2739ZM57.3787 104.375V103.475H58.2739V104.375H57.3787ZM57.3787 103.475V102.574H58.2739V103.475H57.3787ZM56.4835 103.475V102.574H57.3787V103.475H56.4835ZM60.0642 103.475V102.574H60.9595V103.475H60.0642ZM60.0642 102.574V101.673H60.9595V102.574H60.0642ZM60.0642 101.673V100.773H60.9595V101.673H60.0642ZM60.0642 100.773V99.8723H60.9595V100.773H60.0642ZM60.0642 99.8723V98.9723H60.9595V99.8723H60.0642ZM60.0642 98.9723V98.0714H60.9595V98.9723H60.0642ZM60.0642 98.0714V97.1704H60.9595V98.0714H60.0642ZM60.0642 97.1704V96.2704H60.9595V97.1704H60.0642ZM60.0642 96.2704V95.3695H60.9595V96.2704H60.0642ZM60.0642 95.3695V94.4686H60.9595V95.3695H60.0642ZM59.1691 95.3695V94.4686H60.0642V95.3695H59.1691ZM59.1691 94.4686V93.5686H60.0642V94.4686H59.1691ZM60.0642 94.4686V93.5686H60.9595V94.4686H60.0642ZM58.2739 94.4686V93.5686H59.1691V94.4686H58.2739ZM57.3787 94.4686V93.5686H58.2739V94.4686H57.3787ZM56.4835 94.4686V93.5686H57.3787V94.4686H56.4835ZM55.5883 94.4686V93.5686H56.4835V94.4686H55.5883ZM56.4835 95.3695V94.4686H57.3787V95.3695H56.4835ZM56.4835 96.2704V95.3695H57.3787V96.2704H56.4835ZM56.4835 97.1704V96.2704H57.3787V97.1704H56.4835ZM56.4835 98.0714V97.1704H57.3787V98.0714H56.4835ZM56.4835 98.9723V98.0714H57.3787V98.9723H56.4835ZM56.4835 99.8723V98.9723H57.3787V99.8723H56.4835ZM56.4835 100.773V99.8723H57.3787V100.773H56.4835ZM56.4835 101.673V100.773H57.3787V101.673H56.4835ZM56.4835 102.574V101.673H57.3787V102.574H56.4835ZM57.3787 102.574V101.673H58.2739V102.574H57.3787ZM58.2739 102.574V101.673H59.1691V102.574H58.2739ZM59.1691 102.574V101.673H60.0642V102.574H59.1691ZM59.1691 101.673V100.773H60.0642V101.673H59.1691ZM59.1691 100.773V99.8723H60.0642V100.773H59.1691ZM59.1691 99.8723V98.9723H60.0642V99.8723H59.1691ZM59.1691 98.9723V98.0714H60.0642V98.9723H59.1691ZM59.1691 98.0714V97.1704H60.0642V98.0714H59.1691ZM59.1691 97.1704V96.2704H60.0642V97.1704H59.1691ZM59.1691 96.2704V95.3695H60.0642V96.2704H59.1691ZM58.2739 95.3695V94.4686H59.1691V95.3695H58.2739ZM57.3787 95.3695V94.4686H58.2739V95.3695H57.3787ZM57.3787 96.2704V95.3695H58.2739V96.2704H57.3787ZM57.3787 97.1704V96.2704H58.2739V97.1704H57.3787ZM57.3787 98.0714V97.1704H58.2739V98.0714H57.3787ZM57.3787 98.9723V98.0714H58.2739V98.9723H57.3787ZM58.2739 98.9723V98.0714H59.1691V98.9723H58.2739ZM58.2739 99.8723V98.9723H59.1691V99.8723H58.2739ZM58.2739 100.773V99.8723H59.1691V100.773H58.2739ZM58.2739 101.673V100.773H59.1691V101.673H58.2739ZM57.3787 101.673V100.773H58.2739V101.673H57.3787ZM57.3787 100.773V99.8723H58.2739V100.773H57.3787ZM57.3787 99.8723V98.9723H58.2739V99.8723H57.3787ZM58.2739 97.1704V96.2704H59.1691V97.1704H58.2739ZM58.2739 96.2704V95.3695H59.1691V96.2704H58.2739ZM58.2739 98.0714V97.1704H59.1691V98.0714H58.2739ZM50.217 95.3695V94.4686H51.1122V95.3695H50.217ZM49.3218 95.3695V94.4686H50.217V95.3695H49.3218ZM48.4266 95.3695V94.4686H49.3218V95.3695H48.4266ZM47.5315 95.3695V94.4686H48.4266V95.3695H47.5315ZM46.6363 95.3695V94.4686H47.5315V95.3695H46.6363ZM46.6363 94.4686V93.5686H47.5315V94.4686H46.6363ZM47.5315 94.4686V93.5686H48.4266V94.4686H47.5315ZM48.4266 94.4686V93.5686H49.3218V94.4686H48.4266ZM49.3218 94.4686V93.5686H50.217V94.4686H49.3218ZM50.217 94.4686V93.5686H51.1122V94.4686H50.217ZM51.1122 94.4686V93.5686H52.0075V94.4686H51.1122ZM51.1122 93.5686V92.6677H52.0075V93.5686H51.1122ZM50.217 93.5686V92.6677H51.1122V93.5686H50.217ZM49.3218 93.5686V92.6677H50.217V93.5686H49.3218ZM48.4266 93.5686V92.6677H49.3218V93.5686H48.4266ZM48.4266 92.6677V91.7673H49.3218V92.6677H48.4266ZM47.5315 92.6677V91.7673H48.4266V92.6677H47.5315ZM47.5315 93.5686V92.6677H48.4266V93.5686H47.5315ZM48.4266 91.7673V90.8667H49.3218V91.7673H48.4266ZM49.3218 91.7673V90.8667H50.217V91.7673H49.3218ZM49.3218 92.6677V91.7673H50.217V92.6677H49.3218ZM50.217 92.6677V91.7673H51.1122V92.6677H50.217ZM50.217 91.7673V90.8667H51.1122V91.7673H50.217ZM50.217 90.8667V89.9662H51.1122V90.8667H50.217ZM51.1122 90.8667V89.9662H52.0075V90.8667H51.1122ZM52.0075 90.8667V89.9662H52.9027V90.8667H52.0075ZM52.9027 90.8667V89.9662H53.7979V90.8667H52.9027ZM53.7979 90.8667V89.9662H54.6931V90.8667H53.7979ZM54.6931 90.8667V89.9662H55.5883V90.8667H54.6931ZM55.5883 90.8667V89.9662H56.4835V90.8667H55.5883ZM56.4835 90.8667V89.9662H57.3787V90.8667H56.4835ZM55.5883 91.7673V90.8667H56.4835V91.7673H55.5883ZM54.6931 91.7673V90.8667H55.5883V91.7673H54.6931ZM53.7979 91.7673V90.8667H54.6931V91.7673H53.7979ZM52.9027 91.7673V90.8667H53.7979V91.7673H52.9027ZM52.0075 91.7673V90.8667H52.9027V91.7673H52.0075ZM51.1122 91.7673V90.8667H52.0075V91.7673H51.1122ZM51.1122 92.6677V91.7673H52.0075V92.6677H51.1122ZM52.0075 92.6677V91.7673H52.9027V92.6677H52.0075ZM52.9027 92.6677V91.7673H53.7979V92.6677H52.9027ZM53.7979 92.6677V91.7673H54.6931V92.6677H53.7979ZM54.6931 92.6677V91.7673H55.5883V92.6677H54.6931ZM55.5883 92.6677V91.7673H56.4835V92.6677H55.5883ZM56.4835 91.7673V90.8667H57.3787V91.7673H56.4835ZM57.3787 91.7673V90.8667H58.2739V91.7673H57.3787ZM58.2739 91.7673V90.8667H59.1691V91.7673H58.2739ZM58.2739 92.6677V91.7673H59.1691V92.6677H58.2739ZM59.1691 92.6677V91.7673H60.0642V92.6677H59.1691ZM59.1691 93.5686V92.6677H60.0642V93.5686H59.1691ZM58.2739 93.5686V92.6677H59.1691V93.5686H58.2739ZM57.3787 93.5686V92.6677H58.2739V93.5686H57.3787ZM56.4835 93.5686V92.6677H57.3787V93.5686H56.4835ZM55.5883 93.5686V92.6677H56.4835V93.5686H55.5883ZM54.6931 93.5686V92.6677H55.5883V93.5686H54.6931ZM53.7979 93.5686V92.6677H54.6931V93.5686H53.7979ZM52.9027 93.5686V92.6677H53.7979V93.5686H52.9027ZM52.0075 93.5686V92.6677H52.9027V93.5686H52.0075ZM56.4835 92.6677V91.7673H57.3787V92.6677H56.4835ZM57.3787 92.6677V91.7673H58.2739V92.6677H57.3787ZM47.5315 100.773V99.8723H48.4266V100.773H47.5315ZM48.4266 100.773V99.8723H49.3218V100.773H48.4266ZM49.3218 100.773V99.8723H50.217V100.773H49.3218ZM50.217 100.773V99.8723H51.1122V100.773H50.217ZM48.4266 99.8723V98.9723H49.3218V99.8723H48.4266ZM49.3218 99.8723V98.9723H50.217V99.8723H49.3218ZM51.1122 99.8723V98.9723H52.0075V99.8723H51.1122ZM52.0075 99.8723V98.9723H52.9027V99.8723H52.0075ZM52.9027 99.8723V98.9723H53.7979V99.8723H52.9027ZM53.7979 99.8723V98.9723H54.6931V99.8723H53.7979ZM54.6931 99.8723V98.9723H55.5883V99.8723H54.6931ZM55.5883 99.8723V98.9723H56.4835V99.8723H55.5883ZM50.217 99.8723V98.9723H51.1122V99.8723H50.217ZM47.5315 99.8723V98.9723H48.4266V99.8723H47.5315ZM48.4266 98.9723V98.0714H49.3218V98.9723H48.4266ZM49.3218 98.9723V98.0714H50.217V98.9723H49.3218ZM50.217 98.9723V98.0714H51.1122V98.9723H50.217ZM51.1122 98.9723V98.0714H52.0075V98.9723H51.1122ZM52.0075 98.9723V98.0714H52.9027V98.9723H52.0075ZM52.9027 98.9723V98.0714H53.7979V98.9723H52.9027ZM53.7979 98.9723V98.0714H54.6931V98.9723H53.7979ZM54.6931 98.9723V98.0714H55.5883V98.9723H54.6931ZM55.5883 98.9723V98.0714H56.4835V98.9723H55.5883ZM55.5883 98.0714V97.1704H56.4835V98.0714H55.5883ZM54.6931 98.0714V97.1704H55.5883V98.0714H54.6931ZM53.7979 98.0714V97.1704H54.6931V98.0714H53.7979ZM52.0075 98.0714V97.1704H52.9027V98.0714H52.0075ZM51.1122 98.0714V97.1704H52.0075V98.0714H51.1122ZM50.217 98.0714V97.1704H51.1122V98.0714H50.217ZM52.9027 98.0714V97.1704H53.7979V98.0714H52.9027ZM60.9595 103.475V104.375H60.0642V103.475H60.9595ZM60.9595 104.375V105.276H60.0642V104.375H60.9595ZM60.9595 105.276V106.176H60.0642V105.276H60.9595ZM60.9595 106.176V107.077H60.0642V106.176H60.9595ZM60.0642 106.176V107.077H59.1691V106.176H60.0642ZM60.0642 105.276V106.176H59.1691V105.276H60.0642ZM59.1691 106.176V107.077H58.2739V106.176H59.1691ZM58.2739 106.176V107.077H57.3787V106.176H58.2739ZM57.3787 106.176V107.077H56.4835V106.176H57.3787ZM56.4835 102.574V103.475H55.5883V102.574H56.4835ZM50.217 106.176V107.077H49.3218V106.176H50.217ZM52.0075 99.8723V100.773H51.1122V99.8723H52.0075ZM84.4304 93.5686V94.4686H83.5352V93.5686H84.4304ZM83.5352 93.5686V94.4686H82.64V93.5686H83.5352ZM82.64 93.5686V94.4686H81.7448V93.5686H82.64ZM81.7448 93.5686V94.4686H80.8496V93.5686H81.7448ZM80.8496 92.6677V93.5686H79.9544V92.6677H80.8496ZM81.7448 92.6677V93.5686H80.8496V92.6677H81.7448ZM82.64 92.6677V93.5686H81.7448V92.6677H82.64ZM83.5352 92.6677V93.5686H82.64V92.6677H83.5352ZM84.4304 92.6677V93.5686H83.5352V92.6677H84.4304ZM84.4304 91.7673V92.6677H83.5352V91.7673H84.4304ZM83.5352 91.7673V92.6677H82.64V91.7673H83.5352ZM82.64 91.7673V92.6677H81.7448V91.7673H82.64ZM81.7448 91.7673V92.6677H80.8496V91.7673H81.7448ZM80.8496 91.7673V92.6677H79.9544V91.7673H80.8496ZM82.64 90.8667V91.7673H81.7448V90.8667H82.64ZM83.5352 90.8667V91.7673H82.64V90.8667H83.5352ZM81.7448 90.8667V91.7673H80.8496V90.8667H81.7448ZM81.7448 89.9662V90.8667H80.8496V89.9662H81.7448ZM80.8496 89.9662V90.8667H79.9544V89.9662H80.8496ZM80.8496 90.8667V91.7673H79.9544V90.8667H80.8496ZM79.9544 90.8667V91.7673H79.0592V90.8667H79.9544ZM79.9544 89.9662V90.8667H79.0592V89.9662H79.9544ZM79.9544 91.7673V92.6677H79.0592V91.7673H79.9544ZM79.0592 91.7673V92.6677H78.164V91.7673H79.0592ZM79.0592 92.6677V93.5686H78.164V92.6677H79.0592ZM79.9544 92.6677V93.5686H79.0592V92.6677H79.9544ZM78.164 92.6677V93.5686H77.2688V92.6677H78.164ZM78.164 91.7673V92.6677H77.2688V91.7673H78.164ZM78.164 90.8667V91.7673H77.2688V90.8667H78.164ZM78.164 89.9662V90.8667H77.2688V89.9662H78.164ZM79.0592 89.9662V90.8667H78.164V89.9662H79.0592ZM79.0592 90.8667V91.7673H78.164V90.8667H79.0592ZM77.2688 89.9662V90.8667H76.3735V89.9662H77.2688ZM76.3735 89.9662V90.8667H75.4783V89.9662H76.3735ZM75.4783 89.9662V90.8667H74.5831V89.9662H75.4783ZM75.4783 90.8667V91.7673H74.5831V90.8667H75.4783ZM75.4783 91.7673V92.6677H74.5831V91.7673H75.4783ZM75.4783 92.6677V93.5686H74.5831V92.6677H75.4783ZM76.3735 92.6677V93.5686H75.4783V92.6677H76.3735ZM77.2688 92.6677V93.5686H76.3735V92.6677H77.2688ZM77.2688 91.7673V92.6677H76.3735V91.7673H77.2688ZM77.2688 90.8667V91.7673H76.3735V90.8667H77.2688ZM76.3735 90.8667V91.7673H75.4783V90.8667H76.3735ZM76.3735 91.7673V92.6677H75.4783V91.7673H76.3735ZM74.5831 91.7673V92.6677H73.688V91.7673H74.5831ZM74.5831 90.8667V91.7673H73.688V90.8667H74.5831ZM73.688 90.8667V91.7673H72.7928V90.8667H73.688ZM73.688 91.7673V92.6677H72.7928V91.7673H73.688ZM72.7928 91.7673V92.6677H71.8976V91.7673H72.7928ZM72.7928 92.6677V93.5686H71.8976V92.6677H72.7928ZM72.7928 93.5686V94.4686H71.8976V93.5686H72.7928ZM73.688 93.5686V94.4686H72.7928V93.5686H73.688ZM73.688 92.6677V93.5686H72.7928V92.6677H73.688ZM74.5831 92.6677V93.5686H73.688V92.6677H74.5831ZM74.5831 93.5686V94.4686H73.688V93.5686H74.5831ZM75.4783 93.5686V94.4686H74.5831V93.5686H75.4783ZM76.3735 93.5686V94.4686H75.4783V93.5686H76.3735ZM71.8976 93.5686V94.4686H71.0024V93.5686H71.8976ZM71.8976 94.4686V95.3695H71.0024V94.4686H71.8976ZM71.8976 95.3695V96.2704H71.0024V95.3695H71.8976ZM71.8976 101.673V102.574H71.0024V101.673H71.8976ZM72.7928 101.673V102.574H71.8976V101.673H72.7928ZM72.7928 102.574V103.475H71.8976V102.574H72.7928ZM71.8976 102.574V103.475H71.0024V102.574H71.8976ZM73.688 102.574V103.475H72.7928V102.574H73.688ZM74.5831 102.574V103.475H73.688V102.574H74.5831ZM75.4783 102.574V103.475H74.5831V102.574H75.4783ZM76.3735 102.574V103.475H75.4783V102.574H76.3735ZM75.4783 101.673V102.574H74.5831V101.673H75.4783ZM75.4783 95.3695V96.2704H74.5831V95.3695H75.4783ZM75.4783 94.4686V95.3695H74.5831V94.4686H75.4783ZM74.5831 94.4686V95.3695H73.688V94.4686H74.5831ZM73.688 94.4686V95.3695H72.7928V94.4686H73.688ZM72.7928 94.4686V95.3695H71.8976V94.4686H72.7928ZM72.7928 95.3695V96.2704H71.8976V95.3695H72.7928ZM73.688 101.673V102.574H72.7928V101.673H73.688ZM74.5831 101.673V102.574H73.688V101.673H74.5831ZM73.688 95.3695V96.2704H72.7928V95.3695H73.688ZM74.5831 95.3695V96.2704H73.688V95.3695H74.5831ZM81.7448 100.773V101.673H80.8496V100.773H81.7448ZM81.7448 101.673V102.574H80.8496V101.673H81.7448ZM82.64 101.673V102.574H81.7448V101.673H82.64ZM83.5352 101.673V102.574H82.64V101.673H83.5352ZM84.4304 101.673V102.574H83.5352V101.673H84.4304ZM85.3256 101.673V102.574H84.4304V101.673H85.3256ZM85.3256 100.773V101.673H84.4304V100.773H85.3256ZM84.4304 100.773V101.673H83.5352V100.773H84.4304ZM83.5352 100.773V101.673H82.64V100.773H83.5352ZM82.64 100.773V101.673H81.7448V100.773H82.64ZM85.3256 102.574V103.475H84.4304V102.574H85.3256ZM84.4304 102.574V103.475H83.5352V102.574H84.4304ZM83.5352 102.574V103.475H82.64V102.574H83.5352ZM82.64 102.574V103.475H81.7448V102.574H82.64ZM81.7448 102.574V103.475H80.8496V102.574H81.7448ZM80.8496 102.574V103.475H79.9544V102.574H80.8496ZM80.8496 103.475V104.375H79.9544V103.475H80.8496ZM81.7448 103.475V104.375H80.8496V103.475H81.7448ZM82.64 103.475V104.375H81.7448V103.475H82.64ZM83.5352 103.475V104.375H82.64V103.475H83.5352ZM83.5352 104.375V105.276H82.64V104.375H83.5352ZM84.4304 104.375V105.276H83.5352V104.375H84.4304ZM84.4304 103.475V104.375H83.5352V103.475H84.4304ZM83.5352 105.276V106.176H82.64V105.276H83.5352ZM82.64 105.276V106.176H81.7448V105.276H82.64ZM82.64 104.375V105.276H81.7448V104.375H82.64ZM81.7448 104.375V105.276H80.8496V104.375H81.7448ZM81.7448 105.276V106.176H80.8496V105.276H81.7448ZM81.7448 106.176V107.077H80.8496V106.176H81.7448ZM80.8496 106.176V107.077H79.9544V106.176H80.8496ZM79.9544 106.176V107.077H79.0592V106.176H79.9544ZM79.0592 106.176V107.077H78.164V106.176H79.0592ZM78.164 106.176V107.077H77.2688V106.176H78.164ZM77.2688 106.176V107.077H76.3735V106.176H77.2688ZM76.3735 106.176V107.077H75.4783V106.176H76.3735ZM75.4783 106.176V107.077H74.5831V106.176H75.4783ZM76.3735 105.276V106.176H75.4783V105.276H76.3735ZM77.2688 105.276V106.176H76.3735V105.276H77.2688ZM78.164 105.276V106.176H77.2688V105.276H78.164ZM79.0592 105.276V106.176H78.164V105.276H79.0592ZM79.9544 105.276V106.176H79.0592V105.276H79.9544ZM80.8496 105.276V106.176H79.9544V105.276H80.8496ZM80.8496 104.375V105.276H79.9544V104.375H80.8496ZM79.9544 104.375V105.276H79.0592V104.375H79.9544ZM79.0592 104.375V105.276H78.164V104.375H79.0592ZM78.164 104.375V105.276H77.2688V104.375H78.164ZM77.2688 104.375V105.276H76.3735V104.375H77.2688ZM76.3735 104.375V105.276H75.4783V104.375H76.3735ZM75.4783 105.276V106.176H74.5831V105.276H75.4783ZM74.5831 105.276V106.176H73.688V105.276H74.5831ZM73.688 105.276V106.176H72.7928V105.276H73.688ZM73.688 104.375V105.276H72.7928V104.375H73.688ZM72.7928 104.375V105.276H71.8976V104.375H72.7928ZM72.7928 103.475V104.375H71.8976V103.475H72.7928ZM73.688 103.475V104.375H72.7928V103.475H73.688ZM74.5831 103.475V104.375H73.688V103.475H74.5831ZM75.4783 103.475V104.375H74.5831V103.475H75.4783ZM76.3735 103.475V104.375H75.4783V103.475H76.3735ZM77.2688 103.475V104.375H76.3735V103.475H77.2688ZM78.164 103.475V104.375H77.2688V103.475H78.164ZM79.0592 103.475V104.375H78.164V103.475H79.0592ZM79.9544 103.475V104.375H79.0592V103.475H79.9544ZM75.4783 104.375V105.276H74.5831V104.375H75.4783ZM74.5831 104.375V105.276H73.688V104.375H74.5831ZM83.5352 98.9723V99.8723H82.64V98.9723H83.5352ZM85.3256 99.8723V100.773H84.4304V99.8723H85.3256ZM84.4304 99.8723V100.773H83.5352V99.8723H84.4304ZM83.5352 99.8723V100.773H82.64V99.8723H83.5352ZM82.64 99.8723V100.773H81.7448V99.8723H82.64ZM82.64 98.9723V99.8723H81.7448V98.9723H82.64ZM81.7448 98.9723V99.8723H80.8496V98.9723H81.7448ZM81.7448 99.8723V100.773H80.8496V99.8723H81.7448ZM76.3735 95.3695V96.2704H75.4783V95.3695H76.3735ZM72.7928 96.2704V97.1704H71.8976V96.2704H72.7928ZM72.7928 97.1704V98.0714H71.8976V97.1704H72.7928ZM73.688 97.1704V98.0714H72.7928V97.1704H73.688ZM73.688 98.0714V98.9723H72.7928V98.0714H73.688ZM74.5831 98.0714V98.9723H73.688V98.0714H74.5831ZM75.4783 98.9723V99.8723H74.5831V98.9723H75.4783ZM75.4783 98.0714V98.9723H74.5831V98.0714H75.4783ZM75.4783 97.1704V98.0714H74.5831V97.1704H75.4783ZM75.4783 96.2704V97.1704H74.5831V96.2704H75.4783ZM74.5831 96.2704V97.1704H73.688V96.2704H74.5831ZM74.5831 97.1704V98.0714H73.688V97.1704H74.5831ZM73.688 96.2704V97.1704H72.7928V96.2704H73.688ZM76.3735 98.9723V99.8723H75.4783V98.9723H76.3735ZM77.2688 98.9723V99.8723H76.3735V98.9723H77.2688ZM78.164 98.9723V99.8723H77.2688V98.9723H78.164ZM79.0592 98.9723V99.8723H78.164V98.9723H79.0592ZM79.0592 98.0714V98.9723H78.164V98.0714H79.0592ZM78.164 98.0714V98.9723H77.2688V98.0714H78.164ZM77.2688 98.0714V98.9723H76.3735V98.0714H77.2688ZM76.3735 98.0714V98.9723H75.4783V98.0714H76.3735ZM76.3735 97.1704V98.0714H75.4783V97.1704H76.3735ZM76.3735 96.2704V97.1704H75.4783V96.2704H76.3735ZM77.2688 96.2704V97.1704H76.3735V96.2704H77.2688ZM78.164 96.2704V97.1704H77.2688V96.2704H78.164ZM79.0592 96.2704V97.1704H78.164V96.2704H79.0592ZM79.0592 97.1704V98.0714H78.164V97.1704H79.0592ZM78.164 97.1704V98.0714H77.2688V97.1704H78.164ZM77.2688 97.1704V98.0714H76.3735V97.1704H77.2688ZM79.9544 96.2704V97.1704H79.0592V96.2704H79.9544ZM80.8496 96.2704V97.1704H79.9544V96.2704H80.8496ZM80.8496 97.1704V98.0714H79.9544V97.1704H80.8496ZM80.8496 98.0714V98.9723H79.9544V98.0714H80.8496ZM80.8496 98.9723V99.8723H79.9544V98.9723H80.8496ZM79.9544 98.9723V99.8723H79.0592V98.9723H79.9544ZM79.9544 98.0714V98.9723H79.0592V98.0714H79.9544ZM79.9544 97.1704V98.0714H79.0592V97.1704H79.9544ZM80.8496 99.8723V100.773H79.9544V99.8723H80.8496ZM81.7448 96.2704V97.1704H80.8496V96.2704H81.7448ZM84.4304 98.9723V99.8723H83.5352V98.9723H84.4304ZM84.4304 98.0714V98.9723H83.5352V98.0714H84.4304ZM83.5352 97.1704V98.0714H82.64V97.1704H83.5352ZM82.64 97.1704V98.0714H81.7448V97.1704H82.64ZM81.7448 97.1704V98.0714H80.8496V97.1704H81.7448ZM81.7448 98.0714V98.9723H80.8496V98.0714H81.7448ZM82.64 98.0714V98.9723H81.7448V98.0714H82.64ZM83.5352 98.0714V98.9723H82.64V98.0714H83.5352ZM80.8496 93.5686V94.4686H79.9544V93.5686H80.8496ZM99.8438 86.364V87.2645H98.9483V86.364H99.8438ZM99.8438 87.2645V88.1651H98.9483V87.2645H99.8438ZM99.8438 88.1651V89.0656H98.9483V88.1651H99.8438ZM99.8438 89.0656V89.9662H98.9483V89.0656H99.8438ZM99.8438 89.9662V90.8667H98.9483V89.9662H99.8438ZM99.8438 90.8667V91.7673H98.9483V90.8667H99.8438ZM99.8438 91.7673V92.6677H98.9483V91.7673H99.8438ZM99.8438 92.6677V93.5686H98.9483V92.6677H99.8438ZM100.738 92.6677V93.5686H99.8438V92.6677H100.738ZM101.634 92.6677V93.5686H100.738V92.6677H101.634ZM102.53 92.6677V93.5686H101.634V92.6677H102.53ZM103.424 92.6677V93.5686H102.53V92.6677H103.424ZM99.8438 94.4686V95.3695H98.9483V94.4686H99.8438ZM98.9483 94.4686V95.3695H98.0536V94.4686H98.9483ZM98.9483 93.5686V94.4686H98.0536V93.5686H98.9483ZM99.8438 93.5686V94.4686H98.9483V93.5686H99.8438ZM99.8438 95.3695V96.2704H98.9483V95.3695H99.8438ZM98.9483 95.3695V96.2704H98.0536V95.3695H98.9483ZM98.0536 95.3695V96.2704H97.1581V95.3695H98.0536ZM97.1581 95.3695V96.2704H96.2625V95.3695H97.1581ZM96.2625 95.3695V96.2704H95.3679V95.3695H96.2625ZM94.4723 92.6677V93.5686H93.5777V92.6677H94.4723ZM95.3679 92.6677V93.5686H94.4723V92.6677H95.3679ZM96.2625 92.6677V93.5686H95.3679V92.6677H96.2625ZM97.1581 92.6677V93.5686H96.2625V92.6677H97.1581ZM98.0536 92.6677V93.5686H97.1581V92.6677H98.0536ZM98.9483 92.6677V93.5686H98.0536V92.6677H98.9483ZM98.0536 94.4686V95.3695H97.1581V94.4686H98.0536ZM98.0536 93.5686V94.4686H97.1581V93.5686H98.0536ZM97.1581 93.5686V94.4686H96.2625V93.5686H97.1581ZM96.2625 93.5686V94.4686H95.3679V93.5686H96.2625ZM96.2625 94.4686V95.3695H95.3679V94.4686H96.2625ZM97.1581 94.4686V95.3695H96.2625V94.4686H97.1581ZM98.9483 87.2645V88.1651H98.0536V87.2645H98.9483ZM98.9483 88.1651V89.0656H98.0536V88.1651H98.9483ZM98.0536 88.1651V89.0656H97.1581V88.1651H98.0536ZM98.0536 89.0656V89.9662H97.1581V89.0656H98.0536ZM98.0536 89.9662V90.8667H97.1581V89.9662H98.0536ZM97.1581 89.0656V89.9662H96.2625V89.0656H97.1581ZM97.1581 89.9662V90.8667H96.2625V89.9662H97.1581ZM96.2625 89.9662V90.8667H95.3679V89.9662H96.2625ZM96.2625 90.8667V91.7673H95.3679V90.8667H96.2625ZM96.2625 91.7673V92.6677H95.3679V91.7673H96.2625ZM98.0536 91.7673V92.6677H97.1581V91.7673H98.0536ZM98.9483 91.7673V92.6677H98.0536V91.7673H98.9483ZM98.9483 90.8667V91.7673H98.0536V90.8667H98.9483ZM98.9483 89.9662V90.8667H98.0536V89.9662H98.9483ZM98.9483 89.0656V89.9662H98.0536V89.0656H98.9483ZM98.0536 90.8667V91.7673H97.1581V90.8667H98.0536ZM97.1581 91.7673V92.6677H96.2625V91.7673H97.1581ZM97.1581 90.8667V91.7673H96.2625V90.8667H97.1581ZM103.424 103.475V104.375H102.53V103.475H103.424ZM103.424 104.375V105.276H102.53V104.375H103.424ZM103.424 106.176V107.077H102.53V106.176H103.424ZM102.53 106.176V107.077H101.634V106.176H102.53ZM101.634 106.176V107.077H100.738V106.176H101.634ZM100.738 106.176V107.077H99.8438V106.176H100.738ZM99.8438 106.176V107.077H98.9483V106.176H99.8438ZM99.8438 105.276V106.176H98.9483V105.276H99.8438ZM98.9483 105.276V106.176H98.0536V105.276H98.9483ZM98.0536 105.276V106.176H97.1581V105.276H98.0536ZM98.0536 104.375V105.276H97.1581V104.375H98.0536ZM97.1581 104.375V105.276H96.2625V104.375H97.1581ZM97.1581 103.475V104.375H96.2625V103.475H97.1581ZM97.1581 102.574V103.475H96.2625V102.574H97.1581ZM96.2625 102.574V103.475H95.3679V102.574H96.2625ZM96.2625 101.673V102.574H95.3679V101.673H96.2625ZM96.2625 100.773V101.673H95.3679V100.773H96.2625ZM96.2625 99.8723V100.773H95.3679V99.8723H96.2625ZM96.2625 98.9723V99.8723H95.3679V98.9723H96.2625ZM96.2625 98.0714V98.9723H95.3679V98.0714H96.2625ZM96.2625 97.1704V98.0714H95.3679V97.1704H96.2625ZM96.2625 96.2704V97.1704H95.3679V96.2704H96.2625ZM97.1581 96.2704V97.1704H96.2625V96.2704H97.1581ZM98.0536 96.2704V97.1704H97.1581V96.2704H98.0536ZM98.9483 96.2704V97.1704H98.0536V96.2704H98.9483ZM99.8438 96.2704V97.1704H98.9483V96.2704H99.8438ZM99.8438 97.1704V98.0714H98.9483V97.1704H99.8438ZM99.8438 98.0714V98.9723H98.9483V98.0714H99.8438ZM99.8438 98.9723V99.8723H98.9483V98.9723H99.8438ZM99.8438 99.8723V100.773H98.9483V99.8723H99.8438ZM99.8438 100.773V101.673H98.9483V100.773H99.8438ZM99.8438 101.673V102.574H98.9483V101.673H99.8438ZM99.8438 102.574V103.475H98.9483V102.574H99.8438ZM100.738 102.574V103.475H99.8438V102.574H100.738ZM100.738 103.475V104.375H99.8438V103.475H100.738ZM101.634 103.475V104.375H100.738V103.475H101.634ZM101.634 104.375V105.276H100.738V104.375H101.634ZM102.53 104.375V105.276H101.634V104.375H102.53ZM102.53 103.475V104.375H101.634V103.475H102.53ZM103.424 105.276V106.176H102.53V105.276H103.424ZM102.53 105.276V106.176H101.634V105.276H102.53ZM101.634 105.276V106.176H100.738V105.276H101.634ZM100.738 105.276V106.176H99.8438V105.276H100.738ZM100.738 104.375V105.276H99.8438V104.375H100.738ZM99.8438 104.375V105.276H98.9483V104.375H99.8438ZM99.8438 103.475V104.375H98.9483V103.475H99.8438ZM98.9483 103.475V104.375H98.0536V103.475H98.9483ZM98.9483 104.375V105.276H98.0536V104.375H98.9483ZM98.0536 103.475V104.375H97.1581V103.475H98.0536ZM98.9483 102.574V103.475H98.0536V102.574H98.9483ZM98.9483 101.673V102.574H98.0536V101.673H98.9483ZM98.0536 102.574V103.475H97.1581V102.574H98.0536ZM98.0536 101.673V102.574H97.1581V101.673H98.0536ZM98.9483 100.773V101.673H98.0536V100.773H98.9483ZM98.9483 99.8723V100.773H98.0536V99.8723H98.9483ZM98.9483 98.9723V99.8723H98.0536V98.9723H98.9483ZM98.9483 98.0714V98.9723H98.0536V98.0714H98.9483ZM98.9483 97.1704V98.0714H98.0536V97.1704H98.9483ZM98.0536 97.1704V98.0714H97.1581V97.1704H98.0536ZM97.1581 97.1704V98.0714H96.2625V97.1704H97.1581ZM97.1581 98.0714V98.9723H96.2625V98.0714H97.1581ZM97.1581 98.9723V99.8723H96.2625V98.9723H97.1581ZM97.1581 99.8723V100.773H96.2625V99.8723H97.1581ZM97.1581 100.773V101.673H96.2625V100.773H97.1581ZM97.1581 101.673V102.574H96.2625V101.673H97.1581ZM98.0536 100.773V101.673H97.1581V100.773H98.0536ZM98.0536 99.8723V100.773H97.1581V99.8723H98.0536ZM98.0536 98.9723V99.8723H97.1581V98.9723H98.0536ZM98.0536 98.0714V98.9723H97.1581V98.0714H98.0536ZM103.424 90.8667V91.7673H102.53V90.8667H103.424ZM102.53 90.8667V91.7673H101.634V90.8667H102.53ZM102.53 91.7673V92.6677H101.634V91.7673H102.53ZM103.424 91.7673V92.6677H102.53V91.7673H103.424ZM101.634 91.7673V92.6677H100.738V91.7673H101.634ZM100.738 91.7673V92.6677H99.8438V91.7673H100.738ZM100.738 90.8667V91.7673H99.8438V90.8667H100.738ZM101.634 90.8667V91.7673H100.738V90.8667H101.634ZM96.2625 89.0656V89.9662H95.3679V89.0656H96.2625ZM97.1581 88.1651V89.0656H96.2625V88.1651H97.1581ZM98.0536 87.2645V88.1651H97.1581V87.2645H98.0536ZM98.9483 86.364V87.2645H98.0536V86.364H98.9483ZM95.3679 90.8667V91.7673H94.4723V90.8667H95.3679ZM95.3679 91.7673V92.6677H94.4723V91.7673H95.3679ZM94.4723 91.7673V92.6677H93.5777V91.7673H94.4723ZM94.4723 90.8667V91.7673H93.5777V90.8667H94.4723ZM99.8438 85.4634V86.364H98.9483V85.4634H99.8438ZM94.4723 93.5686V94.4686H93.5777V93.5686H94.4723ZM95.3679 93.5686V94.4686H94.4723V93.5686H95.3679ZM100.738 93.5686V94.4686H99.8438V93.5686H100.738ZM101.634 93.5686V94.4686H100.738V93.5686H101.634ZM102.53 93.5686V94.4686H101.634V93.5686H102.53ZM103.424 93.5686V94.4686H102.53V93.5686H103.424ZM123.308 95.3695V96.2704H122.414V95.3695H123.308ZM124.204 95.3695V96.2704H123.308V95.3695H124.204ZM125.098 95.3695V96.2704H124.204V95.3695H125.098ZM125.994 95.3695V96.2704H125.098V95.3695H125.994ZM126.89 95.3695V96.2704H125.994V95.3695H126.89ZM126.89 94.4686V95.3695H125.994V94.4686H126.89ZM126.89 93.5686V94.4686H125.994V93.5686H126.89ZM125.994 93.5686V94.4686H125.098V93.5686H125.994ZM125.098 93.5686V94.4686H124.204V93.5686H125.098ZM124.204 93.5686V94.4686H123.308V93.5686H124.204ZM124.204 94.4686V95.3695H123.308V94.4686H124.204ZM123.308 94.4686V95.3695H122.414V94.4686H123.308ZM125.098 94.4686V95.3695H124.204V94.4686H125.098ZM125.994 94.4686V95.3695H125.098V94.4686H125.994ZM123.308 93.5686V94.4686H122.414V93.5686H123.308ZM122.414 93.5686V94.4686H121.518V93.5686H122.414ZM122.414 92.6677V93.5686H121.518V92.6677H122.414ZM123.308 92.6677V93.5686H122.414V92.6677H123.308ZM124.204 92.6677V93.5686H123.308V92.6677H124.204ZM125.098 92.6677V93.5686H124.204V92.6677H125.098ZM125.994 92.6677V93.5686H125.098V92.6677H125.994ZM125.994 91.7673V92.6677H125.098V91.7673H125.994ZM125.098 91.7673V92.6677H124.204V91.7673H125.098ZM124.204 91.7673V92.6677H123.308V91.7673H124.204ZM123.308 91.7673V92.6677H122.414V91.7673H123.308ZM122.414 91.7673V92.6677H121.518V91.7673H122.414ZM124.204 90.8667V91.7673H123.308V90.8667H124.204ZM125.098 90.8667V91.7673H124.204V90.8667H125.098ZM123.308 90.8667V91.7673H122.414V90.8667H123.308ZM123.308 89.9662V90.8667H122.414V89.9662H123.308ZM122.414 89.9662V90.8667H121.518V89.9662H122.414ZM122.414 90.8667V91.7673H121.518V90.8667H122.414ZM121.518 90.8667V91.7673H120.622V90.8667H121.518ZM121.518 89.9662V90.8667H120.622V89.9662H121.518ZM121.518 91.7673V92.6677H120.622V91.7673H121.518ZM120.622 91.7673V92.6677H119.728V91.7673H120.622ZM120.622 92.6677V93.5686H119.728V92.6677H120.622ZM121.518 92.6677V93.5686H120.622V92.6677H121.518ZM119.728 92.6677V93.5686H118.832V92.6677H119.728ZM119.728 91.7673V92.6677H118.832V91.7673H119.728ZM119.728 90.8667V91.7673H118.832V90.8667H119.728ZM119.728 89.9662V90.8667H118.832V89.9662H119.728ZM120.622 89.9662V90.8667H119.728V89.9662H120.622ZM120.622 90.8667V91.7673H119.728V90.8667H120.622ZM118.832 89.9662V90.8667H117.938V89.9662H118.832ZM117.938 89.9662V90.8667H117.042V89.9662H117.938ZM117.042 89.9662V90.8667H116.147V89.9662H117.042ZM117.042 90.8667V91.7673H116.147V90.8667H117.042ZM117.042 91.7673V92.6677H116.147V91.7673H117.042ZM117.042 92.6677V93.5686H116.147V92.6677H117.042ZM117.938 92.6677V93.5686H117.042V92.6677H117.938ZM118.832 92.6677V93.5686H117.938V92.6677H118.832ZM118.832 91.7673V92.6677H117.938V91.7673H118.832ZM118.832 90.8667V91.7673H117.938V90.8667H118.832ZM117.938 90.8667V91.7673H117.042V90.8667H117.938ZM117.938 91.7673V92.6677H117.042V91.7673H117.938ZM116.147 91.7673V92.6677H115.252V91.7673H116.147ZM116.147 90.8667V91.7673H115.252V90.8667H116.147ZM115.252 90.8667V91.7673H114.356V90.8667H115.252ZM115.252 91.7673V92.6677H114.356V91.7673H115.252ZM114.356 91.7673V92.6677H113.461V91.7673H114.356ZM114.356 92.6677V93.5686H113.461V92.6677H114.356ZM114.356 93.5686V94.4686H113.461V93.5686H114.356ZM115.252 93.5686V94.4686H114.356V93.5686H115.252ZM115.252 92.6677V93.5686H114.356V92.6677H115.252ZM116.147 92.6677V93.5686H115.252V92.6677H116.147ZM116.147 93.5686V94.4686H115.252V93.5686H116.147ZM117.042 93.5686V94.4686H116.147V93.5686H117.042ZM117.938 93.5686V94.4686H117.042V93.5686H117.938ZM113.461 93.5686V94.4686H112.566V93.5686H113.461ZM113.461 94.4686V95.3695H112.566V94.4686H113.461ZM113.461 95.3695V96.2704H112.566V95.3695H113.461ZM113.461 96.2704V97.1704H112.566V96.2704H113.461ZM113.461 97.1704V98.0714H112.566V97.1704H113.461ZM113.461 98.0714V98.9723H112.566V98.0714H113.461ZM113.461 98.9723V99.8723H112.566V98.9723H113.461ZM113.461 99.8723V100.773H112.566V99.8723H113.461ZM113.461 100.773V101.673H112.566V100.773H113.461ZM113.461 101.673V102.574H112.566V101.673H113.461ZM114.356 101.673V102.574H113.461V101.673H114.356ZM114.356 102.574V103.475H113.461V102.574H114.356ZM113.461 102.574V103.475H112.566V102.574H113.461ZM115.252 102.574V103.475H114.356V102.574H115.252ZM116.147 102.574V103.475H115.252V102.574H116.147ZM117.042 102.574V103.475H116.147V102.574H117.042ZM117.938 102.574V103.475H117.042V102.574H117.938ZM117.042 101.673V102.574H116.147V101.673H117.042ZM117.042 100.773V101.673H116.147V100.773H117.042ZM117.042 99.8723V100.773H116.147V99.8723H117.042ZM117.042 98.9723V99.8723H116.147V98.9723H117.042ZM117.042 98.0714V98.9723H116.147V98.0714H117.042ZM117.042 97.1704V98.0714H116.147V97.1704H117.042ZM117.042 96.2704V97.1704H116.147V96.2704H117.042ZM117.042 95.3695V96.2704H116.147V95.3695H117.042ZM117.042 94.4686V95.3695H116.147V94.4686H117.042ZM116.147 94.4686V95.3695H115.252V94.4686H116.147ZM115.252 94.4686V95.3695H114.356V94.4686H115.252ZM114.356 94.4686V95.3695H113.461V94.4686H114.356ZM114.356 95.3695V96.2704H113.461V95.3695H114.356ZM114.356 96.2704V97.1704H113.461V96.2704H114.356ZM114.356 97.1704V98.0714H113.461V97.1704H114.356ZM114.356 98.0714V98.9723H113.461V98.0714H114.356ZM114.356 98.9723V99.8723H113.461V98.9723H114.356ZM114.356 99.8723V100.773H113.461V99.8723H114.356ZM114.356 100.773V101.673H113.461V100.773H114.356ZM115.252 101.673V102.574H114.356V101.673H115.252ZM116.147 101.673V102.574H115.252V101.673H116.147ZM116.147 100.773V101.673H115.252V100.773H116.147ZM116.147 99.8723V100.773H115.252V99.8723H116.147ZM116.147 98.9723V99.8723H115.252V98.9723H116.147ZM116.147 98.0714V98.9723H115.252V98.0714H116.147ZM115.252 98.0714V98.9723H114.356V98.0714H115.252ZM115.252 97.1704V98.0714H114.356V97.1704H115.252ZM115.252 96.2704V97.1704H114.356V96.2704H115.252ZM115.252 95.3695V96.2704H114.356V95.3695H115.252ZM116.147 95.3695V96.2704H115.252V95.3695H116.147ZM116.147 96.2704V97.1704H115.252V96.2704H116.147ZM116.147 97.1704V98.0714H115.252V97.1704H116.147ZM115.252 99.8723V100.773H114.356V99.8723H115.252ZM115.252 100.773V101.673H114.356V100.773H115.252ZM115.252 98.9723V99.8723H114.356V98.9723H115.252ZM123.308 101.673V102.574H122.414V101.673H123.308ZM124.204 101.673V102.574H123.308V101.673H124.204ZM125.098 101.673V102.574H124.204V101.673H125.098ZM125.994 101.673V102.574H125.098V101.673H125.994ZM126.89 101.673V102.574H125.994V101.673H126.89ZM126.89 102.574V103.475H125.994V102.574H126.89ZM125.994 102.574V103.475H125.098V102.574H125.994ZM125.098 102.574V103.475H124.204V102.574H125.098ZM124.204 102.574V103.475H123.308V102.574H124.204ZM123.308 102.574V103.475H122.414V102.574H123.308ZM122.414 102.574V103.475H121.518V102.574H122.414ZM122.414 103.475V104.375H121.518V103.475H122.414ZM123.308 103.475V104.375H122.414V103.475H123.308ZM124.204 103.475V104.375H123.308V103.475H124.204ZM125.098 103.475V104.375H124.204V103.475H125.098ZM125.098 104.375V105.276H124.204V104.375H125.098ZM125.994 104.375V105.276H125.098V104.375H125.994ZM125.994 103.475V104.375H125.098V103.475H125.994ZM125.098 105.276V106.176H124.204V105.276H125.098ZM124.204 105.276V106.176H123.308V105.276H124.204ZM124.204 104.375V105.276H123.308V104.375H124.204ZM123.308 104.375V105.276H122.414V104.375H123.308ZM123.308 105.276V106.176H122.414V105.276H123.308ZM123.308 106.176V107.077H122.414V106.176H123.308ZM122.414 106.176V107.077H121.518V106.176H122.414ZM121.518 106.176V107.077H120.622V106.176H121.518ZM120.622 106.176V107.077H119.728V106.176H120.622ZM119.728 106.176V107.077H118.832V106.176H119.728ZM118.832 106.176V107.077H117.938V106.176H118.832ZM117.938 106.176V107.077H117.042V106.176H117.938ZM117.042 106.176V107.077H116.147V106.176H117.042ZM117.938 105.276V106.176H117.042V105.276H117.938ZM118.832 105.276V106.176H117.938V105.276H118.832ZM119.728 105.276V106.176H118.832V105.276H119.728ZM120.622 105.276V106.176H119.728V105.276H120.622ZM121.518 105.276V106.176H120.622V105.276H121.518ZM122.414 105.276V106.176H121.518V105.276H122.414ZM122.414 104.375V105.276H121.518V104.375H122.414ZM121.518 104.375V105.276H120.622V104.375H121.518ZM120.622 104.375V105.276H119.728V104.375H120.622ZM119.728 104.375V105.276H118.832V104.375H119.728ZM118.832 104.375V105.276H117.938V104.375H118.832ZM117.938 104.375V105.276H117.042V104.375H117.938ZM117.042 105.276V106.176H116.147V105.276H117.042ZM116.147 105.276V106.176H115.252V105.276H116.147ZM115.252 105.276V106.176H114.356V105.276H115.252ZM115.252 104.375V105.276H114.356V104.375H115.252ZM114.356 104.375V105.276H113.461V104.375H114.356ZM114.356 103.475V104.375H113.461V103.475H114.356ZM115.252 103.475V104.375H114.356V103.475H115.252ZM116.147 103.475V104.375H115.252V103.475H116.147ZM117.042 103.475V104.375H116.147V103.475H117.042ZM117.938 103.475V104.375H117.042V103.475H117.938ZM118.832 103.475V104.375H117.938V103.475H118.832ZM119.728 103.475V104.375H118.832V103.475H119.728ZM120.622 103.475V104.375H119.728V103.475H120.622ZM121.518 103.475V104.375H120.622V103.475H121.518ZM117.042 104.375V105.276H116.147V104.375H117.042ZM116.147 104.375V105.276H115.252V104.375H116.147ZM126.89 96.2704V97.1704H125.994V96.2704H126.89ZM125.994 96.2704V97.1704H125.098V96.2704H125.994ZM125.098 96.2704V97.1704H124.204V96.2704H125.098ZM124.204 96.2704V97.1704H123.308V96.2704H124.204ZM123.308 96.2704V97.1704H122.414V96.2704H123.308ZM126.89 97.1704V98.0714H125.994V97.1704H126.89ZM125.098 97.1704V98.0714H124.204V97.1704H125.098ZM124.204 97.1704V98.0714H123.308V97.1704H124.204ZM122.414 97.1704V98.0714H121.518V97.1704H122.414ZM121.518 97.1704V98.0714H120.622V97.1704H121.518ZM120.622 97.1704V98.0714H119.728V97.1704H120.622ZM119.728 97.1704V98.0714H118.832V97.1704H119.728ZM118.832 97.1704V98.0714H117.938V97.1704H118.832ZM117.938 97.1704V98.0714H117.042V97.1704H117.938ZM123.308 97.1704V98.0714H122.414V97.1704H123.308ZM125.994 97.1704V98.0714H125.098V97.1704H125.994ZM126.89 98.0714V98.9723H125.994V98.0714H126.89ZM125.994 98.0714V98.9723H125.098V98.0714H125.994ZM125.098 98.0714V98.9723H124.204V98.0714H125.098ZM124.204 98.0714V98.9723H123.308V98.0714H124.204ZM123.308 98.0714V98.9723H122.414V98.0714H123.308ZM122.414 98.0714V98.9723H121.518V98.0714H122.414ZM121.518 98.0714V98.9723H120.622V98.0714H121.518ZM120.622 98.0714V98.9723H119.728V98.0714H120.622ZM119.728 98.0714V98.9723H118.832V98.0714H119.728ZM118.832 98.0714V98.9723H117.938V98.0714H118.832ZM117.938 98.0714V98.9723H117.042V98.0714H117.938ZM117.938 98.9723V99.8723H117.042V98.9723H117.938ZM118.832 98.9723V99.8723H117.938V98.9723H118.832ZM119.728 98.9723V99.8723H118.832V98.9723H119.728ZM121.518 98.9723V99.8723H120.622V98.9723H121.518ZM122.414 98.9723V99.8723H121.518V98.9723H122.414ZM123.308 98.9723V99.8723H122.414V98.9723H123.308ZM124.204 98.9723V99.8723H123.308V98.9723H124.204ZM125.098 98.9723V99.8723H124.204V98.9723H125.098ZM125.994 98.9723V99.8723H125.098V98.9723H125.994ZM126.89 98.9723V99.8723H125.994V98.9723H126.89ZM120.622 98.9723V99.8723H119.728V98.9723H120.622ZM137.826 106.176V107.077H136.932V106.176H137.826ZM137.826 105.276V106.176H136.932V105.276H137.826ZM137.826 104.375V105.276H136.932V104.375H137.826ZM137.826 103.475V104.375H136.932V103.475H137.826ZM137.826 102.574V103.475H136.932V102.574H137.826ZM137.826 101.673V102.574H136.932V101.673H137.826ZM137.826 100.773V101.673H136.932V100.773H137.826ZM137.826 99.8723V100.773H136.932V99.8723H137.826ZM137.826 98.9723V99.8723H136.932V98.9723H137.826ZM137.826 98.0714V98.9723H136.932V98.0714H137.826ZM137.826 97.1704V98.0714H136.932V97.1704H137.826ZM137.826 96.2704V97.1704H136.932V96.2704H137.826ZM137.826 95.3695V96.2704H136.932V95.3695H137.826ZM137.826 94.4686V95.3695H136.932V94.4686H137.826ZM137.826 93.5686V94.4686H136.932V93.5686H137.826ZM138.722 93.5686V94.4686H137.826V93.5686H138.722ZM138.722 94.4686V95.3695H137.826V94.4686H138.722ZM138.722 95.3695V96.2704H137.826V95.3695H138.722ZM138.722 96.2704V97.1704H137.826V96.2704H138.722ZM138.722 97.1704V98.0714H137.826V97.1704H138.722ZM138.722 98.0714V98.9723H137.826V98.0714H138.722ZM138.722 98.9723V99.8723H137.826V98.9723H138.722ZM139.616 99.8723V100.773H138.722V99.8723H139.616ZM139.616 100.773V101.673H138.722V100.773H139.616ZM139.616 101.673V102.574H138.722V101.673H139.616ZM139.616 102.574V103.475H138.722V102.574H139.616ZM139.616 103.475V104.375H138.722V103.475H139.616ZM139.616 104.375V105.276H138.722V104.375H139.616ZM139.616 105.276V106.176H138.722V105.276H139.616ZM139.616 106.176V107.077H138.722V106.176H139.616ZM140.512 106.176V107.077H139.616V106.176H140.512ZM141.408 106.176V107.077H140.512V106.176H141.408ZM141.408 105.276V106.176H140.512V105.276H141.408ZM141.408 104.375V105.276H140.512V104.375H141.408ZM141.408 103.475V104.375H140.512V103.475H141.408ZM141.408 102.574V103.475H140.512V102.574H141.408ZM141.408 101.673V102.574H140.512V101.673H141.408ZM141.408 100.773V101.673H140.512V100.773H141.408ZM141.408 99.8723V100.773H140.512V99.8723H141.408ZM140.512 99.8723V100.773H139.616V99.8723H140.512ZM140.512 98.9723V99.8723H139.616V98.9723H140.512ZM140.512 100.773V101.673H139.616V100.773H140.512ZM140.512 101.673V102.574H139.616V101.673H140.512ZM140.512 102.574V103.475H139.616V102.574H140.512ZM140.512 103.475V104.375H139.616V103.475H140.512ZM140.512 104.375V105.276H139.616V104.375H140.512ZM140.512 105.276V106.176H139.616V105.276H140.512ZM138.722 106.176V107.077H137.826V106.176H138.722ZM138.722 105.276V106.176H137.826V105.276H138.722ZM138.722 104.375V105.276H137.826V104.375H138.722ZM138.722 103.475V104.375H137.826V103.475H138.722ZM138.722 102.574V103.475H137.826V102.574H138.722ZM138.722 101.673V102.574H137.826V101.673H138.722ZM138.722 100.773V101.673H137.826V100.773H138.722ZM138.722 99.8723V100.773H137.826V99.8723H138.722ZM137.826 89.9662V90.8667H136.932V89.9662H137.826ZM137.826 90.8667V91.7673H136.932V90.8667H137.826ZM137.826 91.7673V92.6677H136.932V91.7673H137.826ZM137.826 92.6677V93.5686H136.932V92.6677H137.826ZM140.512 90.8667V91.7673H139.616V90.8667H140.512ZM140.512 91.7673V92.6677H139.616V91.7673H140.512ZM140.512 92.6677V93.5686H139.616V92.6677H140.512ZM140.512 93.5686V94.4686H139.616V93.5686H140.512ZM140.512 94.4686V95.3695H139.616V94.4686H140.512ZM140.512 95.3695V96.2704H139.616V95.3695H140.512ZM140.512 96.2704V97.1704H139.616V96.2704H140.512ZM141.408 97.1704V98.0714H140.512V97.1704H141.408ZM141.408 98.0714V98.9723H140.512V98.0714H141.408ZM141.408 98.9723V99.8723H140.512V98.9723H141.408ZM141.408 96.2704V97.1704H140.512V96.2704H141.408ZM141.408 95.3695V96.2704H140.512V95.3695H141.408ZM141.408 94.4686V95.3695H140.512V94.4686H141.408ZM141.408 93.5686V94.4686H140.512V93.5686H141.408ZM141.408 92.6677V93.5686H140.512V92.6677H141.408ZM141.408 91.7673V92.6677H140.512V91.7673H141.408ZM141.408 90.8667V91.7673H140.512V90.8667H141.408ZM141.408 89.9662V90.8667H140.512V89.9662H141.408ZM140.512 89.9662V90.8667H139.616V89.9662H140.512ZM139.616 89.9662V90.8667H138.722V89.9662H139.616ZM139.616 90.8667V91.7673H138.722V90.8667H139.616ZM138.722 91.7673V92.6677H137.826V91.7673H138.722ZM138.722 92.6677V93.5686H137.826V92.6677H138.722ZM138.722 90.8667V91.7673H137.826V90.8667H138.722ZM138.722 89.9662V90.8667H137.826V89.9662H138.722ZM139.616 91.7673V92.6677H138.722V91.7673H139.616ZM139.616 92.6677V93.5686H138.722V92.6677H139.616ZM139.616 93.5686V94.4686H138.722V93.5686H139.616ZM139.616 94.4686V95.3695H138.722V94.4686H139.616ZM139.616 95.3695V96.2704H138.722V95.3695H139.616ZM139.616 96.2704V97.1704H138.722V96.2704H139.616ZM139.616 97.1704V98.0714H138.722V97.1704H139.616ZM139.616 98.0714V98.9723H138.722V98.0714H139.616ZM139.616 98.9723V99.8723H138.722V98.9723H139.616ZM140.512 98.0714V98.9723H139.616V98.0714H140.512ZM140.512 97.1704V98.0714H139.616V97.1704H140.512ZM147.674 93.5686V94.4686H146.778V93.5686H147.674ZM147.674 89.9662V90.8667H146.778V89.9662H147.674ZM147.674 90.8667V91.7673H146.778V90.8667H147.674ZM148.569 90.8667V91.7673H147.674V90.8667H148.569ZM149.464 91.7673V92.6677H148.569V91.7673H149.464ZM148.569 92.6677V93.5686H147.674V92.6677H148.569ZM148.569 91.7673V92.6677H147.674V91.7673H148.569ZM147.674 91.7673V92.6677H146.778V91.7673H147.674ZM146.778 91.7673V92.6677H145.884V91.7673H146.778ZM146.778 92.6677V93.5686H145.884V92.6677H146.778ZM147.674 92.6677V93.5686H146.778V92.6677H147.674ZM146.778 93.5686V94.4686H145.884V93.5686H146.778ZM145.884 92.6677V93.5686H144.988V92.6677H145.884ZM145.884 91.7673V92.6677H144.988V91.7673H145.884ZM145.884 90.8667V91.7673H144.988V90.8667H145.884ZM145.884 89.9662V90.8667H144.988V89.9662H145.884ZM146.778 89.9662V90.8667H145.884V89.9662H146.778ZM146.778 90.8667V91.7673H145.884V90.8667H146.778ZM144.988 89.9662V90.8667H144.092V89.9662H144.988ZM144.988 90.8667V91.7673H144.092V90.8667H144.988ZM144.988 91.7673V92.6677H144.092V91.7673H144.988ZM144.988 92.6677V93.5686H144.092V92.6677H144.988ZM144.092 89.9662V90.8667H143.198V89.9662H144.092ZM144.092 90.8667V91.7673H143.198V90.8667H144.092ZM143.198 90.8667V91.7673H142.302V90.8667H143.198ZM143.198 91.7673V92.6677H142.302V91.7673H143.198ZM142.302 91.7673V92.6677H141.408V91.7673H142.302ZM142.302 92.6677V93.5686H141.408V92.6677H142.302ZM143.198 92.6677V93.5686H142.302V92.6677H143.198ZM144.092 92.6677V93.5686H143.198V92.6677H144.092ZM144.092 91.7673V92.6677H143.198V91.7673H144.092ZM142.302 93.5686V94.4686H141.408V93.5686H142.302ZM143.198 89.9662V90.8667H142.302V89.9662H143.198ZM142.302 90.8667V91.7673H141.408V90.8667H142.302ZM145.884 93.5686V94.4686H144.988V93.5686H145.884ZM146.778 94.4686V95.3695H145.884V94.4686H146.778Z" fill="#2F2F2F"/>
</g>
<defs>
<clipPath id="clip0_201_101">
<rect width="167" height="132" fill="white" transform="translate(0.5)"/>
</clipPath>
</defs>
</svg>
