<svg width="45" height="36" viewBox="0 0 45 36" fill="none" xmlns="http://www.w3.org/2000/svg">
<g clip-path="url(#clip0_356_2)">
<path d="M27.863 0.36441C27.8737 0.339248 27.9105 0.346954 27.9105 0.374329V2.00928C27.9105 2.01794 27.9061 2.02599 27.8989 2.0306L26.9569 2.63295C26.9363 2.64609 26.9116 2.62441 26.921 2.6017L27.863 0.36441Z" fill="#F7F7F8"/>
<path d="M27.4187 12.2971C27.4326 12.2881 27.4514 12.2954 27.4556 12.3116L27.9978 14.3091C28.001 14.3213 27.9951 14.334 27.9837 14.3392C27.6904 14.4738 27.3764 14.7868 27.17 15.3517C27.169 15.3545 27.1685 15.3575 27.1685 15.3605V15.9023C27.1685 15.9105 27.1725 15.9182 27.1789 15.9229L27.7953 16.3654C27.8074 16.374 27.8094 16.3914 27.7997 16.4026L27.1858 17.1076C27.1764 17.1184 27.1601 17.1189 27.15 17.1088L26.2455 16.2001C26.2423 16.1968 26.2401 16.1926 26.2388 16.1881C26.0215 15.2977 26.0378 14.787 26.2401 13.8667C26.2403 13.865 26.2411 13.8634 26.2415 13.8619C26.6893 12.8357 26.9556 12.5928 27.4187 12.2971Z" fill="#F7F7F8"/>
<path d="M34.8415 14.5071C34.8252 14.4863 34.8477 14.4575 34.8712 14.4689C35.9781 15.0012 36.5199 15.3765 37.1832 16.188C37.1869 16.1926 37.1889 16.1983 37.1889 16.2042V17.6617C37.1889 17.6756 37.1778 17.6869 37.1642 17.6869H36.3787C36.3651 17.6869 36.3539 17.6756 36.3539 17.6617V16.7614C36.3539 16.7569 36.3527 16.7523 36.3502 16.7485C35.5857 15.4385 35.3536 15.1648 34.8415 14.5071Z" fill="#F7F7F8"/>
<path d="M29.1083 17.4786C29.1105 17.4908 29.1206 17.4995 29.1327 17.4995H30.284C30.2976 17.4995 30.3087 17.4876 30.3087 17.4735C30.276 15.2268 30.5013 14.2556 31.5917 13.3802C31.5959 13.3769 31.6011 13.3749 31.6063 13.3747C32.9216 13.3301 33.6503 13.4117 34.9133 13.8437C36.6287 14.7162 37.4043 15.4555 38.5926 17.0255C38.5951 17.0289 38.5968 17.0331 38.5976 17.0374L38.6856 17.6654C38.6873 17.6778 38.6977 17.687 38.7101 17.687H40.4863C40.5056 17.687 40.5173 17.6651 40.5071 17.6483C39.8235 16.4992 39.6442 15.7287 39.4256 14.3144C39.4254 14.3131 39.4254 14.3117 39.4254 14.3104V10.8654C39.4254 10.8531 39.434 10.8426 39.4462 10.8406C39.7463 10.7917 39.9248 10.8117 40.2475 11.0272C40.2517 11.03 40.2566 11.0315 40.2616 11.0314C40.7455 11.0192 41.6395 11.0021 42.0586 11.0139C42.088 11.0148 42.1182 10.9244 42.0935 10.908L38.3263 8.41085C38.3224 8.40826 38.3177 8.40685 38.3132 8.40677C36.4937 8.37181 35.4792 8.28634 33.6241 8.03195C32.7093 7.79538 32.1292 7.59401 31.0551 7.19181C31.0492 7.1896 31.044 7.18497 31.0413 7.1792C30.4867 6.03996 30.217 5.41014 29.7716 4.31954C29.7647 4.30247 29.7776 4.28352 29.7956 4.2846C30.074 4.30131 30.2454 4.34172 30.7646 4.56162C30.7678 4.56293 30.771 4.56364 30.7745 4.56361C30.9639 4.56213 31.0717 4.56137 31.2262 4.56359C31.2287 4.56364 31.2309 4.56331 31.2334 4.56265C31.4814 4.49201 31.6223 4.43665 31.8745 4.28243C32.1173 4.1338 29.6913 2.97652 29.493 2.88244C29.4843 2.87828 29.4801 2.87008 29.4801 2.86028V1.57553C29.4801 1.56822 29.4834 1.56122 29.4888 1.55641C29.8799 1.20729 29.9959 0.792685 30.5139 0.315546C30.5329 0.298158 30.5174 0.266141 30.4926 0.271931C29.6636 0.465405 29.4596 0.886519 28.839 1.28064C28.8368 1.28206 28.8348 1.28386 28.8331 1.28593L27.918 2.40377C27.9158 2.40634 27.9133 2.40849 27.9103 2.41003C26.4651 3.17356 25.6945 3.67033 24.3284 4.56044C24.3252 4.56253 24.3224 4.56542 24.3205 4.56872C24.2062 4.76363 24.1946 4.90118 24.3213 5.21428C24.3227 5.21785 24.325 5.22113 24.3279 5.2237L25.0504 5.86734C25.0565 5.87275 25.0598 5.88096 25.0588 5.88914C25.0165 6.26908 24.9339 6.48911 24.7383 6.82773C24.7257 6.84984 24.7495 6.87549 24.7717 6.86333L25.8834 6.25392C25.8871 6.25196 25.891 6.25093 25.8952 6.25093H27.1567C27.1691 6.25093 27.1795 6.25969 27.1812 6.27208C27.4875 8.44927 27.7207 12.301 27.9111 12.5276C27.914 12.531 27.915 12.5326 27.9165 12.5368C27.9563 12.6686 28.732 15.2432 29.1083 17.4786Z" fill="#F7F7F8"/>
<path d="M1.97755 0.314697H20.5215C21.4432 0.314697 22.1905 1.0755 22.1905 2.014V18.063H0.308594V2.014C0.308594 1.0755 1.05581 0.314697 1.97755 0.314697Z" fill="#F7F7F8" stroke="#0C0C0C" stroke-width="2"/>
<path d="M5.37703 11.7345V11.9801H5.13581V11.7345H5.37703ZM5.37703 11.4888V11.7345H5.13581V11.4888H5.37703ZM5.37703 11.2432V11.4888H5.13581V11.2432H5.37703ZM5.37703 10.9976V11.2432H5.13581V10.9976H5.37703ZM5.37703 10.752V10.9976H5.13581V10.752H5.37703ZM5.37703 10.5064V10.752H5.13581V10.5064H5.37703ZM5.37703 10.2608V10.5064H5.13581V10.2608H5.37703ZM5.37703 10.0152V10.2608H5.13581V10.0152H5.37703ZM5.37703 9.76958V10.0152H5.13581V9.76958H5.37703ZM5.37703 9.52398V9.76958H5.13581V9.52398H5.37703ZM5.37703 9.27837V9.52398H5.13581V9.27837H5.37703ZM5.37703 9.03277V9.27837H5.13581V9.03277H5.37703ZM5.37703 8.78714V9.03277H5.13581V8.78714H5.37703ZM5.37703 8.54153V8.78714H5.13581V8.54153H5.37703ZM5.37703 8.29593V8.54153H5.13581V8.29593H5.37703ZM5.61825 8.29593V8.54153H5.37703V8.29593H5.61825ZM5.61825 8.54153V8.78714H5.37703V8.54153H5.61825ZM5.61825 8.78714V9.03277H5.37703V8.78714H5.61825ZM5.61825 9.03277V9.27837H5.37703V9.03277H5.61825ZM5.61825 9.27837V9.52398H5.37703V9.27837H5.61825ZM5.61825 9.52398V9.76958H5.37703V9.52398H5.61825ZM5.61825 9.76958V10.0152H5.37703V9.76958H5.61825ZM5.85947 10.0152V10.2608H5.61825V10.0152H5.85947ZM5.85947 10.2608V10.5064H5.61825V10.2608H5.85947ZM5.85947 10.5064V10.752H5.61825V10.5064H5.85947ZM5.85947 10.752V10.9976H5.61825V10.752H5.85947ZM5.85947 10.9976V11.2432H5.61825V10.9976H5.85947ZM5.85947 11.2432V11.4888H5.61825V11.2432H5.85947ZM5.85947 11.4888V11.7345H5.61825V11.4888H5.85947ZM5.85947 11.7345V11.9801H5.61825V11.7345H5.85947ZM6.10069 11.7345V11.9801H5.85947V11.7345H6.10069ZM6.34191 11.7345V11.9801H6.10069V11.7345H6.34191ZM6.34191 11.4888V11.7345H6.10069V11.4888H6.34191ZM6.34191 11.2432V11.4888H6.10069V11.2432H6.34191ZM6.34191 10.9976V11.2432H6.10069V10.9976H6.34191ZM6.34191 10.752V10.9976H6.10069V10.752H6.34191ZM6.34191 10.5064V10.752H6.10069V10.5064H6.34191ZM6.34191 10.2608V10.5064H6.10069V10.2608H6.34191ZM6.34191 10.0152V10.2608H6.10069V10.0152H6.34191ZM6.10069 10.0152V10.2608H5.85947V10.0152H6.10069ZM6.10069 9.76958V10.0152H5.85947V9.76958H6.10069ZM6.10069 10.2608V10.5064H5.85947V10.2608H6.10069ZM6.10069 10.5064V10.752H5.85947V10.5064H6.10069ZM6.10069 10.752V10.9976H5.85947V10.752H6.10069ZM6.10069 10.9976V11.2432H5.85947V10.9976H6.10069ZM6.10069 11.2432V11.4888H5.85947V11.2432H6.10069ZM6.10069 11.4888V11.7345H5.85947V11.4888H6.10069ZM5.61825 11.7345V11.9801H5.37703V11.7345H5.61825ZM5.61825 11.4888V11.7345H5.37703V11.4888H5.61825ZM5.61825 11.2432V11.4888H5.37703V11.2432H5.61825ZM5.61825 10.9976V11.2432H5.37703V10.9976H5.61825ZM5.61825 10.752V10.9976H5.37703V10.752H5.61825ZM5.61825 10.5064V10.752H5.37703V10.5064H5.61825ZM5.61825 10.2608V10.5064H5.37703V10.2608H5.61825ZM5.61825 10.0152V10.2608H5.37703V10.0152H5.61825ZM5.37703 5.83984V6.08545H5.13581V5.83984H5.37703ZM5.37703 6.08545V6.33106H5.13581V6.08545H5.37703ZM5.37703 6.33106V6.57669H5.13581V6.33106H5.37703ZM5.37703 6.57669V6.82229H5.13581V6.57669H5.37703ZM5.37703 6.82229V7.0679H5.13581V6.82229H5.37703ZM5.37703 7.0679V7.3135H5.13581V7.0679H5.37703ZM5.37703 7.3135V7.55911H5.13581V7.3135H5.37703ZM5.37703 7.55911V7.80471H5.13581V7.55911H5.37703ZM5.37703 7.80471V8.05032H5.13581V7.80471H5.37703ZM5.37703 8.05032V8.29593H5.13581V8.05032H5.37703ZM6.10069 5.83984V6.08545H5.85947V5.83984H6.10069ZM6.10069 6.08545V6.33106H5.85947V6.08545H6.10069ZM6.10069 6.33106V6.57669H5.85947V6.33106H6.10069ZM6.10069 6.57669V6.82229H5.85947V6.57669H6.10069ZM6.10069 6.82229V7.0679H5.85947V6.82229H6.10069ZM6.10069 7.0679V7.3135H5.85947V7.0679H6.10069ZM6.10069 7.55911V7.80471H5.85947V7.55911H6.10069ZM6.10069 7.80471V8.05032H5.85947V7.80471H6.10069ZM6.10069 8.05032V8.29593H5.85947V8.05032H6.10069ZM6.10069 8.29593V8.54153H5.85947V8.29593H6.10069ZM6.10069 8.54153V8.78714H5.85947V8.54153H6.10069ZM6.10069 8.78714V9.03277H5.85947V8.78714H6.10069ZM6.10069 9.03277V9.27837H5.85947V9.03277H6.10069ZM6.34191 9.27837V9.52398H6.10069V9.27837H6.34191ZM6.34191 9.52398V9.76958H6.10069V9.52398H6.34191ZM6.34191 9.76958V10.0152H6.10069V9.76958H6.34191ZM6.34191 9.03277V9.27837H6.10069V9.03277H6.34191ZM6.34191 8.78714V9.03277H6.10069V8.78714H6.34191ZM6.34191 8.54153V8.78714H6.10069V8.54153H6.34191ZM6.34191 8.29593V8.54153H6.10069V8.29593H6.34191ZM6.34191 8.05032V8.29593H6.10069V8.05032H6.34191ZM6.34191 7.80471V8.05032H6.10069V7.80471H6.34191ZM6.34191 7.55911V7.80471H6.10069V7.55911H6.34191ZM6.34191 7.3135V7.55911H6.10069V7.3135H6.34191ZM6.34191 7.0679V7.3135H6.10069V7.0679H6.34191ZM6.34191 6.82229V7.0679H6.10069V6.82229H6.34191ZM6.10069 7.3135V7.55911H5.85947V7.3135H6.10069ZM6.34191 6.57669V6.82229H6.10069V6.57669H6.34191ZM6.34191 6.33106V6.57669H6.10069V6.33106H6.34191ZM6.34191 6.08545V6.33106H6.10069V6.08545H6.34191ZM6.34191 5.83984V6.08545H6.10069V5.83984H6.34191ZM5.85947 5.83984V6.08545H5.61825V5.83984H5.85947ZM5.61825 5.83984V6.08545H5.37703V5.83984H5.61825ZM5.61825 6.08545V6.33106H5.37703V6.08545H5.61825ZM5.85947 6.08545V6.33106H5.61825V6.08545H5.85947ZM5.85947 6.33106V6.57669H5.61825V6.33106H5.85947ZM5.85947 6.57669V6.82229H5.61825V6.57669H5.85947ZM5.85947 6.82229V7.0679H5.61825V6.82229H5.85947ZM5.85947 7.0679V7.3135H5.61825V7.0679H5.85947ZM5.85947 7.3135V7.55911H5.61825V7.3135H5.85947ZM5.85947 7.55911V7.80471H5.61825V7.55911H5.85947ZM5.61825 7.80471V8.05032H5.37703V7.80471H5.61825ZM5.61825 8.05032V8.29593H5.37703V8.05032H5.61825ZM5.61825 7.55911V7.80471H5.37703V7.55911H5.61825ZM5.61825 7.3135V7.55911H5.37703V7.3135H5.61825ZM5.61825 7.0679V7.3135H5.37703V7.0679H5.61825ZM5.61825 6.82229V7.0679H5.37703V6.82229H5.61825ZM5.61825 6.57669V6.82229H5.37703V6.57669H5.61825ZM5.61825 6.33106V6.57669H5.37703V6.33106H5.61825ZM5.85947 7.80471V8.05032H5.61825V7.80471H5.85947ZM5.85947 8.05032V8.29593H5.61825V8.05032H5.85947ZM5.85947 8.29593V8.54153H5.61825V8.29593H5.85947ZM5.85947 8.54153V8.78714H5.61825V8.54153H5.85947ZM5.85947 8.78714V9.03277H5.61825V8.78714H5.85947ZM5.85947 9.03277V9.27837H5.61825V9.03277H5.85947ZM5.85947 9.27837V9.52398H5.61825V9.27837H5.85947ZM5.85947 9.52398V9.76958H5.61825V9.52398H5.85947ZM5.85947 9.76958V10.0152H5.61825V9.76958H5.85947ZM6.10069 9.52398V9.76958H5.85947V9.52398H6.10069ZM6.10069 9.27837V9.52398H5.85947V9.27837H6.10069ZM5.13581 5.83984V6.08545H4.89459V5.83984H5.13581ZM4.89459 5.83984V6.08545H4.65337V5.83984H4.89459ZM4.65337 5.83984V6.08545H4.41215V5.83984H4.65337ZM4.41215 5.83984V6.08545H4.17091V5.83984H4.41215ZM4.17091 5.83984V6.08545H3.92969V5.83984H4.17091ZM4.17091 6.08545V6.33106H3.92969V6.08545H4.17091ZM4.17091 6.33106V6.57669H3.92969V6.33106H4.17091ZM4.41215 6.08545V6.33106H4.17091V6.08545H4.41215ZM4.65337 6.08545V6.33106H4.41215V6.08545H4.65337ZM4.89459 6.08545V6.33106H4.65337V6.08545H4.89459ZM5.13581 6.33106V6.57669H4.89459V6.33106H5.13581ZM5.13581 6.08545V6.33106H4.89459V6.08545H5.13581ZM4.89459 6.33106V6.57669H4.65337V6.33106H4.89459ZM4.65337 6.33106V6.57669H4.41215V6.33106H4.65337ZM4.41215 6.33106V6.57669H4.17091V6.33106H4.41215ZM6.58313 5.83984V6.08545H6.34191V5.83984H6.58313ZM6.82437 5.83984V6.08545H6.58313V5.83984H6.82437ZM7.06559 5.83984V6.08545H6.82437V5.83984H7.06559ZM7.30681 5.83984V6.08545H7.06559V5.83984H7.30681ZM7.54803 5.83984V6.08545H7.30681V5.83984H7.54803ZM7.54803 6.08545V6.33106H7.30681V6.08545H7.54803ZM7.30681 6.08545V6.33106H7.06559V6.08545H7.30681ZM7.06559 6.08545V6.33106H6.82437V6.08545H7.06559ZM6.82437 6.08545V6.33106H6.58313V6.08545H6.82437ZM6.58313 6.08545V6.33106H6.34191V6.08545H6.58313ZM6.58313 6.33106V6.57669H6.34191V6.33106H6.58313ZM6.82437 6.33106V6.57669H6.58313V6.33106H6.82437ZM7.06559 6.33106V6.57669H6.82437V6.33106H7.06559ZM7.30681 6.33106V6.57669H7.06559V6.33106H7.30681ZM7.54803 6.33106V6.57669H7.30681V6.33106H7.54803ZM4.17091 6.57669V6.82229H3.92969V6.57669H4.17091ZM4.17091 6.82229V7.0679H3.92969V6.82229H4.17091ZM4.41215 6.82229V7.0679H4.17091V6.82229H4.41215ZM4.65337 6.82229V7.0679H4.41215V6.82229H4.65337ZM4.89459 6.82229V7.0679H4.65337V6.82229H4.89459ZM5.13581 6.82229V7.0679H4.89459V6.82229H5.13581ZM5.13581 6.57669V6.82229H4.89459V6.57669H5.13581ZM4.89459 6.57669V6.82229H4.65337V6.57669H4.89459ZM4.65337 6.57669V6.82229H4.41215V6.57669H4.65337ZM4.41215 6.57669V6.82229H4.17091V6.57669H4.41215ZM7.54803 6.57669V6.82229H7.30681V6.57669H7.54803ZM7.54803 6.82229V7.0679H7.30681V6.82229H7.54803ZM7.30681 6.82229V7.0679H7.06559V6.82229H7.30681ZM7.06559 6.82229V7.0679H6.82437V6.82229H7.06559ZM6.82437 6.82229V7.0679H6.58313V6.82229H6.82437ZM6.58313 6.82229V7.0679H6.34191V6.82229H6.58313ZM6.58313 6.57669V6.82229H6.34191V6.57669H6.58313ZM6.82437 6.57669V6.82229H6.58313V6.57669H6.82437ZM7.06559 6.57669V6.82229H6.82437V6.57669H7.06559ZM7.30681 6.57669V6.82229H7.06559V6.57669H7.30681ZM8.75861 5.83984V6.08545H8.51739V5.83984H8.75861ZM8.75861 6.08545V6.33106H8.51739V6.08545H8.75861ZM8.75861 6.33106V6.57669H8.51739V6.33106H8.75861ZM9.48229 5.83984V6.08545H9.24107V5.83984H9.48229ZM9.48229 6.08545V6.33106H9.24107V6.08545H9.48229ZM9.48229 6.33106V6.57669H9.24107V6.33106H9.48229ZM9.72351 6.33106V6.57669H9.48229V6.33106H9.72351ZM9.72351 6.08545V6.33106H9.48229V6.08545H9.72351ZM9.72351 5.83984V6.08545H9.48229V5.83984H9.72351ZM9.24107 5.83984V6.08545H8.99983V5.83984H9.24107ZM8.99983 5.83984V6.08545H8.75861V5.83984H8.99983ZM8.99983 6.08545V6.33106H8.75861V6.08545H8.99983ZM9.24107 6.08545V6.33106H8.99983V6.08545H9.24107ZM9.24107 6.33106V6.57669H8.99983V6.33106H9.24107ZM8.99983 6.33106V6.57669H8.75861V6.33106H8.99983ZM8.75861 6.57669V6.82229H8.51739V6.57669H8.75861ZM8.99983 6.57669V6.82229H8.75861V6.57669H8.99983ZM9.24107 6.57669V6.82229H8.99983V6.57669H9.24107ZM9.48229 6.57669V6.82229H9.24107V6.57669H9.48229ZM9.72351 6.57669V6.82229H9.48229V6.57669H9.72351ZM8.75861 11.7345V11.9801H8.51739V11.7345H8.75861ZM8.75861 11.4888V11.7345H8.51739V11.4888H8.75861ZM8.75861 11.2432V11.4888H8.51739V11.2432H8.75861ZM8.75861 10.9976V11.2432H8.51739V10.9976H8.75861ZM8.75861 10.752V10.9976H8.51739V10.752H8.75861ZM8.75861 10.5064V10.752H8.51739V10.5064H8.75861ZM8.75861 10.2608V10.5064H8.51739V10.2608H8.75861ZM8.75861 10.0152V10.2608H8.51739V10.0152H8.75861ZM8.75861 9.76958V10.0152H8.51739V9.76958H8.75861ZM8.75861 9.52398V9.76958H8.51739V9.52398H8.75861ZM8.75861 9.27837V9.52398H8.51739V9.27837H8.75861ZM8.75861 9.03277V9.27837H8.51739V9.03277H8.75861ZM8.75861 8.78714V9.03277H8.51739V8.78714H8.75861ZM8.75861 8.54153V8.78714H8.51739V8.54153H8.75861ZM8.75861 8.29593V8.54153H8.51739V8.29593H8.75861ZM8.99983 8.29593V8.54153H8.75861V8.29593H8.99983ZM8.99983 8.54153V8.78714H8.75861V8.54153H8.99983ZM8.99983 8.78714V9.03277H8.75861V8.78714H8.99983ZM8.99983 9.03277V9.27837H8.75861V9.03277H8.99983ZM8.99983 9.27837V9.52398H8.75861V9.27837H8.99983ZM8.99983 9.52398V9.76958H8.75861V9.52398H8.99983ZM8.99983 9.76958V10.0152H8.75861V9.76958H8.99983ZM9.24107 10.0152V10.2608H8.99983V10.0152H9.24107ZM9.24107 10.2608V10.5064H8.99983V10.2608H9.24107ZM9.24107 10.5064V10.752H8.99983V10.5064H9.24107ZM9.24107 10.752V10.9976H8.99983V10.752H9.24107ZM9.24107 10.9976V11.2432H8.99983V10.9976H9.24107ZM9.24107 11.2432V11.4888H8.99983V11.2432H9.24107ZM9.24107 11.4888V11.7345H8.99983V11.4888H9.24107ZM9.24107 11.7345V11.9801H8.99983V11.7345H9.24107ZM9.48229 11.7345V11.9801H9.24107V11.7345H9.48229ZM9.72351 11.7345V11.9801H9.48229V11.7345H9.72351ZM9.72351 11.4888V11.7345H9.48229V11.4888H9.72351ZM9.72351 11.2432V11.4888H9.48229V11.2432H9.72351ZM9.72351 10.9976V11.2432H9.48229V10.9976H9.72351ZM9.72351 10.752V10.9976H9.48229V10.752H9.72351ZM9.72351 10.5064V10.752H9.48229V10.5064H9.72351ZM9.72351 10.2608V10.5064H9.48229V10.2608H9.72351ZM9.72351 10.0152V10.2608H9.48229V10.0152H9.72351ZM9.48229 10.0152V10.2608H9.24107V10.0152H9.48229ZM9.48229 9.76958V10.0152H9.24107V9.76958H9.48229ZM9.48229 10.2608V10.5064H9.24107V10.2608H9.48229ZM9.48229 10.5064V10.752H9.24107V10.5064H9.48229ZM9.48229 10.752V10.9976H9.24107V10.752H9.48229ZM9.48229 10.9976V11.2432H9.24107V10.9976H9.48229ZM9.48229 11.2432V11.4888H9.24107V11.2432H9.48229ZM9.48229 11.4888V11.7345H9.24107V11.4888H9.48229ZM8.99983 11.7345V11.9801H8.75861V11.7345H8.99983ZM8.99983 11.4888V11.7345H8.75861V11.4888H8.99983ZM8.99983 11.2432V11.4888H8.75861V11.2432H8.99983ZM8.99983 10.9976V11.2432H8.75861V10.9976H8.99983ZM8.99983 10.752V10.9976H8.75861V10.752H8.99983ZM8.99983 10.5064V10.752H8.75861V10.5064H8.99983ZM8.99983 10.2608V10.5064H8.75861V10.2608H8.99983ZM8.99983 10.0152V10.2608H8.75861V10.0152H8.99983ZM8.75861 7.80471V8.05032H8.51739V7.80471H8.75861ZM8.75861 8.05032V8.29593H8.51739V8.05032H8.75861ZM9.48229 7.80471V8.05032H9.24107V7.80471H9.48229ZM9.48229 8.05032V8.29593H9.24107V8.05032H9.48229ZM9.48229 8.29593V8.54153H9.24107V8.29593H9.48229ZM9.48229 8.54153V8.78714H9.24107V8.54153H9.48229ZM9.48229 8.78714V9.03277H9.24107V8.78714H9.48229ZM9.48229 9.03277V9.27837H9.24107V9.03277H9.48229ZM9.72351 9.27837V9.52398H9.48229V9.27837H9.72351ZM9.72351 9.52398V9.76958H9.48229V9.52398H9.72351ZM9.72351 9.76958V10.0152H9.48229V9.76958H9.72351ZM9.72351 9.03277V9.27837H9.48229V9.03277H9.72351ZM9.72351 8.78714V9.03277H9.48229V8.78714H9.72351ZM9.72351 8.54153V8.78714H9.48229V8.54153H9.72351ZM9.72351 8.29593V8.54153H9.48229V8.29593H9.72351ZM9.72351 8.05032V8.29593H9.48229V8.05032H9.72351ZM9.72351 7.80471V8.05032H9.48229V7.80471H9.72351ZM8.99983 7.80471V8.05032H8.75861V7.80471H8.99983ZM8.99983 8.05032V8.29593H8.75861V8.05032H8.99983ZM9.24107 7.80471V8.05032H8.99983V7.80471H9.24107ZM9.24107 8.05032V8.29593H8.99983V8.05032H9.24107ZM9.24107 8.29593V8.54153H8.99983V8.29593H9.24107ZM9.24107 8.54153V8.78714H8.99983V8.54153H9.24107ZM9.24107 8.78714V9.03277H8.99983V8.78714H9.24107ZM9.24107 9.03277V9.27837H8.99983V9.03277H9.24107ZM9.24107 9.27837V9.52398H8.99983V9.27837H9.24107ZM9.24107 9.52398V9.76958H8.99983V9.52398H9.24107ZM9.24107 9.76958V10.0152H8.99983V9.76958H9.24107ZM9.48229 9.52398V9.76958H9.24107V9.52398H9.48229ZM9.48229 9.27837V9.52398H9.24107V9.27837H9.48229ZM9.48229 7.55911V7.80471H9.24107V7.55911H9.48229ZM9.72351 7.55911V7.80471H9.48229V7.55911H9.72351ZM9.24107 7.55911V7.80471H8.99983V7.55911H9.24107ZM8.99983 7.55911V7.80471H8.75861V7.55911H8.99983ZM8.75861 7.55911V7.80471H8.51739V7.55911H8.75861ZM13.344 8.78714V9.03277H13.1027V8.78714H13.344ZM13.5852 8.78714V9.03277H13.344V8.78714H13.5852ZM13.8264 8.78714V9.03277H13.5852V8.78714H13.8264ZM14.0676 8.78714V9.03277H13.8264V8.78714H14.0676ZM14.3088 8.78714V9.03277H14.0676V8.78714H14.3088ZM14.3088 8.54153V8.78714H14.0676V8.54153H14.3088ZM14.3088 8.29593V8.54153H14.0676V8.29593H14.3088ZM14.0676 8.29593V8.54153H13.8264V8.29593H14.0676ZM13.8264 8.29593V8.54153H13.5852V8.29593H13.8264ZM13.5852 8.29593V8.54153H13.344V8.29593H13.5852ZM13.5852 8.54153V8.78714H13.344V8.54153H13.5852ZM13.344 8.54153V8.78714H13.1027V8.54153H13.344ZM13.8264 8.54153V8.78714H13.5852V8.54153H13.8264ZM14.0676 8.54153V8.78714H13.8264V8.54153H14.0676ZM13.344 8.29593V8.54153H13.1027V8.29593H13.344ZM13.1027 8.29593V8.54153H12.8615V8.29593H13.1027ZM13.1027 8.05032V8.29593H12.8615V8.05032H13.1027ZM13.344 8.05032V8.29593H13.1027V8.05032H13.344ZM13.5852 8.05032V8.29593H13.344V8.05032H13.5852ZM13.8264 8.05032V8.29593H13.5852V8.05032H13.8264ZM14.0676 8.05032V8.29593H13.8264V8.05032H14.0676ZM14.0676 7.80471V8.05032H13.8264V7.80471H14.0676ZM13.8264 7.80471V8.05032H13.5852V7.80471H13.8264ZM13.5852 7.80471V8.05032H13.344V7.80471H13.5852ZM13.344 7.80471V8.05032H13.1027V7.80471H13.344ZM13.1027 7.80471V8.05032H12.8615V7.80471H13.1027ZM13.5852 7.55911V7.80471H13.344V7.55911H13.5852ZM13.8264 7.55911V7.80471H13.5852V7.55911H13.8264ZM13.344 7.55911V7.80471H13.1027V7.55911H13.344ZM13.344 7.3135V7.55911H13.1027V7.3135H13.344ZM13.1027 7.3135V7.55911H12.8615V7.3135H13.1027ZM13.1027 7.55911V7.80471H12.8615V7.55911H13.1027ZM12.8615 7.55911V7.80471H12.6203V7.55911H12.8615ZM12.8615 7.3135V7.55911H12.6203V7.3135H12.8615ZM12.8615 7.80471V8.05032H12.6203V7.80471H12.8615ZM12.6203 7.80471V8.05032H12.3791V7.80471H12.6203ZM12.6203 8.05032V8.29593H12.3791V8.05032H12.6203ZM12.8615 8.05032V8.29593H12.6203V8.05032H12.8615ZM12.3791 8.05032V8.29593H12.1378V8.05032H12.3791ZM12.3791 7.80471V8.05032H12.1378V7.80471H12.3791ZM12.3791 7.55911V7.80471H12.1378V7.55911H12.3791ZM12.3791 7.3135V7.55911H12.1378V7.3135H12.3791ZM12.6203 7.3135V7.55911H12.3791V7.3135H12.6203ZM12.6203 7.55911V7.80471H12.3791V7.55911H12.6203ZM12.1378 7.3135V7.55911H11.8966V7.3135H12.1378ZM11.8966 7.3135V7.55911H11.6554V7.3135H11.8966ZM11.6554 7.3135V7.55911H11.4142V7.3135H11.6554ZM11.6554 7.55911V7.80471H11.4142V7.55911H11.6554ZM11.6554 7.80471V8.05032H11.4142V7.80471H11.6554ZM11.6554 8.05032V8.29593H11.4142V8.05032H11.6554ZM11.8966 8.05032V8.29593H11.6554V8.05032H11.8966ZM12.1378 8.05032V8.29593H11.8966V8.05032H12.1378ZM12.1378 7.80471V8.05032H11.8966V7.80471H12.1378ZM12.1378 7.55911V7.80471H11.8966V7.55911H12.1378ZM11.8966 7.55911V7.80471H11.6554V7.55911H11.8966ZM11.8966 7.80471V8.05032H11.6554V7.80471H11.8966ZM11.4142 7.80471V8.05032H11.173V7.80471H11.4142ZM11.4142 7.55911V7.80471H11.173V7.55911H11.4142ZM11.173 7.55911V7.80471H10.9317V7.55911H11.173ZM11.173 7.80471V8.05032H10.9317V7.80471H11.173ZM10.9317 7.80471V8.05032H10.6905V7.80471H10.9317ZM10.9317 8.05032V8.29593H10.6905V8.05032H10.9317ZM10.9317 8.29593V8.54153H10.6905V8.29593H10.9317ZM11.173 8.29593V8.54153H10.9317V8.29593H11.173ZM11.173 8.05032V8.29593H10.9317V8.05032H11.173ZM11.4142 8.05032V8.29593H11.173V8.05032H11.4142ZM11.4142 8.29593V8.54153H11.173V8.29593H11.4142ZM11.6554 8.29593V8.54153H11.4142V8.29593H11.6554ZM11.8966 8.29593V8.54153H11.6554V8.29593H11.8966ZM10.6905 8.29593V8.54153H10.4493V8.29593H10.6905ZM10.6905 8.54153V8.78714H10.4493V8.54153H10.6905ZM10.6905 8.78714V9.03277H10.4493V8.78714H10.6905ZM10.6905 9.03277V9.27837H10.4493V9.03277H10.6905ZM10.6905 9.27837V9.52398H10.4493V9.27837H10.6905ZM10.6905 9.52398V9.76958H10.4493V9.52398H10.6905ZM10.6905 9.76958V10.0152H10.4493V9.76958H10.6905ZM10.6905 10.0152V10.2608H10.4493V10.0152H10.6905ZM10.6905 10.2608V10.5064H10.4493V10.2608H10.6905ZM10.6905 10.5064V10.752H10.4493V10.5064H10.6905ZM10.9317 10.5064V10.752H10.6905V10.5064H10.9317ZM10.9317 10.752V10.9976H10.6905V10.752H10.9317ZM10.6905 10.752V10.9976H10.4493V10.752H10.6905ZM11.173 10.752V10.9976H10.9317V10.752H11.173ZM11.4142 10.752V10.9976H11.173V10.752H11.4142ZM11.6554 10.752V10.9976H11.4142V10.752H11.6554ZM11.8966 10.752V10.9976H11.6554V10.752H11.8966ZM11.6554 10.5064V10.752H11.4142V10.5064H11.6554ZM11.6554 10.2608V10.5064H11.4142V10.2608H11.6554ZM11.6554 10.0152V10.2608H11.4142V10.0152H11.6554ZM11.6554 9.76958V10.0152H11.4142V9.76958H11.6554ZM11.6554 9.52398V9.76958H11.4142V9.52398H11.6554ZM11.6554 9.27837V9.52398H11.4142V9.27837H11.6554ZM11.6554 9.03277V9.27837H11.4142V9.03277H11.6554ZM11.6554 8.78714V9.03277H11.4142V8.78714H11.6554ZM11.6554 8.54153V8.78714H11.4142V8.54153H11.6554ZM11.4142 8.54153V8.78714H11.173V8.54153H11.4142ZM11.173 8.54153V8.78714H10.9317V8.54153H11.173ZM10.9317 8.54153V8.78714H10.6905V8.54153H10.9317ZM10.9317 8.78714V9.03277H10.6905V8.78714H10.9317ZM10.9317 9.03277V9.27837H10.6905V9.03277H10.9317ZM10.9317 9.27837V9.52398H10.6905V9.27837H10.9317ZM10.9317 9.52398V9.76958H10.6905V9.52398H10.9317ZM10.9317 9.76958V10.0152H10.6905V9.76958H10.9317ZM10.9317 10.0152V10.2608H10.6905V10.0152H10.9317ZM10.9317 10.2608V10.5064H10.6905V10.2608H10.9317ZM11.173 10.5064V10.752H10.9317V10.5064H11.173ZM11.4142 10.5064V10.752H11.173V10.5064H11.4142ZM11.4142 10.2608V10.5064H11.173V10.2608H11.4142ZM11.4142 10.0152V10.2608H11.173V10.0152H11.4142ZM11.4142 9.76958V10.0152H11.173V9.76958H11.4142ZM11.4142 9.52398V9.76958H11.173V9.52398H11.4142ZM11.173 9.52398V9.76958H10.9317V9.52398H11.173ZM11.173 9.27837V9.52398H10.9317V9.27837H11.173ZM11.173 9.03277V9.27837H10.9317V9.03277H11.173ZM11.173 8.78714V9.03277H10.9317V8.78714H11.173ZM11.4142 8.78714V9.03277H11.173V8.78714H11.4142ZM11.4142 9.03277V9.27837H11.173V9.03277H11.4142ZM11.4142 9.27837V9.52398H11.173V9.27837H11.4142ZM11.173 10.0152V10.2608H10.9317V10.0152H11.173ZM11.173 10.2608V10.5064H10.9317V10.2608H11.173ZM11.173 9.76958V10.0152H10.9317V9.76958H11.173ZM13.344 10.5064V10.752H13.1027V10.5064H13.344ZM13.5852 10.5064V10.752H13.344V10.5064H13.5852ZM13.8264 10.5064V10.752H13.5852V10.5064H13.8264ZM14.0676 10.5064V10.752H13.8264V10.5064H14.0676ZM14.3088 10.5064V10.752H14.0676V10.5064H14.3088ZM14.3088 10.752V10.9976H14.0676V10.752H14.3088ZM14.0676 10.752V10.9976H13.8264V10.752H14.0676ZM13.8264 10.752V10.9976H13.5852V10.752H13.8264ZM13.5852 10.752V10.9976H13.344V10.752H13.5852ZM13.344 10.752V10.9976H13.1027V10.752H13.344ZM13.1027 10.752V10.9976H12.8615V10.752H13.1027ZM13.1027 10.9976V11.2432H12.8615V10.9976H13.1027ZM13.344 10.9976V11.2432H13.1027V10.9976H13.344ZM13.5852 10.9976V11.2432H13.344V10.9976H13.5852ZM13.8264 10.9976V11.2432H13.5852V10.9976H13.8264ZM13.8264 11.2432V11.4888H13.5852V11.2432H13.8264ZM14.0676 11.2432V11.4888H13.8264V11.2432H14.0676ZM14.0676 10.9976V11.2432H13.8264V10.9976H14.0676ZM13.8264 11.4888V11.7345H13.5852V11.4888H13.8264ZM13.5852 11.4888V11.7345H13.344V11.4888H13.5852ZM13.5852 11.2432V11.4888H13.344V11.2432H13.5852ZM13.344 11.2432V11.4888H13.1027V11.2432H13.344ZM13.344 11.4888V11.7345H13.1027V11.4888H13.344ZM13.344 11.7345V11.9801H13.1027V11.7345H13.344ZM13.1027 11.7345V11.9801H12.8615V11.7345H13.1027ZM12.8615 11.7345V11.9801H12.6203V11.7345H12.8615ZM12.6203 11.7345V11.9801H12.3791V11.7345H12.6203ZM12.3791 11.7345V11.9801H12.1378V11.7345H12.3791ZM12.1378 11.7345V11.9801H11.8966V11.7345H12.1378ZM11.8966 11.7345V11.9801H11.6554V11.7345H11.8966ZM11.6554 11.7345V11.9801H11.4142V11.7345H11.6554ZM11.8966 11.4888V11.7345H11.6554V11.4888H11.8966ZM12.1378 11.4888V11.7345H11.8966V11.4888H12.1378ZM12.3791 11.4888V11.7345H12.1378V11.4888H12.3791ZM12.6203 11.4888V11.7345H12.3791V11.4888H12.6203ZM12.8615 11.4888V11.7345H12.6203V11.4888H12.8615ZM13.1027 11.4888V11.7345H12.8615V11.4888H13.1027ZM13.1027 11.2432V11.4888H12.8615V11.2432H13.1027ZM12.8615 11.2432V11.4888H12.6203V11.2432H12.8615ZM12.6203 11.2432V11.4888H12.3791V11.2432H12.6203ZM12.3791 11.2432V11.4888H12.1378V11.2432H12.3791ZM12.1378 11.2432V11.4888H11.8966V11.2432H12.1378ZM11.8966 11.2432V11.4888H11.6554V11.2432H11.8966ZM11.6554 11.4888V11.7345H11.4142V11.4888H11.6554ZM11.4142 11.4888V11.7345H11.173V11.4888H11.4142ZM11.173 11.4888V11.7345H10.9317V11.4888H11.173ZM11.173 11.2432V11.4888H10.9317V11.2432H11.173ZM10.9317 11.2432V11.4888H10.6905V11.2432H10.9317ZM10.9317 10.9976V11.2432H10.6905V10.9976H10.9317ZM11.173 10.9976V11.2432H10.9317V10.9976H11.173ZM11.4142 10.9976V11.2432H11.173V10.9976H11.4142ZM11.6554 10.9976V11.2432H11.4142V10.9976H11.6554ZM11.8966 10.9976V11.2432H11.6554V10.9976H11.8966ZM12.1378 10.9976V11.2432H11.8966V10.9976H12.1378ZM12.3791 10.9976V11.2432H12.1378V10.9976H12.3791ZM12.6203 10.9976V11.2432H12.3791V10.9976H12.6203ZM12.8615 10.9976V11.2432H12.6203V10.9976H12.8615ZM11.6554 11.2432V11.4888H11.4142V11.2432H11.6554ZM11.4142 11.2432V11.4888H11.173V11.2432H11.4142ZM14.3088 9.03277V9.27837H14.0676V9.03277H14.3088ZM14.0676 9.03277V9.27837H13.8264V9.03277H14.0676ZM13.8264 9.03277V9.27837H13.5852V9.03277H13.8264ZM13.5852 9.03277V9.27837H13.344V9.03277H13.5852ZM13.344 9.03277V9.27837H13.1027V9.03277H13.344ZM14.3088 9.27837V9.52398H14.0676V9.27837H14.3088ZM13.8264 9.27837V9.52398H13.5852V9.27837H13.8264ZM13.5852 9.27837V9.52398H13.344V9.27837H13.5852ZM13.1027 9.27837V9.52398H12.8615V9.27837H13.1027ZM12.8615 9.27837V9.52398H12.6203V9.27837H12.8615ZM12.6203 9.27837V9.52398H12.3791V9.27837H12.6203ZM12.3791 9.27837V9.52398H12.1378V9.27837H12.3791ZM12.1378 9.27837V9.52398H11.8966V9.27837H12.1378ZM11.8966 9.27837V9.52398H11.6554V9.27837H11.8966ZM13.344 9.27837V9.52398H13.1027V9.27837H13.344ZM14.0676 9.27837V9.52398H13.8264V9.27837H14.0676ZM14.3088 9.52398V9.76958H14.0676V9.52398H14.3088ZM14.0676 9.52398V9.76958H13.8264V9.52398H14.0676ZM13.8264 9.52398V9.76958H13.5852V9.52398H13.8264ZM13.5852 9.52398V9.76958H13.344V9.52398H13.5852ZM13.344 9.52398V9.76958H13.1027V9.52398H13.344ZM13.1027 9.52398V9.76958H12.8615V9.52398H13.1027ZM12.8615 9.52398V9.76958H12.6203V9.52398H12.8615ZM12.6203 9.52398V9.76958H12.3791V9.52398H12.6203ZM12.3791 9.52398V9.76958H12.1378V9.52398H12.3791ZM12.1378 9.52398V9.76958H11.8966V9.52398H12.1378ZM11.8966 9.52398V9.76958H11.6554V9.52398H11.8966ZM11.8966 9.76958V10.0152H11.6554V9.76958H11.8966ZM12.1378 9.76958V10.0152H11.8966V9.76958H12.1378ZM12.3791 9.76958V10.0152H12.1378V9.76958H12.3791ZM12.8615 9.76958V10.0152H12.6203V9.76958H12.8615ZM13.1027 9.76958V10.0152H12.8615V9.76958H13.1027ZM13.344 9.76958V10.0152H13.1027V9.76958H13.344ZM13.5852 9.76958V10.0152H13.344V9.76958H13.5852ZM13.8264 9.76958V10.0152H13.5852V9.76958H13.8264ZM14.0676 9.76958V10.0152H13.8264V9.76958H14.0676ZM14.3088 9.76958V10.0152H14.0676V9.76958H14.3088ZM12.6203 9.76958V10.0152H12.3791V9.76958H12.6203ZM15.278 11.7345V11.9801H15.0367V11.7345H15.278ZM15.278 11.4888V11.7345H15.0367V11.4888H15.278ZM15.278 11.2432V11.4888H15.0367V11.2432H15.278ZM15.278 10.9976V11.2432H15.0367V10.9976H15.278ZM15.278 10.752V10.9976H15.0367V10.752H15.278ZM15.278 10.5064V10.752H15.0367V10.5064H15.278ZM15.278 10.2608V10.5064H15.0367V10.2608H15.278ZM15.278 10.0152V10.2608H15.0367V10.0152H15.278ZM15.278 9.76958V10.0152H15.0367V9.76958H15.278ZM15.278 9.52398V9.76958H15.0367V9.52398H15.278ZM15.278 9.27837V9.52398H15.0367V9.27837H15.278ZM15.278 9.03277V9.27837H15.0367V9.03277H15.278ZM15.278 8.78714V9.03277H15.0367V8.78714H15.278ZM15.278 8.54153V8.78714H15.0367V8.54153H15.278ZM15.278 8.29593V8.54153H15.0367V8.29593H15.278ZM15.5192 8.29593V8.54153H15.278V8.29593H15.5192ZM15.5192 8.54153V8.78714H15.278V8.54153H15.5192ZM15.5192 8.78714V9.03277H15.278V8.78714H15.5192ZM15.5192 9.03277V9.27837H15.278V9.03277H15.5192ZM15.5192 9.27837V9.52398H15.278V9.27837H15.5192ZM15.5192 9.52398V9.76958H15.278V9.52398H15.5192ZM15.5192 9.76958V10.0152H15.278V9.76958H15.5192ZM15.7604 10.0152V10.2608H15.5192V10.0152H15.7604ZM15.7604 10.2608V10.5064H15.5192V10.2608H15.7604ZM15.7604 10.5064V10.752H15.5192V10.5064H15.7604ZM15.7604 10.752V10.9976H15.5192V10.752H15.7604ZM15.7604 10.9976V11.2432H15.5192V10.9976H15.7604ZM15.7604 11.2432V11.4888H15.5192V11.2432H15.7604ZM15.7604 11.4888V11.7345H15.5192V11.4888H15.7604ZM15.7604 11.7345V11.9801H15.5192V11.7345H15.7604ZM16.0017 11.7345V11.9801H15.7604V11.7345H16.0017ZM16.2429 11.7345V11.9801H16.0017V11.7345H16.2429ZM16.2429 11.4888V11.7345H16.0017V11.4888H16.2429ZM16.2429 11.2432V11.4888H16.0017V11.2432H16.2429ZM16.2429 10.9976V11.2432H16.0017V10.9976H16.2429ZM16.2429 10.752V10.9976H16.0017V10.752H16.2429ZM16.2429 10.5064V10.752H16.0017V10.5064H16.2429ZM16.2429 10.2608V10.5064H16.0017V10.2608H16.2429ZM16.2429 10.0152V10.2608H16.0017V10.0152H16.2429ZM16.0017 10.0152V10.2608H15.7604V10.0152H16.0017ZM16.0017 9.76958V10.0152H15.7604V9.76958H16.0017ZM16.0017 10.2608V10.5064H15.7604V10.2608H16.0017ZM16.0017 10.5064V10.752H15.7604V10.5064H16.0017ZM16.0017 10.752V10.9976H15.7604V10.752H16.0017ZM16.0017 10.9976V11.2432H15.7604V10.9976H16.0017ZM16.0017 11.2432V11.4888H15.7604V11.2432H16.0017ZM16.0017 11.4888V11.7345H15.7604V11.4888H16.0017ZM15.5192 11.7345V11.9801H15.278V11.7345H15.5192ZM15.5192 11.4888V11.7345H15.278V11.4888H15.5192ZM15.5192 11.2432V11.4888H15.278V11.2432H15.5192ZM15.5192 10.9976V11.2432H15.278V10.9976H15.5192ZM15.5192 10.752V10.9976H15.278V10.752H15.5192ZM15.5192 10.5064V10.752H15.278V10.5064H15.5192ZM15.5192 10.2608V10.5064H15.278V10.2608H15.5192ZM15.5192 10.0152V10.2608H15.278V10.0152H15.5192ZM15.278 7.3135V7.55911H15.0367V7.3135H15.278ZM15.278 7.55911V7.80471H15.0367V7.55911H15.278ZM15.278 7.80471V8.05032H15.0367V7.80471H15.278ZM15.278 8.05032V8.29593H15.0367V8.05032H15.278ZM16.0017 7.55911V7.80471H15.7604V7.55911H16.0017ZM16.0017 7.80471V8.05032H15.7604V7.80471H16.0017ZM16.0017 8.05032V8.29593H15.7604V8.05032H16.0017ZM16.0017 8.29593V8.54153H15.7604V8.29593H16.0017ZM16.0017 8.54153V8.78714H15.7604V8.54153H16.0017ZM16.0017 8.78714V9.03277H15.7604V8.78714H16.0017ZM16.0017 9.03277V9.27837H15.7604V9.03277H16.0017ZM16.2429 9.27837V9.52398H16.0017V9.27837H16.2429ZM16.2429 9.52398V9.76958H16.0017V9.52398H16.2429ZM16.2429 9.76958V10.0152H16.0017V9.76958H16.2429ZM16.2429 9.03277V9.27837H16.0017V9.03277H16.2429ZM16.2429 8.78714V9.03277H16.0017V8.78714H16.2429ZM16.2429 8.54153V8.78714H16.0017V8.54153H16.2429ZM16.2429 8.29593V8.54153H16.0017V8.29593H16.2429ZM16.2429 8.05032V8.29593H16.0017V8.05032H16.2429ZM16.2429 7.80471V8.05032H16.0017V7.80471H16.2429ZM16.2429 7.55911V7.80471H16.0017V7.55911H16.2429ZM16.2429 7.3135V7.55911H16.0017V7.3135H16.2429ZM16.0017 7.3135V7.55911H15.7604V7.3135H16.0017ZM15.7604 7.3135V7.55911H15.5192V7.3135H15.7604ZM15.7604 7.55911V7.80471H15.5192V7.55911H15.7604ZM15.5192 7.80471V8.05032H15.278V7.80471H15.5192ZM15.5192 8.05032V8.29593H15.278V8.05032H15.5192ZM15.5192 7.55911V7.80471H15.278V7.55911H15.5192ZM15.5192 7.3135V7.55911H15.278V7.3135H15.5192ZM15.7604 7.80471V8.05032H15.5192V7.80471H15.7604ZM15.7604 8.05032V8.29593H15.5192V8.05032H15.7604ZM15.7604 8.29593V8.54153H15.5192V8.29593H15.7604ZM15.7604 8.54153V8.78714H15.5192V8.54153H15.7604ZM15.7604 8.78714V9.03277H15.5192V8.78714H15.7604ZM15.7604 9.03277V9.27837H15.5192V9.03277H15.7604ZM15.7604 9.27837V9.52398H15.5192V9.27837H15.7604ZM15.7604 9.52398V9.76958H15.5192V9.52398H15.7604ZM15.7604 9.76958V10.0152H15.5192V9.76958H15.7604ZM16.0017 9.52398V9.76958H15.7604V9.52398H16.0017ZM16.0017 9.27837V9.52398H15.7604V9.27837H16.0017ZM17.9314 8.29593V8.54153H17.6902V8.29593H17.9314ZM17.9314 7.3135V7.55911H17.6902V7.3135H17.9314ZM17.9314 7.55911V7.80471H17.6902V7.55911H17.9314ZM18.1726 7.55911V7.80471H17.9314V7.55911H18.1726ZM18.4139 7.80471V8.05032H18.1726V7.80471H18.4139ZM18.1726 8.05032V8.29593H17.9314V8.05032H18.1726ZM18.1726 7.80471V8.05032H17.9314V7.80471H18.1726ZM17.9314 7.80471V8.05032H17.6902V7.80471H17.9314ZM17.6902 7.80471V8.05032H17.449V7.80471H17.6902ZM17.6902 8.05032V8.29593H17.449V8.05032H17.6902ZM17.9314 8.05032V8.29593H17.6902V8.05032H17.9314ZM17.6902 8.29593V8.54153H17.449V8.29593H17.6902ZM17.449 8.05032V8.29593H17.2078V8.05032H17.449ZM17.449 7.80471V8.05032H17.2078V7.80471H17.449ZM17.449 7.55911V7.80471H17.2078V7.55911H17.449ZM17.449 7.3135V7.55911H17.2078V7.3135H17.449ZM17.6902 7.3135V7.55911H17.449V7.3135H17.6902ZM17.6902 7.55911V7.80471H17.449V7.55911H17.6902ZM17.2078 7.3135V7.55911H16.9665V7.3135H17.2078ZM17.2078 7.55911V7.80471H16.9665V7.55911H17.2078ZM17.2078 7.80471V8.05032H16.9665V7.80471H17.2078ZM17.2078 8.05032V8.29593H16.9665V8.05032H17.2078ZM16.9665 7.3135V7.55911H16.7253V7.3135H16.9665ZM16.9665 7.55911V7.80471H16.7253V7.55911H16.9665ZM16.7253 7.55911V7.80471H16.4841V7.55911H16.7253ZM16.7253 7.80471V8.05032H16.4841V7.80471H16.7253ZM16.4841 7.80471V8.05032H16.2429V7.80471H16.4841ZM16.4841 8.05032V8.29593H16.2429V8.05032H16.4841ZM16.7253 8.05032V8.29593H16.4841V8.05032H16.7253ZM16.9665 8.05032V8.29593H16.7253V8.05032H16.9665ZM16.9665 7.80471V8.05032H16.7253V7.80471H16.9665ZM16.4841 8.29593V8.54153H16.2429V8.29593H16.4841ZM16.7253 7.3135V7.55911H16.4841V7.3135H16.7253ZM16.4841 7.55911V7.80471H16.2429V7.55911H16.4841ZM17.449 8.29593V8.54153H17.2078V8.29593H17.449ZM17.6902 8.54153V8.78714H17.449V8.54153H17.6902Z" fill="#0C0C0C"/>
<path d="M0.308594 17.937H43.0215C43.9433 17.937 44.6905 18.6978 44.6905 19.6363V33.986C44.6905 34.9245 43.9433 35.6853 43.0215 35.6853H1.97755C1.05581 35.6853 0.308594 34.9245 0.308594 33.986V17.937Z" fill="#31E7C3" stroke="#0C0C0C" stroke-width="2"/>
<path d="M22.1914 22.1538V17.6223" stroke="#0C0C0C" stroke-width="2"/>
<path d="M22.1914 36V31.4685" stroke="#0C0C0C" stroke-width="2"/>
<path d="M4.18556 28.957V29.2027H3.94434V28.957H4.18556ZM4.18556 28.7115V28.957H3.94434V28.7115H4.18556ZM4.18556 28.4658V28.7115H3.94434V28.4658H4.18556ZM4.18556 28.2204V28.4658H3.94434V28.2204H4.18556ZM4.18556 27.9747V28.2204H3.94434V27.9747H4.18556ZM4.18556 27.729V27.9747H3.94434V27.729H4.18556ZM4.18556 27.4835V27.729H3.94434V27.4835H4.18556ZM4.18556 27.2378V27.4835H3.94434V27.2378H4.18556ZM4.18556 26.9923V27.2378H3.94434V26.9923H4.18556ZM4.18556 26.7466V26.9923H3.94434V26.7466H4.18556ZM4.18556 26.5009V26.7466H3.94434V26.5009H4.18556ZM4.18556 26.2555V26.5009H3.94434V26.2555H4.18556ZM4.18556 26.0098V26.2555H3.94434V26.0098H4.18556ZM4.18556 25.7641V26.0098H3.94434V25.7641H4.18556ZM4.18556 25.5186V25.7641H3.94434V25.5186H4.18556ZM4.42678 25.5186V25.7641H4.18556V25.5186H4.42678ZM4.42678 25.7641V26.0098H4.18556V25.7641H4.42678ZM4.42678 26.0098V26.2555H4.18556V26.0098H4.42678ZM4.42678 26.2555V26.5009H4.18556V26.2555H4.42678ZM4.42678 26.5009V26.7466H4.18556V26.5009H4.42678ZM4.42678 26.7466V26.9923H4.18556V26.7466H4.42678ZM4.42678 26.9923V27.2378H4.18556V26.9923H4.42678ZM4.668 27.2378V27.4835H4.42678V27.2378H4.668ZM4.668 27.4835V27.729H4.42678V27.4835H4.668ZM4.668 27.729V27.9747H4.42678V27.729H4.668ZM4.668 27.9747V28.2204H4.42678V27.9747H4.668ZM4.668 28.2204V28.4658H4.42678V28.2204H4.668ZM4.668 28.4658V28.7115H4.42678V28.4658H4.668ZM4.668 28.7115V28.957H4.42678V28.7115H4.668ZM4.668 28.957V29.2027H4.42678V28.957H4.668ZM4.90924 28.957V29.2027H4.668V28.957H4.90924ZM5.15046 28.957V29.2027H4.90924V28.957H5.15046ZM5.15046 28.7115V28.957H4.90924V28.7115H5.15046ZM5.15046 28.4658V28.7115H4.90924V28.4658H5.15046ZM5.15046 28.2204V28.4658H4.90924V28.2204H5.15046ZM5.15046 27.9747V28.2204H4.90924V27.9747H5.15046ZM5.15046 27.729V27.9747H4.90924V27.729H5.15046ZM5.15046 27.4835V27.729H4.90924V27.4835H5.15046ZM5.15046 27.2378V27.4835H4.90924V27.2378H5.15046ZM4.90924 27.2378V27.4835H4.668V27.2378H4.90924ZM4.90924 26.9923V27.2378H4.668V26.9923H4.90924ZM4.90924 27.4835V27.729H4.668V27.4835H4.90924ZM4.90924 27.729V27.9747H4.668V27.729H4.90924ZM4.90924 27.9747V28.2204H4.668V27.9747H4.90924ZM4.90924 28.2204V28.4658H4.668V28.2204H4.90924ZM4.90924 28.4658V28.7115H4.668V28.4658H4.90924ZM4.90924 28.7115V28.957H4.668V28.7115H4.90924ZM4.42678 28.957V29.2027H4.18556V28.957H4.42678ZM4.42678 28.7115V28.957H4.18556V28.7115H4.42678ZM4.42678 28.4658V28.7115H4.18556V28.4658H4.42678ZM4.42678 28.2204V28.4658H4.18556V28.2204H4.42678ZM4.42678 27.9747V28.2204H4.18556V27.9747H4.42678ZM4.42678 27.729V27.9747H4.18556V27.729H4.42678ZM4.42678 27.4835V27.729H4.18556V27.4835H4.42678ZM4.42678 27.2378V27.4835H4.18556V27.2378H4.42678ZM4.18556 23.0625V23.3081H3.94434V23.0625H4.18556ZM4.18556 23.3081V23.5537H3.94434V23.3081H4.18556ZM4.18556 23.5537V23.7993H3.94434V23.5537H4.18556ZM4.18556 23.7993V24.0449H3.94434V23.7993H4.18556ZM4.18556 24.0449V24.2905H3.94434V24.0449H4.18556ZM4.18556 24.2905V24.5361H3.94434V24.2905H4.18556ZM4.18556 24.5361V24.7817H3.94434V24.5361H4.18556ZM4.18556 24.7817V25.0273H3.94434V24.7817H4.18556ZM4.18556 25.0273V25.2729H3.94434V25.0273H4.18556ZM4.18556 25.2729V25.5186H3.94434V25.2729H4.18556ZM4.90924 23.0625V23.3081H4.668V23.0625H4.90924ZM4.90924 23.3081V23.5537H4.668V23.3081H4.90924ZM4.90924 23.5537V23.7993H4.668V23.5537H4.90924ZM4.90924 23.7993V24.0449H4.668V23.7993H4.90924ZM4.90924 24.0449V24.2905H4.668V24.0449H4.90924ZM4.90924 24.2905V24.5361H4.668V24.2905H4.90924ZM4.90924 24.7817V25.0273H4.668V24.7817H4.90924ZM4.90924 25.0273V25.2729H4.668V25.0273H4.90924ZM4.90924 25.2729V25.5186H4.668V25.2729H4.90924ZM4.90924 25.5186V25.7641H4.668V25.5186H4.90924ZM4.90924 25.7641V26.0098H4.668V25.7641H4.90924ZM4.90924 26.0098V26.2555H4.668V26.0098H4.90924ZM4.90924 26.2555V26.5009H4.668V26.2555H4.90924ZM5.15046 26.5009V26.7466H4.90924V26.5009H5.15046ZM5.15046 26.7466V26.9923H4.90924V26.7466H5.15046ZM5.15046 26.9923V27.2378H4.90924V26.9923H5.15046ZM5.15046 26.2555V26.5009H4.90924V26.2555H5.15046ZM5.15046 26.0098V26.2555H4.90924V26.0098H5.15046ZM5.15046 25.7641V26.0098H4.90924V25.7641H5.15046ZM5.15046 25.5186V25.7641H4.90924V25.5186H5.15046ZM5.15046 25.2729V25.5186H4.90924V25.2729H5.15046ZM5.15046 25.0273V25.2729H4.90924V25.0273H5.15046ZM5.15046 24.7817V25.0273H4.90924V24.7817H5.15046ZM5.15046 24.5361V24.7817H4.90924V24.5361H5.15046ZM5.15046 24.2905V24.5361H4.90924V24.2905H5.15046ZM5.15046 24.0449V24.2905H4.90924V24.0449H5.15046ZM4.90924 24.5361V24.7817H4.668V24.5361H4.90924ZM5.15046 23.7993V24.0449H4.90924V23.7993H5.15046ZM5.15046 23.5537V23.7993H4.90924V23.5537H5.15046ZM5.15046 23.3081V23.5537H4.90924V23.3081H5.15046ZM5.15046 23.0625V23.3081H4.90924V23.0625H5.15046ZM4.668 23.0625V23.3081H4.42678V23.0625H4.668ZM4.42678 23.0625V23.3081H4.18556V23.0625H4.42678ZM4.42678 23.3081V23.5537H4.18556V23.3081H4.42678ZM4.668 23.3081V23.5537H4.42678V23.3081H4.668ZM4.668 23.5537V23.7993H4.42678V23.5537H4.668ZM4.668 23.7993V24.0449H4.42678V23.7993H4.668ZM4.668 24.0449V24.2905H4.42678V24.0449H4.668ZM4.668 24.2905V24.5361H4.42678V24.2905H4.668ZM4.668 24.5361V24.7817H4.42678V24.5361H4.668ZM4.668 24.7817V25.0273H4.42678V24.7817H4.668ZM4.42678 25.0273V25.2729H4.18556V25.0273H4.42678ZM4.42678 25.2729V25.5186H4.18556V25.2729H4.42678ZM4.42678 24.7817V25.0273H4.18556V24.7817H4.42678ZM4.42678 24.5361V24.7817H4.18556V24.5361H4.42678ZM4.42678 24.2905V24.5361H4.18556V24.2905H4.42678ZM4.42678 24.0449V24.2905H4.18556V24.0449H4.42678ZM4.42678 23.7993V24.0449H4.18556V23.7993H4.42678ZM4.42678 23.5537V23.7993H4.18556V23.5537H4.42678ZM4.668 25.0273V25.2729H4.42678V25.0273H4.668ZM4.668 25.2729V25.5186H4.42678V25.2729H4.668ZM4.668 25.5186V25.7641H4.42678V25.5186H4.668ZM4.668 25.7641V26.0098H4.42678V25.7641H4.668ZM4.668 26.0098V26.2555H4.42678V26.0098H4.668ZM4.668 26.2555V26.5009H4.42678V26.2555H4.668ZM4.668 26.5009V26.7466H4.42678V26.5009H4.668ZM4.668 26.7466V26.9923H4.42678V26.7466H4.668ZM4.668 26.9923V27.2378H4.42678V26.9923H4.668ZM4.90924 26.7466V26.9923H4.668V26.7466H4.90924ZM4.90924 26.5009V26.7466H4.668V26.5009H4.90924ZM8.76878 23.0625V23.3081H8.52756V23.0625H8.76878ZM8.76878 23.3081V23.5537H8.52756V23.3081H8.76878ZM8.76878 23.5537V23.7993H8.52756V23.5537H8.76878ZM8.76878 24.0449V24.2905H8.52756V24.0449H8.76878ZM8.76878 24.2905V24.5361H8.52756V24.2905H8.76878ZM8.76878 24.5361V24.7817H8.52756V24.5361H8.76878ZM8.76878 24.7817V25.0273H8.52756V24.7817H8.76878ZM8.76878 25.0273V25.2729H8.52756V25.0273H8.76878ZM8.76878 25.2729V25.5186H8.52756V25.2729H8.76878ZM8.76878 25.5186V25.7641H8.52756V25.5186H8.76878ZM9.01 25.7641V26.0098H8.76878V25.7641H9.01ZM9.01 26.0098V26.2555H8.76878V26.0098H9.01ZM9.01 26.2555V26.5009H8.76878V26.2555H9.01ZM9.01 26.5009V26.7466H8.76878V26.5009H9.01ZM9.01 26.7466V26.9923H8.76878V26.7466H9.01ZM9.01 26.9923V27.2378H8.76878V26.9923H9.01ZM9.25122 26.9923V27.2378H9.01V26.9923H9.25122ZM9.25122 27.2378V27.4835H9.01V27.2378H9.25122ZM9.25122 27.4835V27.729H9.01V27.4835H9.25122ZM9.25122 27.729V27.9747H9.01V27.729H9.25122ZM9.25122 27.9747V28.2204H9.01V27.9747H9.25122ZM9.25122 28.2204V28.4658H9.01V28.2204H9.25122ZM9.25122 28.4658V28.7115H9.01V28.4658H9.25122ZM9.25122 28.7115V28.957H9.01V28.7115H9.25122ZM9.25122 28.957V29.2027H9.01V28.957H9.25122ZM9.01 28.957V29.2027H8.76878V28.957H9.01ZM9.01 28.7115V28.957H8.76878V28.7115H9.01ZM9.01 28.4658V28.7115H8.76878V28.4658H9.01ZM9.01 28.2204V28.4658H8.76878V28.2204H9.01ZM9.01 27.9747V28.2204H8.76878V27.9747H9.01ZM9.01 27.729V27.9747H8.76878V27.729H9.01ZM9.01 27.4835V27.729H8.76878V27.4835H9.01ZM8.76878 27.4835V27.729H8.52756V27.4835H8.76878ZM8.76878 27.2378V27.4835H8.52756V27.2378H8.76878ZM9.01 27.2378V27.4835H8.76878V27.2378H9.01ZM8.76878 25.7641V26.0098H8.52756V25.7641H8.76878ZM8.76878 26.0098V26.2555H8.52756V26.0098H8.76878ZM8.76878 26.2555V26.5009H8.52756V26.2555H8.76878ZM8.76878 26.5009V26.7466H8.52756V26.5009H8.76878ZM8.76878 26.7466V26.9923H8.52756V26.7466H8.76878ZM8.76878 26.9923V27.2378H8.52756V26.9923H8.76878ZM8.76878 23.7993V24.0449H8.52756V23.7993H8.76878ZM8.76878 27.729V27.9747H8.52756V27.729H8.76878ZM8.76878 27.9747V28.2204H8.52756V27.9747H8.76878ZM8.76878 28.2204V28.4658H8.52756V28.2204H8.76878ZM8.76878 28.4658V28.7115H8.52756V28.4658H8.76878ZM8.76878 28.7115V28.957H8.52756V28.7115H8.76878ZM8.76878 28.957V29.2027H8.52756V28.957H8.76878ZM9.49244 28.957V29.2027H9.25122V28.957H9.49244ZM9.73368 28.957V29.2027H9.49244V28.957H9.73368ZM9.73368 28.7115V28.957H9.49244V28.7115H9.73368ZM9.73368 28.4658V28.7115H9.49244V28.4658H9.73368ZM9.73368 28.2204V28.4658H9.49244V28.2204H9.73368ZM9.73368 27.9747V28.2204H9.49244V27.9747H9.73368ZM9.73368 27.729V27.9747H9.49244V27.729H9.73368ZM9.73368 27.4835V27.729H9.49244V27.4835H9.73368ZM9.73368 27.2378V27.4835H9.49244V27.2378H9.73368ZM9.73368 26.9923V27.2378H9.49244V26.9923H9.73368ZM9.73368 26.7466V26.9923H9.49244V26.7466H9.73368ZM9.73368 26.5009V26.7466H9.49244V26.5009H9.73368ZM9.73368 26.2555V26.5009H9.49244V26.2555H9.73368ZM9.73368 26.0098V26.2555H9.49244V26.0098H9.73368ZM9.73368 25.7641V26.0098H9.49244V25.7641H9.73368ZM9.73368 25.5186V25.7641H9.49244V25.5186H9.73368ZM9.73368 25.2729V25.5186H9.49244V25.2729H9.73368ZM9.73368 25.0273V25.2729H9.49244V25.0273H9.73368ZM9.73368 24.7817V25.0273H9.49244V24.7817H9.73368ZM9.73368 24.5361V24.7817H9.49244V24.5361H9.73368ZM9.01 23.0625V23.3081H8.76878V23.0625H9.01ZM9.25122 23.0625V23.3081H9.01V23.0625H9.25122ZM9.49244 23.0625V23.3081H9.25122V23.0625H9.49244ZM9.73368 23.0625V23.3081H9.49244V23.0625H9.73368ZM9.73368 23.3081V23.5537H9.49244V23.3081H9.73368ZM9.73368 23.5537V23.7993H9.49244V23.5537H9.73368ZM9.73368 23.7993V24.0449H9.49244V23.7993H9.73368ZM9.73368 24.0449V24.2905H9.49244V24.0449H9.73368ZM9.73368 24.2905V24.5361H9.49244V24.2905H9.73368ZM9.01 23.3081V23.5537H8.76878V23.3081H9.01ZM9.25122 23.3081V23.5537H9.01V23.3081H9.25122ZM9.49244 23.3081V23.5537H9.25122V23.3081H9.49244ZM9.49244 23.5537V23.7993H9.25122V23.5537H9.49244ZM9.49244 23.7993V24.0449H9.25122V23.7993H9.49244ZM9.49244 24.0449V24.2905H9.25122V24.0449H9.49244ZM9.49244 24.2905V24.5361H9.25122V24.2905H9.49244ZM9.25122 24.2905V24.5361H9.01V24.2905H9.25122ZM9.25122 24.0449V24.2905H9.01V24.0449H9.25122ZM9.25122 23.7993V24.0449H9.01V23.7993H9.25122ZM9.25122 23.5537V23.7993H9.01V23.5537H9.25122ZM9.01 23.5537V23.7993H8.76878V23.5537H9.01ZM9.01 23.7993V24.0449H8.76878V23.7993H9.01ZM9.01 24.0449V24.2905H8.76878V24.0449H9.01ZM9.01 24.2905V24.5361H8.76878V24.2905H9.01ZM9.01 24.5361V24.7817H8.76878V24.5361H9.01ZM9.01 24.7817V25.0273H8.76878V24.7817H9.01ZM9.01 25.0273V25.2729H8.76878V25.0273H9.01ZM9.01 25.2729V25.5186H8.76878V25.2729H9.01ZM9.25122 25.2729V25.5186H9.01V25.2729H9.25122ZM9.25122 25.0273V25.2729H9.01V25.0273H9.25122ZM9.25122 24.7817V25.0273H9.01V24.7817H9.25122ZM9.25122 24.5361V24.7817H9.01V24.5361H9.25122ZM9.49244 24.5361V24.7817H9.25122V24.5361H9.49244ZM9.49244 24.7817V25.0273H9.25122V24.7817H9.49244ZM9.49244 25.0273V25.2729H9.25122V25.0273H9.49244ZM9.49244 25.2729V25.5186H9.25122V25.2729H9.49244ZM9.49244 25.5186V25.7641H9.25122V25.5186H9.49244ZM9.49244 25.7641V26.0098H9.25122V25.7641H9.49244ZM9.49244 26.0098V26.2555H9.25122V26.0098H9.49244ZM9.49244 26.2555V26.5009H9.25122V26.2555H9.49244ZM9.49244 26.5009V26.7466H9.25122V26.5009H9.49244ZM9.49244 26.7466V26.9923H9.25122V26.7466H9.49244ZM9.25122 26.7466V26.9923H9.01V26.7466H9.25122ZM9.25122 26.5009V26.7466H9.01V26.5009H9.25122ZM9.25122 26.2555V26.5009H9.01V26.2555H9.25122ZM9.25122 26.0098V26.2555H9.01V26.0098H9.25122ZM9.25122 25.7641V26.0098H9.01V25.7641H9.25122ZM9.01 25.5186V25.7641H8.76878V25.5186H9.01ZM9.25122 25.5186V25.7641H9.01V25.5186H9.25122ZM9.49244 26.9923V27.2378H9.25122V26.9923H9.49244ZM9.49244 27.2378V27.4835H9.25122V27.2378H9.49244ZM9.49244 27.4835V27.729H9.25122V27.4835H9.49244ZM9.49244 27.729V27.9747H9.25122V27.729H9.49244ZM9.49244 27.9747V28.2204H9.25122V27.9747H9.49244ZM9.49244 28.2204V28.4658H9.25122V28.2204H9.49244ZM9.49244 28.4658V28.7115H9.25122V28.4658H9.49244ZM9.49244 28.7115V28.957H9.25122V28.7115H9.49244ZM6.839 26.0098V26.2555H6.59778V26.0098H6.839ZM6.839 25.7641V26.0098H6.59778V25.7641H6.839ZM6.839 25.5186V25.7641H6.59778V25.5186H6.839ZM6.839 25.2729V25.5186H6.59778V25.2729H6.839ZM6.839 25.0273V25.2729H6.59778V25.0273H6.839ZM6.839 24.7817V25.0273H6.59778V24.7817H6.839ZM6.839 26.2555V26.5009H6.59778V26.2555H6.839ZM7.32146 24.5361V24.7817H7.08022V24.5361H7.32146ZM7.56268 24.2905V24.5361H7.32146V24.2905H7.56268ZM7.8039 24.0449V24.2905H7.56268V24.0449H7.8039ZM8.04512 23.7993V24.0449H7.8039V23.7993H8.04512ZM6.59778 24.5361V24.7817H6.35656V24.5361H6.59778ZM6.35656 24.2905V24.5361H6.11534V24.2905H6.35656ZM6.11534 24.0449V24.2905H5.87412V24.0449H6.11534ZM5.87412 23.7993V24.0449H5.6329V23.7993H5.87412ZM7.32146 26.0098V26.2555H7.08022V26.0098H7.32146ZM7.56268 25.7641V26.0098H7.32146V25.7641H7.56268ZM7.8039 25.5186V25.7641H7.56268V25.5186H7.8039ZM8.04512 25.2729V25.5186H7.8039V25.2729H8.04512ZM6.59778 26.0098V26.2555H6.35656V26.0098H6.59778ZM6.35656 25.7641V26.0098H6.11534V25.7641H6.35656ZM6.11534 25.5186V25.7641H5.87412V25.5186H6.11534ZM5.87412 25.2729V25.5186H5.6329V25.2729H5.87412ZM5.39168 23.3081V23.5537H5.15046V23.3081H5.39168ZM5.6329 23.5537V23.7993H5.39168V23.5537H5.6329ZM8.28634 23.5537V23.7993H8.04512V23.5537H8.28634ZM8.52756 23.3081V23.5537H8.28634V23.3081H8.52756ZM5.6329 24.2905V24.5361H5.39168V24.2905H5.6329ZM5.6329 25.0273V25.2729H5.39168V25.0273H5.6329ZM5.6329 24.7817V25.0273H5.39168V24.7817H5.6329ZM5.39168 24.7817V25.0273H5.15046V24.7817H5.39168ZM8.28634 25.0273V25.2729H8.04512V25.0273H8.28634ZM8.52756 24.7817V25.0273H8.28634V24.7817H8.52756ZM8.52756 24.5361V24.7817H8.28634V24.5361H8.52756ZM8.52756 24.2905V24.5361H8.28634V24.2905H8.52756ZM8.52756 24.0449V24.2905H8.28634V24.0449H8.52756ZM8.52756 23.7993V24.0449H8.28634V23.7993H8.52756ZM8.52756 23.5537V23.7993H8.28634V23.5537H8.52756ZM8.28634 23.7993V24.0449H8.04512V23.7993H8.28634ZM8.28634 24.0449V24.2905H8.04512V24.0449H8.28634ZM8.28634 24.2905V24.5361H8.04512V24.2905H8.28634ZM8.28634 24.5361V24.7817H8.04512V24.5361H8.28634ZM8.28634 24.7817V25.0273H8.04512V24.7817H8.28634ZM8.04512 24.0449V24.2905H7.8039V24.0449H8.04512ZM8.04512 24.2905V24.5361H7.8039V24.2905H8.04512ZM8.04512 24.5361V24.7817H7.8039V24.5361H8.04512ZM8.04512 24.7817V25.0273H7.8039V24.7817H8.04512ZM8.04512 25.0273V25.2729H7.8039V25.0273H8.04512ZM7.8039 24.2905V24.5361H7.56268V24.2905H7.8039ZM7.8039 24.5361V24.7817H7.56268V24.5361H7.8039ZM7.8039 24.7817V25.0273H7.56268V24.7817H7.8039ZM7.8039 25.0273V25.2729H7.56268V25.0273H7.8039ZM7.8039 25.2729V25.5186H7.56268V25.2729H7.8039ZM7.56268 24.5361V24.7817H7.32146V24.5361H7.56268ZM7.56268 24.7817V25.0273H7.32146V24.7817H7.56268ZM7.56268 25.0273V25.2729H7.32146V25.0273H7.56268ZM7.56268 25.2729V25.5186H7.32146V25.2729H7.56268ZM7.56268 25.5186V25.7641H7.32146V25.5186H7.56268ZM7.32146 24.7817V25.0273H7.08022V24.7817H7.32146ZM7.32146 25.0273V25.2729H7.08022V25.0273H7.32146ZM7.32146 25.2729V25.5186H7.08022V25.2729H7.32146ZM7.32146 25.5186V25.7641H7.08022V25.5186H7.32146ZM7.32146 25.7641V26.0098H7.08022V25.7641H7.32146ZM6.59778 25.7641V26.0098H6.35656V25.7641H6.59778ZM6.59778 25.5186V25.7641H6.35656V25.5186H6.59778ZM6.35656 25.5186V25.7641H6.11534V25.5186H6.35656ZM6.35656 25.2729V25.5186H6.11534V25.2729H6.35656ZM6.11534 25.2729V25.5186H5.87412V25.2729H6.11534ZM6.11534 25.0273V25.2729H5.87412V25.0273H6.11534ZM5.87412 25.0273V25.2729H5.6329V25.0273H5.87412ZM5.87412 24.7817V25.0273H5.6329V24.7817H5.87412ZM5.6329 24.5361V24.7817H5.39168V24.5361H5.6329ZM5.39168 24.5361V24.7817H5.15046V24.5361H5.39168ZM5.39168 24.2905V24.5361H5.15046V24.2905H5.39168ZM5.39168 24.0449V24.2905H5.15046V24.0449H5.39168ZM5.39168 23.7993V24.0449H5.15046V23.7993H5.39168ZM5.39168 23.5537V23.7993H5.15046V23.5537H5.39168ZM5.6329 23.7993V24.0449H5.39168V23.7993H5.6329ZM5.6329 24.0449V24.2905H5.39168V24.0449H5.6329ZM5.87412 24.0449V24.2905H5.6329V24.0449H5.87412ZM5.87412 24.2905V24.5361H5.6329V24.2905H5.87412ZM6.11534 24.2905V24.5361H5.87412V24.2905H6.11534ZM6.11534 24.5361V24.7817H5.87412V24.5361H6.11534ZM6.35656 24.5361V24.7817H6.11534V24.5361H6.35656ZM6.35656 24.7817V25.0273H6.11534V24.7817H6.35656ZM6.59778 24.7817V25.0273H6.35656V24.7817H6.59778ZM6.59778 25.0273V25.2729H6.35656V25.0273H6.59778ZM6.59778 25.2729V25.5186H6.35656V25.2729H6.59778ZM6.35656 25.0273V25.2729H6.11534V25.0273H6.35656ZM6.11534 24.7817V25.0273H5.87412V24.7817H6.11534ZM5.87412 24.5361V24.7817H5.6329V24.5361H5.87412ZM7.08022 24.7817V25.0273H6.839V24.7817H7.08022ZM7.08022 25.0273V25.2729H6.839V25.0273H7.08022ZM7.08022 25.2729V25.5186H6.839V25.2729H7.08022ZM7.08022 25.5186V25.7641H6.839V25.5186H7.08022ZM7.08022 25.7641V26.0098H6.839V25.7641H7.08022ZM7.08022 26.0098V26.2555H6.839V26.0098H7.08022ZM7.08022 26.2555V26.5009H6.839V26.2555H7.08022ZM13.3972 27.729V27.4835H13.6384V27.729H13.3972ZM13.156 27.729V27.4835H13.3972V27.729H13.156ZM12.9147 27.729V27.4835H13.156V27.729H12.9147ZM12.6735 27.729V27.4835H12.9147V27.729H12.6735ZM12.4323 27.729V27.4835H12.6735V27.729H12.4323ZM12.4323 27.9747V27.729H12.6735V27.9747H12.4323ZM12.4323 28.2204V27.9747H12.6735V28.2204H12.4323ZM12.6735 28.2204V27.9747H12.9147V28.2204H12.6735ZM12.9147 28.2204V27.9747H13.156V28.2204H12.9147ZM13.156 28.2204V27.9747H13.3972V28.2204H13.156ZM13.156 27.9747V27.729H13.3972V27.9747H13.156ZM13.3972 27.9747V27.729H13.6384V27.9747H13.3972ZM12.9147 27.9747V27.729H13.156V27.9747H12.9147ZM12.6735 27.9747V27.729H12.9147V27.9747H12.6735ZM13.3972 28.2204V27.9747H13.6384V28.2204H13.3972ZM13.6384 28.2204V27.9747H13.8796V28.2204H13.6384ZM13.6384 28.4658V28.2204H13.8796V28.4658H13.6384ZM13.3972 28.4658V28.2204H13.6384V28.4658H13.3972ZM13.156 28.4658V28.2204H13.3972V28.4658H13.156ZM12.9147 28.4658V28.2204H13.156V28.4658H12.9147ZM12.6735 28.4658V28.2204H12.9147V28.4658H12.6735ZM12.6735 28.7115V28.4658H12.9147V28.7115H12.6735ZM12.9147 28.7115V28.4658H13.156V28.7115H12.9147ZM13.156 28.7115V28.4658H13.3972V28.7115H13.156ZM13.3972 28.7115V28.4658H13.6384V28.7115H13.3972ZM13.6384 28.7115V28.4658H13.8796V28.7115H13.6384ZM13.156 28.957V28.7115H13.3972V28.957H13.156ZM12.9147 28.957V28.7115H13.156V28.957H12.9147ZM13.3972 28.957V28.7115H13.6384V28.957H13.3972ZM13.3972 29.2027V28.957H13.6384V29.2027H13.3972ZM13.6384 29.2027V28.957H13.8796V29.2027H13.6384ZM13.6384 28.957V28.7115H13.8796V28.957H13.6384ZM13.8796 28.957V28.7115H14.1209V28.957H13.8796ZM13.8796 29.2027V28.957H14.1209V29.2027H13.8796ZM13.8796 28.7115V28.4658H14.1209V28.7115H13.8796ZM14.1209 28.7115V28.4658H14.3621V28.7115H14.1209ZM14.1209 28.4658V28.2204H14.3621V28.4658H14.1209ZM13.8796 28.4658V28.2204H14.1209V28.4658H13.8796ZM14.3621 28.4658V28.2204H14.6033V28.4658H14.3621ZM14.3621 28.7115V28.4658H14.6033V28.7115H14.3621ZM14.3621 28.957V28.7115H14.6033V28.957H14.3621ZM14.3621 29.2027V28.957H14.6033V29.2027H14.3621ZM14.1209 29.2027V28.957H14.3621V29.2027H14.1209ZM14.1209 28.957V28.7115H14.3621V28.957H14.1209ZM14.6033 29.2027V28.957H14.8445V29.2027H14.6033ZM15.0857 28.957V28.7115H15.327V28.957H15.0857ZM15.0857 28.7115V28.4658H15.327V28.7115H15.0857ZM15.0857 28.4658V28.2204H15.327V28.4658H15.0857ZM14.8445 28.4658V28.2204H15.0857V28.4658H14.8445ZM14.6033 28.4658V28.2204H14.8445V28.4658H14.6033ZM14.6033 28.7115V28.4658H14.8445V28.7115H14.6033ZM14.6033 28.957V28.7115H14.8445V28.957H14.6033ZM14.8445 28.957V28.7115H15.0857V28.957H14.8445ZM14.8445 28.7115V28.4658H15.0857V28.7115H14.8445ZM15.327 28.7115V28.4658H15.5682V28.7115H15.327ZM15.327 28.957V28.7115H15.5682V28.957H15.327ZM15.5682 28.957V28.7115H15.8094V28.957H15.5682ZM15.5682 28.7115V28.4658H15.8094V28.7115H15.5682ZM15.8094 28.7115V28.4658H16.0506V28.7115H15.8094ZM15.8094 28.4658V28.2204H16.0506V28.4658H15.8094ZM15.8094 28.2204V27.9747H16.0506V28.2204H15.8094ZM15.5682 28.2204V27.9747H15.8094V28.2204H15.5682ZM15.5682 28.4658V28.2204H15.8094V28.4658H15.5682ZM15.327 28.4658V28.2204H15.5682V28.4658H15.327ZM15.327 28.2204V27.9747H15.5682V28.2204H15.327ZM15.0857 28.2204V27.9747H15.327V28.2204H15.0857ZM16.0506 28.2204V27.9747H16.2919V28.2204H16.0506ZM16.0506 27.9747V27.729H16.2919V27.9747H16.0506ZM16.0506 27.729V27.4835H16.2919V27.729H16.0506ZM16.0506 27.4835V27.2378H16.2919V27.4835H16.0506ZM16.0506 27.2378V26.9923H16.2919V27.2378H16.0506ZM16.0506 26.9923V26.7466H16.2919V26.9923H16.0506ZM16.0506 26.7466V26.5009H16.2919V26.7466H16.0506ZM16.0506 26.5009V26.2555H16.2919V26.5009H16.0506ZM16.0506 26.2555V26.0098H16.2919V26.2555H16.0506ZM16.0506 26.0098V25.7641H16.2919V26.0098H16.0506ZM15.8094 26.0098V25.7641H16.0506V26.0098H15.8094ZM15.8094 25.7641V25.5186H16.0506V25.7641H15.8094ZM16.0506 25.7641V25.5186H16.2919V25.7641H16.0506ZM15.5682 25.7641V25.5186H15.8094V25.7641H15.5682ZM15.327 25.7641V25.5186H15.5682V25.7641H15.327ZM15.0857 25.7641V25.5186H15.327V25.7641H15.0857ZM14.8445 25.7641V25.5186H15.0857V25.7641H14.8445ZM15.0857 26.0098V25.7641H15.327V26.0098H15.0857ZM15.0857 26.2555V26.0098H15.327V26.2555H15.0857ZM15.0857 26.5009V26.2555H15.327V26.5009H15.0857ZM15.0857 26.7466V26.5009H15.327V26.7466H15.0857ZM15.0857 26.9923V26.7466H15.327V26.9923H15.0857ZM15.0857 27.2378V26.9923H15.327V27.2378H15.0857ZM15.0857 27.4835V27.2378H15.327V27.4835H15.0857ZM15.0857 27.729V27.4835H15.327V27.729H15.0857ZM15.0857 27.9747V27.729H15.327V27.9747H15.0857ZM15.327 27.9747V27.729H15.5682V27.9747H15.327ZM15.5682 27.9747V27.729H15.8094V27.9747H15.5682ZM15.8094 27.9747V27.729H16.0506V27.9747H15.8094ZM15.8094 27.729V27.4835H16.0506V27.729H15.8094ZM15.8094 27.4835V27.2378H16.0506V27.4835H15.8094ZM15.8094 27.2378V26.9923H16.0506V27.2378H15.8094ZM15.8094 26.9923V26.7466H16.0506V26.9923H15.8094ZM15.8094 26.7466V26.5009H16.0506V26.7466H15.8094ZM15.8094 26.5009V26.2555H16.0506V26.5009H15.8094ZM15.8094 26.2555V26.0098H16.0506V26.2555H15.8094ZM15.5682 26.0098V25.7641H15.8094V26.0098H15.5682ZM15.327 26.0098V25.7641H15.5682V26.0098H15.327ZM15.327 26.2555V26.0098H15.5682V26.2555H15.327ZM15.327 26.5009V26.2555H15.5682V26.5009H15.327ZM15.327 26.7466V26.5009H15.5682V26.7466H15.327ZM15.327 26.9923V26.7466H15.5682V26.9923H15.327ZM15.5682 26.9923V26.7466H15.8094V26.9923H15.5682ZM15.5682 27.2378V26.9923H15.8094V27.2378H15.5682ZM15.5682 27.4835V27.2378H15.8094V27.4835H15.5682ZM15.5682 27.729V27.4835H15.8094V27.729H15.5682ZM15.327 27.729V27.4835H15.5682V27.729H15.327ZM15.327 27.4835V27.2378H15.5682V27.4835H15.327ZM15.327 27.2378V26.9923H15.5682V27.2378H15.327ZM15.5682 26.5009V26.2555H15.8094V26.5009H15.5682ZM15.5682 26.2555V26.0098H15.8094V26.2555H15.5682ZM15.5682 26.7466V26.5009H15.8094V26.7466H15.5682ZM13.3972 26.0098V25.7641H13.6384V26.0098H13.3972ZM13.156 26.0098V25.7641H13.3972V26.0098H13.156ZM12.9147 26.0098V25.7641H13.156V26.0098H12.9147ZM12.6735 26.0098V25.7641H12.9147V26.0098H12.6735ZM12.4323 26.0098V25.7641H12.6735V26.0098H12.4323ZM12.4323 25.7641V25.5186H12.6735V25.7641H12.4323ZM12.6735 25.7641V25.5186H12.9147V25.7641H12.6735ZM12.9147 25.7641V25.5186H13.156V25.7641H12.9147ZM13.156 25.7641V25.5186H13.3972V25.7641H13.156ZM13.3972 25.7641V25.5186H13.6384V25.7641H13.3972ZM13.6384 25.7641V25.5186H13.8796V25.7641H13.6384ZM13.6384 25.5186V25.2729H13.8796V25.5186H13.6384ZM13.3972 25.5186V25.2729H13.6384V25.5186H13.3972ZM13.156 25.5186V25.2729H13.3972V25.5186H13.156ZM12.9147 25.5186V25.2729H13.156V25.5186H12.9147ZM12.9147 25.2729V25.0273H13.156V25.2729H12.9147ZM12.6735 25.2729V25.0273H12.9147V25.2729H12.6735ZM12.6735 25.5186V25.2729H12.9147V25.5186H12.6735ZM12.9147 25.0273V24.7817H13.156V25.0273H12.9147ZM13.156 25.0273V24.7817H13.3972V25.0273H13.156ZM13.156 25.2729V25.0273H13.3972V25.2729H13.156ZM13.3972 25.2729V25.0273H13.6384V25.2729H13.3972ZM13.3972 25.0273V24.7817H13.6384V25.0273H13.3972ZM13.3972 24.7817V24.5361H13.6384V24.7817H13.3972ZM13.6384 24.7817V24.5361H13.8796V24.7817H13.6384ZM13.8796 24.7817V24.5361H14.1209V24.7817H13.8796ZM14.1209 24.7817V24.5361H14.3621V24.7817H14.1209ZM14.3621 24.7817V24.5361H14.6033V24.7817H14.3621ZM14.6033 24.7817V24.5361H14.8445V24.7817H14.6033ZM14.8445 24.7817V24.5361H15.0857V24.7817H14.8445ZM15.0857 24.7817V24.5361H15.327V24.7817H15.0857ZM14.8445 25.0273V24.7817H15.0857V25.0273H14.8445ZM14.6033 25.0273V24.7817H14.8445V25.0273H14.6033ZM14.3621 25.0273V24.7817H14.6033V25.0273H14.3621ZM14.1209 25.0273V24.7817H14.3621V25.0273H14.1209ZM13.8796 25.0273V24.7817H14.1209V25.0273H13.8796ZM13.6384 25.0273V24.7817H13.8796V25.0273H13.6384ZM13.6384 25.2729V25.0273H13.8796V25.2729H13.6384ZM13.8796 25.2729V25.0273H14.1209V25.2729H13.8796ZM14.1209 25.2729V25.0273H14.3621V25.2729H14.1209ZM14.3621 25.2729V25.0273H14.6033V25.2729H14.3621ZM14.6033 25.2729V25.0273H14.8445V25.2729H14.6033ZM14.8445 25.2729V25.0273H15.0857V25.2729H14.8445ZM15.0857 25.0273V24.7817H15.327V25.0273H15.0857ZM15.327 25.0273V24.7817H15.5682V25.0273H15.327ZM15.5682 25.0273V24.7817H15.8094V25.0273H15.5682ZM15.5682 25.2729V25.0273H15.8094V25.2729H15.5682ZM15.8094 25.2729V25.0273H16.0506V25.2729H15.8094ZM15.8094 25.5186V25.2729H16.0506V25.5186H15.8094ZM15.5682 25.5186V25.2729H15.8094V25.5186H15.5682ZM15.327 25.5186V25.2729H15.5682V25.5186H15.327ZM15.0857 25.5186V25.2729H15.327V25.5186H15.0857ZM14.8445 25.5186V25.2729H15.0857V25.5186H14.8445ZM14.6033 25.5186V25.2729H14.8445V25.5186H14.6033ZM14.3621 25.5186V25.2729H14.6033V25.5186H14.3621ZM14.1209 25.5186V25.2729H14.3621V25.5186H14.1209ZM13.8796 25.5186V25.2729H14.1209V25.5186H13.8796ZM15.0857 25.2729V25.0273H15.327V25.2729H15.0857ZM15.327 25.2729V25.0273H15.5682V25.2729H15.327ZM12.6735 27.4835V27.2378H12.9147V27.4835H12.6735ZM12.9147 27.4835V27.2378H13.156V27.4835H12.9147ZM13.156 27.4835V27.2378H13.3972V27.4835H13.156ZM13.3972 27.4835V27.2378H13.6384V27.4835H13.3972ZM12.9147 27.2378V26.9923H13.156V27.2378H12.9147ZM13.156 27.2378V26.9923H13.3972V27.2378H13.156ZM13.6384 27.2378V26.9923H13.8796V27.2378H13.6384ZM13.8796 27.2378V26.9923H14.1209V27.2378H13.8796ZM14.1209 27.2378V26.9923H14.3621V27.2378H14.1209ZM14.3621 27.2378V26.9923H14.6033V27.2378H14.3621ZM14.6033 27.2378V26.9923H14.8445V27.2378H14.6033ZM14.8445 27.2378V26.9923H15.0857V27.2378H14.8445ZM13.3972 27.2378V26.9923H13.6384V27.2378H13.3972ZM12.6735 27.2378V26.9923H12.9147V27.2378H12.6735ZM12.9147 26.9923V26.7466H13.156V26.9923H12.9147ZM13.156 26.9923V26.7466H13.3972V26.9923H13.156ZM13.3972 26.9923V26.7466H13.6384V26.9923H13.3972ZM13.6384 26.9923V26.7466H13.8796V26.9923H13.6384ZM13.8796 26.9923V26.7466H14.1209V26.9923H13.8796ZM14.1209 26.9923V26.7466H14.3621V26.9923H14.1209ZM14.3621 26.9923V26.7466H14.6033V26.9923H14.3621ZM14.6033 26.9923V26.7466H14.8445V26.9923H14.6033ZM14.8445 26.9923V26.7466H15.0857V26.9923H14.8445ZM14.8445 26.7466V26.5009H15.0857V26.7466H14.8445ZM14.6033 26.7466V26.5009H14.8445V26.7466H14.6033ZM14.3621 26.7466V26.5009H14.6033V26.7466H14.3621ZM13.8796 26.7466V26.5009H14.1209V26.7466H13.8796ZM13.6384 26.7466V26.5009H13.8796V26.7466H13.6384ZM13.3972 26.7466V26.5009H13.6384V26.7466H13.3972ZM14.1209 26.7466V26.5009H14.3621V26.7466H14.1209ZM16.2919 28.2204V28.4658H16.0506V28.2204H16.2919ZM16.2919 28.4658V28.7115H16.0506V28.4658H16.2919ZM16.2919 28.7115V28.957H16.0506V28.7115H16.2919ZM16.2919 28.957V29.2027H16.0506V28.957H16.2919ZM16.0506 28.957V29.2027H15.8094V28.957H16.0506ZM16.0506 28.7115V28.957H15.8094V28.7115H16.0506ZM15.8094 28.957V29.2027H15.5682V28.957H15.8094ZM15.5682 28.957V29.2027H15.327V28.957H15.5682ZM15.327 28.957V29.2027H15.0857V28.957H15.327ZM15.0857 27.9747V28.2204H14.8445V27.9747H15.0857ZM13.3972 28.957V29.2027H13.156V28.957H13.3972ZM13.8796 27.2378V27.4835H13.6384V27.2378H13.8796ZM22.6163 25.5186V25.7641H22.3751V25.5186H22.6163ZM22.3751 25.5186V25.7641H22.1339V25.5186H22.3751ZM22.1339 25.5186V25.7641H21.8927V25.5186H22.1339ZM21.8927 25.5186V25.7641H21.6515V25.5186H21.8927ZM21.6515 25.2729V25.5186H21.4102V25.2729H21.6515ZM21.8927 25.2729V25.5186H21.6515V25.2729H21.8927ZM22.1339 25.2729V25.5186H21.8927V25.2729H22.1339ZM22.3751 25.2729V25.5186H22.1339V25.2729H22.3751ZM22.6163 25.2729V25.5186H22.3751V25.2729H22.6163ZM22.6163 25.0273V25.2729H22.3751V25.0273H22.6163ZM22.3751 25.0273V25.2729H22.1339V25.0273H22.3751ZM22.1339 25.0273V25.2729H21.8927V25.0273H22.1339ZM21.8927 25.0273V25.2729H21.6515V25.0273H21.8927ZM21.6515 25.0273V25.2729H21.4102V25.0273H21.6515ZM22.1339 24.7817V25.0273H21.8927V24.7817H22.1339ZM22.3751 24.7817V25.0273H22.1339V24.7817H22.3751ZM21.8927 24.7817V25.0273H21.6515V24.7817H21.8927ZM21.8927 24.5361V24.7817H21.6515V24.5361H21.8927ZM21.6515 24.5361V24.7817H21.4102V24.5361H21.6515ZM21.6515 24.7817V25.0273H21.4102V24.7817H21.6515ZM21.4102 24.7817V25.0273H21.169V24.7817H21.4102ZM21.4102 24.5361V24.7817H21.169V24.5361H21.4102ZM21.4102 25.0273V25.2729H21.169V25.0273H21.4102ZM21.169 25.0273V25.2729H20.9278V25.0273H21.169ZM21.169 25.2729V25.5186H20.9278V25.2729H21.169ZM21.4102 25.2729V25.5186H21.169V25.2729H21.4102ZM20.9278 25.2729V25.5186H20.6866V25.2729H20.9278ZM20.9278 25.0273V25.2729H20.6866V25.0273H20.9278ZM20.9278 24.7817V25.0273H20.6866V24.7817H20.9278ZM20.9278 24.5361V24.7817H20.6866V24.5361H20.9278ZM21.169 24.5361V24.7817H20.9278V24.5361H21.169ZM21.169 24.7817V25.0273H20.9278V24.7817H21.169ZM20.6866 24.5361V24.7817H20.4453V24.5361H20.6866ZM20.4453 24.5361V24.7817H20.2041V24.5361H20.4453ZM20.2041 24.5361V24.7817H19.9629V24.5361H20.2041ZM20.2041 24.7817V25.0273H19.9629V24.7817H20.2041ZM20.2041 25.0273V25.2729H19.9629V25.0273H20.2041ZM20.2041 25.2729V25.5186H19.9629V25.2729H20.2041ZM20.4453 25.2729V25.5186H20.2041V25.2729H20.4453ZM20.6866 25.2729V25.5186H20.4453V25.2729H20.6866ZM20.6866 25.0273V25.2729H20.4453V25.0273H20.6866ZM20.6866 24.7817V25.0273H20.4453V24.7817H20.6866ZM20.4453 24.7817V25.0273H20.2041V24.7817H20.4453ZM20.4453 25.0273V25.2729H20.2041V25.0273H20.4453ZM19.9629 25.0273V25.2729H19.7217V25.0273H19.9629ZM19.9629 24.7817V25.0273H19.7217V24.7817H19.9629ZM19.7217 24.7817V25.0273H19.4805V24.7817H19.7217ZM19.7217 25.0273V25.2729H19.4805V25.0273H19.7217ZM19.4805 25.0273V25.2729H19.2392V25.0273H19.4805ZM19.4805 25.2729V25.5186H19.2392V25.2729H19.4805ZM19.4805 25.5186V25.7641H19.2392V25.5186H19.4805ZM19.7217 25.5186V25.7641H19.4805V25.5186H19.7217ZM19.7217 25.2729V25.5186H19.4805V25.2729H19.7217ZM19.9629 25.2729V25.5186H19.7217V25.2729H19.9629ZM19.9629 25.5186V25.7641H19.7217V25.5186H19.9629ZM20.2041 25.5186V25.7641H19.9629V25.5186H20.2041ZM20.4453 25.5186V25.7641H20.2041V25.5186H20.4453ZM19.2392 25.5186V25.7641H18.998V25.5186H19.2392ZM19.2392 25.7641V26.0098H18.998V25.7641H19.2392ZM19.2392 26.0098V26.2555H18.998V26.0098H19.2392ZM19.2392 27.729V27.9747H18.998V27.729H19.2392ZM19.4805 27.729V27.9747H19.2392V27.729H19.4805ZM19.4805 27.9747V28.2204H19.2392V27.9747H19.4805ZM19.2392 27.9747V28.2204H18.998V27.9747H19.2392ZM19.7217 27.9747V28.2204H19.4805V27.9747H19.7217ZM19.9629 27.9747V28.2204H19.7217V27.9747H19.9629ZM20.2041 27.9747V28.2204H19.9629V27.9747H20.2041ZM20.4453 27.9747V28.2204H20.2041V27.9747H20.4453ZM20.2041 27.729V27.9747H19.9629V27.729H20.2041ZM20.2041 26.0098V26.2555H19.9629V26.0098H20.2041ZM20.2041 25.7641V26.0098H19.9629V25.7641H20.2041ZM19.9629 25.7641V26.0098H19.7217V25.7641H19.9629ZM19.7217 25.7641V26.0098H19.4805V25.7641H19.7217ZM19.4805 25.7641V26.0098H19.2392V25.7641H19.4805ZM19.4805 26.0098V26.2555H19.2392V26.0098H19.4805ZM19.7217 27.729V27.9747H19.4805V27.729H19.7217ZM19.9629 27.729V27.9747H19.7217V27.729H19.9629ZM19.7217 26.0098V26.2555H19.4805V26.0098H19.7217ZM19.9629 26.0098V26.2555H19.7217V26.0098H19.9629ZM21.8927 27.4835V27.729H21.6515V27.4835H21.8927ZM21.8927 27.729V27.9747H21.6515V27.729H21.8927ZM22.1339 27.729V27.9747H21.8927V27.729H22.1339ZM22.3751 27.729V27.9747H22.1339V27.729H22.3751ZM22.6163 27.729V27.9747H22.3751V27.729H22.6163ZM22.8576 27.729V27.9747H22.6163V27.729H22.8576ZM22.8576 27.4835V27.729H22.6163V27.4835H22.8576ZM22.6163 27.4835V27.729H22.3751V27.4835H22.6163ZM22.3751 27.4835V27.729H22.1339V27.4835H22.3751ZM22.1339 27.4835V27.729H21.8927V27.4835H22.1339ZM22.8576 27.9747V28.2204H22.6163V27.9747H22.8576ZM22.6163 27.9747V28.2204H22.3751V27.9747H22.6163ZM22.3751 27.9747V28.2204H22.1339V27.9747H22.3751ZM22.1339 27.9747V28.2204H21.8927V27.9747H22.1339ZM21.8927 27.9747V28.2204H21.6515V27.9747H21.8927ZM21.6515 27.9747V28.2204H21.4102V27.9747H21.6515ZM21.6515 28.2204V28.4658H21.4102V28.2204H21.6515ZM21.8927 28.2204V28.4658H21.6515V28.2204H21.8927ZM22.1339 28.2204V28.4658H21.8927V28.2204H22.1339ZM22.3751 28.2204V28.4658H22.1339V28.2204H22.3751ZM22.3751 28.4658V28.7115H22.1339V28.4658H22.3751ZM22.6163 28.4658V28.7115H22.3751V28.4658H22.6163ZM22.6163 28.2204V28.4658H22.3751V28.2204H22.6163ZM22.3751 28.7115V28.957H22.1339V28.7115H22.3751ZM22.1339 28.7115V28.957H21.8927V28.7115H22.1339ZM22.1339 28.4658V28.7115H21.8927V28.4658H22.1339ZM21.8927 28.4658V28.7115H21.6515V28.4658H21.8927ZM21.8927 28.7115V28.957H21.6515V28.7115H21.8927ZM21.8927 28.957V29.2027H21.6515V28.957H21.8927ZM21.6515 28.957V29.2027H21.4102V28.957H21.6515ZM21.4102 28.957V29.2027H21.169V28.957H21.4102ZM21.169 28.957V29.2027H20.9278V28.957H21.169ZM20.9278 28.957V29.2027H20.6866V28.957H20.9278ZM20.6866 28.957V29.2027H20.4453V28.957H20.6866ZM20.4453 28.957V29.2027H20.2041V28.957H20.4453ZM20.2041 28.957V29.2027H19.9629V28.957H20.2041ZM20.4453 28.7115V28.957H20.2041V28.7115H20.4453ZM20.6866 28.7115V28.957H20.4453V28.7115H20.6866ZM20.9278 28.7115V28.957H20.6866V28.7115H20.9278ZM21.169 28.7115V28.957H20.9278V28.7115H21.169ZM21.4102 28.7115V28.957H21.169V28.7115H21.4102ZM21.6515 28.7115V28.957H21.4102V28.7115H21.6515ZM21.6515 28.4658V28.7115H21.4102V28.4658H21.6515ZM21.4102 28.4658V28.7115H21.169V28.4658H21.4102ZM21.169 28.4658V28.7115H20.9278V28.4658H21.169ZM20.9278 28.4658V28.7115H20.6866V28.4658H20.9278ZM20.6866 28.4658V28.7115H20.4453V28.4658H20.6866ZM20.4453 28.4658V28.7115H20.2041V28.4658H20.4453ZM20.2041 28.7115V28.957H19.9629V28.7115H20.2041ZM19.9629 28.7115V28.957H19.7217V28.7115H19.9629ZM19.7217 28.7115V28.957H19.4805V28.7115H19.7217ZM19.7217 28.4658V28.7115H19.4805V28.4658H19.7217ZM19.4805 28.4658V28.7115H19.2392V28.4658H19.4805ZM19.4805 28.2204V28.4658H19.2392V28.2204H19.4805ZM19.7217 28.2204V28.4658H19.4805V28.2204H19.7217ZM19.9629 28.2204V28.4658H19.7217V28.2204H19.9629ZM20.2041 28.2204V28.4658H19.9629V28.2204H20.2041ZM20.4453 28.2204V28.4658H20.2041V28.2204H20.4453ZM20.6866 28.2204V28.4658H20.4453V28.2204H20.6866ZM20.9278 28.2204V28.4658H20.6866V28.2204H20.9278ZM21.169 28.2204V28.4658H20.9278V28.2204H21.169ZM21.4102 28.2204V28.4658H21.169V28.2204H21.4102ZM20.2041 28.4658V28.7115H19.9629V28.4658H20.2041ZM19.9629 28.4658V28.7115H19.7217V28.4658H19.9629ZM22.3751 26.9923V27.2378H22.1339V26.9923H22.3751ZM22.8576 27.2378V27.4835H22.6163V27.2378H22.8576ZM22.6163 27.2378V27.4835H22.3751V27.2378H22.6163ZM22.3751 27.2378V27.4835H22.1339V27.2378H22.3751ZM22.1339 27.2378V27.4835H21.8927V27.2378H22.1339ZM22.1339 26.9923V27.2378H21.8927V26.9923H22.1339ZM21.8927 26.9923V27.2378H21.6515V26.9923H21.8927ZM21.8927 27.2378V27.4835H21.6515V27.2378H21.8927ZM20.4453 26.0098V26.2555H20.2041V26.0098H20.4453ZM19.4805 26.2555V26.5009H19.2392V26.2555H19.4805ZM19.4805 26.5009V26.7466H19.2392V26.5009H19.4805ZM19.7217 26.5009V26.7466H19.4805V26.5009H19.7217ZM19.7217 26.7466V26.9923H19.4805V26.7466H19.7217ZM19.9629 26.7466V26.9923H19.7217V26.7466H19.9629ZM20.2041 26.9923V27.2378H19.9629V26.9923H20.2041ZM20.2041 26.7466V26.9923H19.9629V26.7466H20.2041ZM20.2041 26.5009V26.7466H19.9629V26.5009H20.2041ZM20.2041 26.2555V26.5009H19.9629V26.2555H20.2041ZM19.9629 26.2555V26.5009H19.7217V26.2555H19.9629ZM19.9629 26.5009V26.7466H19.7217V26.5009H19.9629ZM19.7217 26.2555V26.5009H19.4805V26.2555H19.7217ZM20.4453 26.9923V27.2378H20.2041V26.9923H20.4453ZM20.6866 26.9923V27.2378H20.4453V26.9923H20.6866ZM20.9278 26.9923V27.2378H20.6866V26.9923H20.9278ZM21.169 26.9923V27.2378H20.9278V26.9923H21.169ZM21.169 26.7466V26.9923H20.9278V26.7466H21.169ZM20.9278 26.7466V26.9923H20.6866V26.7466H20.9278ZM20.6866 26.7466V26.9923H20.4453V26.7466H20.6866ZM20.4453 26.7466V26.9923H20.2041V26.7466H20.4453ZM20.4453 26.5009V26.7466H20.2041V26.5009H20.4453ZM20.4453 26.2555V26.5009H20.2041V26.2555H20.4453ZM20.6866 26.2555V26.5009H20.4453V26.2555H20.6866ZM20.9278 26.2555V26.5009H20.6866V26.2555H20.9278ZM21.169 26.2555V26.5009H20.9278V26.2555H21.169ZM21.169 26.5009V26.7466H20.9278V26.5009H21.169ZM20.9278 26.5009V26.7466H20.6866V26.5009H20.9278ZM20.6866 26.5009V26.7466H20.4453V26.5009H20.6866ZM21.4102 26.2555V26.5009H21.169V26.2555H21.4102ZM21.6515 26.2555V26.5009H21.4102V26.2555H21.6515ZM21.6515 26.5009V26.7466H21.4102V26.5009H21.6515ZM21.6515 26.7466V26.9923H21.4102V26.7466H21.6515ZM21.6515 26.9923V27.2378H21.4102V26.9923H21.6515ZM21.4102 26.9923V27.2378H21.169V26.9923H21.4102ZM21.4102 26.7466V26.9923H21.169V26.7466H21.4102ZM21.4102 26.5009V26.7466H21.169V26.5009H21.4102ZM21.6515 27.2378V27.4835H21.4102V27.2378H21.6515ZM21.8927 26.2555V26.5009H21.6515V26.2555H21.8927ZM22.6163 26.9923V27.2378H22.3751V26.9923H22.6163ZM22.6163 26.7466V26.9923H22.3751V26.7466H22.6163ZM22.3751 26.5009V26.7466H22.1339V26.5009H22.3751ZM22.1339 26.5009V26.7466H21.8927V26.5009H22.1339ZM21.8927 26.5009V26.7466H21.6515V26.5009H21.8927ZM21.8927 26.7466V26.9923H21.6515V26.7466H21.8927ZM22.1339 26.7466V26.9923H21.8927V26.7466H22.1339ZM22.3751 26.7466V26.9923H22.1339V26.7466H22.3751ZM21.6515 25.5186V25.7641H21.4102V25.5186H21.6515ZM26.7697 23.5537V23.7993H26.5284V23.5537H26.7697ZM26.7697 23.7993V24.0449H26.5284V23.7993H26.7697ZM26.7697 24.0449V24.2905H26.5284V24.0449H26.7697ZM26.7697 24.2905V24.5361H26.5284V24.2905H26.7697ZM26.7697 24.5361V24.7817H26.5284V24.5361H26.7697ZM26.7697 24.7817V25.0273H26.5284V24.7817H26.7697ZM26.7697 25.0273V25.2729H26.5284V25.0273H26.7697ZM26.7697 25.2729V25.5186H26.5284V25.2729H26.7697ZM27.0107 25.2729V25.5186H26.7697V25.2729H27.0107ZM27.2521 25.2729V25.5186H27.0107V25.2729H27.2521ZM27.4934 25.2729V25.5186H27.2521V25.2729H27.4934ZM27.7344 25.2729V25.5186H27.4934V25.2729H27.7344ZM26.7697 25.7641V26.0098H26.5284V25.7641H26.7697ZM26.5284 25.7641V26.0098H26.2873V25.7641H26.5284ZM26.5284 25.5186V25.7641H26.2873V25.5186H26.5284ZM26.7697 25.5186V25.7641H26.5284V25.5186H26.7697ZM26.7697 26.0098V26.2555H26.5284V26.0098H26.7697ZM26.5284 26.0098V26.2555H26.2873V26.0098H26.5284ZM26.2873 26.0098V26.2555H26.046V26.0098H26.2873ZM26.046 26.0098V26.2555H25.8046V26.0098H26.046ZM25.8046 26.0098V26.2555H25.5636V26.0098H25.8046ZM25.3223 25.2729V25.5186H25.0812V25.2729H25.3223ZM25.5636 25.2729V25.5186H25.3223V25.2729H25.5636ZM25.8046 25.2729V25.5186H25.5636V25.2729H25.8046ZM26.046 25.2729V25.5186H25.8046V25.2729H26.046ZM26.2873 25.2729V25.5186H26.046V25.2729H26.2873ZM26.5284 25.2729V25.5186H26.2873V25.2729H26.5284ZM26.2873 25.7641V26.0098H26.046V25.7641H26.2873ZM26.2873 25.5186V25.7641H26.046V25.5186H26.2873ZM26.046 25.5186V25.7641H25.8046V25.5186H26.046ZM25.8046 25.5186V25.7641H25.5636V25.5186H25.8046ZM25.8046 25.7641V26.0098H25.5636V25.7641H25.8046ZM26.046 25.7641V26.0098H25.8046V25.7641H26.046ZM26.5284 23.7993V24.0449H26.2873V23.7993H26.5284ZM26.5284 24.0449V24.2905H26.2873V24.0449H26.5284ZM26.2873 24.0449V24.2905H26.046V24.0449H26.2873ZM26.2873 24.2905V24.5361H26.046V24.2905H26.2873ZM26.2873 24.5361V24.7817H26.046V24.5361H26.2873ZM26.046 24.2905V24.5361H25.8046V24.2905H26.046ZM26.046 24.5361V24.7817H25.8046V24.5361H26.046ZM25.8046 24.5361V24.7817H25.5636V24.5361H25.8046ZM25.8046 24.7817V25.0273H25.5636V24.7817H25.8046ZM25.8046 25.0273V25.2729H25.5636V25.0273H25.8046ZM26.2873 25.0273V25.2729H26.046V25.0273H26.2873ZM26.5284 25.0273V25.2729H26.2873V25.0273H26.5284ZM26.5284 24.7817V25.0273H26.2873V24.7817H26.5284ZM26.5284 24.5361V24.7817H26.2873V24.5361H26.5284ZM26.5284 24.2905V24.5361H26.2873V24.2905H26.5284ZM26.2873 24.7817V25.0273H26.046V24.7817H26.2873ZM26.046 25.0273V25.2729H25.8046V25.0273H26.046ZM26.046 24.7817V25.0273H25.8046V24.7817H26.046ZM27.7344 28.2204V28.4658H27.4934V28.2204H27.7344ZM27.7344 28.4658V28.7115H27.4934V28.4658H27.7344ZM27.7344 28.957V29.2027H27.4934V28.957H27.7344ZM27.4934 28.957V29.2027H27.2521V28.957H27.4934ZM27.2521 28.957V29.2027H27.0107V28.957H27.2521ZM27.0107 28.957V29.2027H26.7697V28.957H27.0107ZM26.7697 28.957V29.2027H26.5284V28.957H26.7697ZM26.7697 28.7115V28.957H26.5284V28.7115H26.7697ZM26.5284 28.7115V28.957H26.2873V28.7115H26.5284ZM26.2873 28.7115V28.957H26.046V28.7115H26.2873ZM26.2873 28.4658V28.7115H26.046V28.4658H26.2873ZM26.046 28.4658V28.7115H25.8046V28.4658H26.046ZM26.046 28.2204V28.4658H25.8046V28.2204H26.046ZM26.046 27.9747V28.2204H25.8046V27.9747H26.046ZM25.8046 27.9747V28.2204H25.5636V27.9747H25.8046ZM25.8046 27.729V27.9747H25.5636V27.729H25.8046ZM25.8046 27.4835V27.729H25.5636V27.4835H25.8046ZM25.8046 27.2378V27.4835H25.5636V27.2378H25.8046ZM25.8046 26.9923V27.2378H25.5636V26.9923H25.8046ZM25.8046 26.7466V26.9923H25.5636V26.7466H25.8046ZM25.8046 26.5009V26.7466H25.5636V26.5009H25.8046ZM25.8046 26.2555V26.5009H25.5636V26.2555H25.8046ZM26.046 26.2555V26.5009H25.8046V26.2555H26.046ZM26.2873 26.2555V26.5009H26.046V26.2555H26.2873ZM26.5284 26.2555V26.5009H26.2873V26.2555H26.5284ZM26.7697 26.2555V26.5009H26.5284V26.2555H26.7697ZM26.7697 26.5009V26.7466H26.5284V26.5009H26.7697ZM26.7697 26.7466V26.9923H26.5284V26.7466H26.7697ZM26.7697 26.9923V27.2378H26.5284V26.9923H26.7697ZM26.7697 27.2378V27.4835H26.5284V27.2378H26.7697ZM26.7697 27.4835V27.729H26.5284V27.4835H26.7697ZM26.7697 27.729V27.9747H26.5284V27.729H26.7697ZM26.7697 27.9747V28.2204H26.5284V27.9747H26.7697ZM27.0107 27.9747V28.2204H26.7697V27.9747H27.0107ZM27.0107 28.2204V28.4658H26.7697V28.2204H27.0107ZM27.2521 28.2204V28.4658H27.0107V28.2204H27.2521ZM27.2521 28.4658V28.7115H27.0107V28.4658H27.2521ZM27.4934 28.4658V28.7115H27.2521V28.4658H27.4934ZM27.4934 28.2204V28.4658H27.2521V28.2204H27.4934ZM27.7344 28.7115V28.957H27.4934V28.7115H27.7344ZM27.4934 28.7115V28.957H27.2521V28.7115H27.4934ZM27.2521 28.7115V28.957H27.0107V28.7115H27.2521ZM27.0107 28.7115V28.957H26.7697V28.7115H27.0107ZM27.0107 28.4658V28.7115H26.7697V28.4658H27.0107ZM26.7697 28.4658V28.7115H26.5284V28.4658H26.7697ZM26.7697 28.2204V28.4658H26.5284V28.2204H26.7697ZM26.5284 28.2204V28.4658H26.2873V28.2204H26.5284ZM26.5284 28.4658V28.7115H26.2873V28.4658H26.5284ZM26.2873 28.2204V28.4658H26.046V28.2204H26.2873ZM26.5284 27.9747V28.2204H26.2873V27.9747H26.5284ZM26.5284 27.729V27.9747H26.2873V27.729H26.5284ZM26.2873 27.9747V28.2204H26.046V27.9747H26.2873ZM26.2873 27.729V27.9747H26.046V27.729H26.2873ZM26.5284 27.4835V27.729H26.2873V27.4835H26.5284ZM26.5284 27.2378V27.4835H26.2873V27.2378H26.5284ZM26.5284 26.9923V27.2378H26.2873V26.9923H26.5284ZM26.5284 26.7466V26.9923H26.2873V26.7466H26.5284ZM26.5284 26.5009V26.7466H26.2873V26.5009H26.5284ZM26.2873 26.5009V26.7466H26.046V26.5009H26.2873ZM26.046 26.5009V26.7466H25.8046V26.5009H26.046ZM26.046 26.7466V26.9923H25.8046V26.7466H26.046ZM26.046 26.9923V27.2378H25.8046V26.9923H26.046ZM26.046 27.2378V27.4835H25.8046V27.2378H26.046ZM26.046 27.4835V27.729H25.8046V27.4835H26.046ZM26.046 27.729V27.9747H25.8046V27.729H26.046ZM26.2873 27.4835V27.729H26.046V27.4835H26.2873ZM26.2873 27.2378V27.4835H26.046V27.2378H26.2873ZM26.2873 26.9923V27.2378H26.046V26.9923H26.2873ZM26.2873 26.7466V26.9923H26.046V26.7466H26.2873ZM27.7344 24.7817V25.0273H27.4934V24.7817H27.7344ZM27.4934 24.7817V25.0273H27.2521V24.7817H27.4934ZM27.4934 25.0273V25.2729H27.2521V25.0273H27.4934ZM27.7344 25.0273V25.2729H27.4934V25.0273H27.7344ZM27.2521 25.0273V25.2729H27.0107V25.0273H27.2521ZM27.0107 25.0273V25.2729H26.7697V25.0273H27.0107ZM27.0107 24.7817V25.0273H26.7697V24.7817H27.0107ZM27.2521 24.7817V25.0273H27.0107V24.7817H27.2521ZM25.8046 24.2905V24.5361H25.5636V24.2905H25.8046ZM26.046 24.0449V24.2905H25.8046V24.0449H26.046ZM26.2873 23.7993V24.0449H26.046V23.7993H26.2873ZM26.5284 23.5537V23.7993H26.2873V23.5537H26.5284ZM25.5636 24.7817V25.0273H25.3223V24.7817H25.5636ZM25.5636 25.0273V25.2729H25.3223V25.0273H25.5636ZM25.3223 25.0273V25.2729H25.0812V25.0273H25.3223ZM25.3223 24.7817V25.0273H25.0812V24.7817H25.3223ZM26.7697 23.3081V23.5537H26.5284V23.3081H26.7697ZM25.3223 25.5186V25.7641H25.0812V25.5186H25.3223ZM25.5636 25.5186V25.7641H25.3223V25.5186H25.5636ZM27.0107 25.5186V25.7641H26.7697V25.5186H27.0107ZM27.2521 25.5186V25.7641H27.0107V25.5186H27.2521ZM27.4934 25.5186V25.7641H27.2521V25.5186H27.4934ZM27.7344 25.5186V25.7641H27.4934V25.5186H27.7344ZM33.0924 26.0098V26.2555H32.8513V26.0098H33.0924ZM33.3337 26.0098V26.2555H33.0924V26.0098H33.3337ZM33.5748 26.0098V26.2555H33.3337V26.0098H33.5748ZM33.8161 26.0098V26.2555H33.5748V26.0098H33.8161ZM34.0574 26.0098V26.2555H33.8161V26.0098H34.0574ZM34.0574 25.7641V26.0098H33.8161V25.7641H34.0574ZM34.0574 25.5186V25.7641H33.8161V25.5186H34.0574ZM33.8161 25.5186V25.7641H33.5748V25.5186H33.8161ZM33.5748 25.5186V25.7641H33.3337V25.5186H33.5748ZM33.3337 25.5186V25.7641H33.0924V25.5186H33.3337ZM33.3337 25.7641V26.0098H33.0924V25.7641H33.3337ZM33.0924 25.7641V26.0098H32.8513V25.7641H33.0924ZM33.5748 25.7641V26.0098H33.3337V25.7641H33.5748ZM33.8161 25.7641V26.0098H33.5748V25.7641H33.8161ZM33.0924 25.5186V25.7641H32.8513V25.5186H33.0924ZM32.8513 25.5186V25.7641H32.61V25.5186H32.8513ZM32.8513 25.2729V25.5186H32.61V25.2729H32.8513ZM33.0924 25.2729V25.5186H32.8513V25.2729H33.0924ZM33.3337 25.2729V25.5186H33.0924V25.2729H33.3337ZM33.5748 25.2729V25.5186H33.3337V25.2729H33.5748ZM33.8161 25.2729V25.5186H33.5748V25.2729H33.8161ZM33.8161 25.0273V25.2729H33.5748V25.0273H33.8161ZM33.5748 25.0273V25.2729H33.3337V25.0273H33.5748ZM33.3337 25.0273V25.2729H33.0924V25.0273H33.3337ZM33.0924 25.0273V25.2729H32.8513V25.0273H33.0924ZM32.8513 25.0273V25.2729H32.61V25.0273H32.8513ZM33.3337 24.7817V25.0273H33.0924V24.7817H33.3337ZM33.5748 24.7817V25.0273H33.3337V24.7817H33.5748ZM33.0924 24.7817V25.0273H32.8513V24.7817H33.0924ZM33.0924 24.5361V24.7817H32.8513V24.5361H33.0924ZM32.8513 24.5361V24.7817H32.61V24.5361H32.8513ZM32.8513 24.7817V25.0273H32.61V24.7817H32.8513ZM32.61 24.7817V25.0273H32.3687V24.7817H32.61ZM32.61 24.5361V24.7817H32.3687V24.5361H32.61ZM32.61 25.0273V25.2729H32.3687V25.0273H32.61ZM32.3687 25.0273V25.2729H32.1276V25.0273H32.3687ZM32.3687 25.2729V25.5186H32.1276V25.2729H32.3687ZM32.61 25.2729V25.5186H32.3687V25.2729H32.61ZM32.1276 25.2729V25.5186H31.8863V25.2729H32.1276ZM32.1276 25.0273V25.2729H31.8863V25.0273H32.1276ZM32.1276 24.7817V25.0273H31.8863V24.7817H32.1276ZM32.1276 24.5361V24.7817H31.8863V24.5361H32.1276ZM32.3687 24.5361V24.7817H32.1276V24.5361H32.3687ZM32.3687 24.7817V25.0273H32.1276V24.7817H32.3687ZM31.8863 24.5361V24.7817H31.6452V24.5361H31.8863ZM31.6452 24.5361V24.7817H31.4039V24.5361H31.6452ZM31.4039 24.5361V24.7817H31.1626V24.5361H31.4039ZM31.4039 24.7817V25.0273H31.1626V24.7817H31.4039ZM31.4039 25.0273V25.2729H31.1626V25.0273H31.4039ZM31.4039 25.2729V25.5186H31.1626V25.2729H31.4039ZM31.6452 25.2729V25.5186H31.4039V25.2729H31.6452ZM31.8863 25.2729V25.5186H31.6452V25.2729H31.8863ZM31.8863 25.0273V25.2729H31.6452V25.0273H31.8863ZM31.8863 24.7817V25.0273H31.6452V24.7817H31.8863ZM31.6452 24.7817V25.0273H31.4039V24.7817H31.6452ZM31.6452 25.0273V25.2729H31.4039V25.0273H31.6452ZM31.1626 25.0273V25.2729H30.9215V25.0273H31.1626ZM31.1626 24.7817V25.0273H30.9215V24.7817H31.1626ZM30.9215 24.7817V25.0273H30.6802V24.7817H30.9215ZM30.9215 25.0273V25.2729H30.6802V25.0273H30.9215ZM30.6802 25.0273V25.2729H30.4389V25.0273H30.6802ZM30.6802 25.2729V25.5186H30.4389V25.2729H30.6802ZM30.6802 25.5186V25.7641H30.4389V25.5186H30.6802ZM30.9215 25.5186V25.7641H30.6802V25.5186H30.9215ZM30.9215 25.2729V25.5186H30.6802V25.2729H30.9215ZM31.1626 25.2729V25.5186H30.9215V25.2729H31.1626ZM31.1626 25.5186V25.7641H30.9215V25.5186H31.1626ZM31.4039 25.5186V25.7641H31.1626V25.5186H31.4039ZM31.6452 25.5186V25.7641H31.4039V25.5186H31.6452ZM30.4389 25.5186V25.7641H30.1978V25.5186H30.4389ZM30.4389 25.7641V26.0098H30.1978V25.7641H30.4389ZM30.4389 26.0098V26.2555H30.1978V26.0098H30.4389ZM30.4389 26.2555V26.5009H30.1978V26.2555H30.4389ZM30.4389 26.5009V26.7466H30.1978V26.5009H30.4389ZM30.4389 26.7466V26.9923H30.1978V26.7466H30.4389ZM30.4389 26.9923V27.2378H30.1978V26.9923H30.4389ZM30.4389 27.2378V27.4835H30.1978V27.2378H30.4389ZM30.4389 27.4835V27.729H30.1978V27.4835H30.4389ZM30.4389 27.729V27.9747H30.1978V27.729H30.4389ZM30.6802 27.729V27.9747H30.4389V27.729H30.6802ZM30.6802 27.9747V28.2204H30.4389V27.9747H30.6802ZM30.4389 27.9747V28.2204H30.1978V27.9747H30.4389ZM30.9215 27.9747V28.2204H30.6802V27.9747H30.9215ZM31.1626 27.9747V28.2204H30.9215V27.9747H31.1626ZM31.4039 27.9747V28.2204H31.1626V27.9747H31.4039ZM31.6452 27.9747V28.2204H31.4039V27.9747H31.6452ZM31.4039 27.729V27.9747H31.1626V27.729H31.4039ZM31.4039 27.4835V27.729H31.1626V27.4835H31.4039ZM31.4039 27.2378V27.4835H31.1626V27.2378H31.4039ZM31.4039 26.9923V27.2378H31.1626V26.9923H31.4039ZM31.4039 26.7466V26.9923H31.1626V26.7466H31.4039ZM31.4039 26.5009V26.7466H31.1626V26.5009H31.4039ZM31.4039 26.2555V26.5009H31.1626V26.2555H31.4039ZM31.4039 26.0098V26.2555H31.1626V26.0098H31.4039ZM31.4039 25.7641V26.0098H31.1626V25.7641H31.4039ZM31.1626 25.7641V26.0098H30.9215V25.7641H31.1626ZM30.9215 25.7641V26.0098H30.6802V25.7641H30.9215ZM30.6802 25.7641V26.0098H30.4389V25.7641H30.6802ZM30.6802 26.0098V26.2555H30.4389V26.0098H30.6802ZM30.6802 26.2555V26.5009H30.4389V26.2555H30.6802ZM30.6802 26.5009V26.7466H30.4389V26.5009H30.6802ZM30.6802 26.7466V26.9923H30.4389V26.7466H30.6802ZM30.6802 26.9923V27.2378H30.4389V26.9923H30.6802ZM30.6802 27.2378V27.4835H30.4389V27.2378H30.6802ZM30.6802 27.4835V27.729H30.4389V27.4835H30.6802ZM30.9215 27.729V27.9747H30.6802V27.729H30.9215ZM31.1626 27.729V27.9747H30.9215V27.729H31.1626ZM31.1626 27.4835V27.729H30.9215V27.4835H31.1626ZM31.1626 27.2378V27.4835H30.9215V27.2378H31.1626ZM31.1626 26.9923V27.2378H30.9215V26.9923H31.1626ZM31.1626 26.7466V26.9923H30.9215V26.7466H31.1626ZM30.9215 26.7466V26.9923H30.6802V26.7466H30.9215ZM30.9215 26.5009V26.7466H30.6802V26.5009H30.9215ZM30.9215 26.2555V26.5009H30.6802V26.2555H30.9215ZM30.9215 26.0098V26.2555H30.6802V26.0098H30.9215ZM31.1626 26.0098V26.2555H30.9215V26.0098H31.1626ZM31.1626 26.2555V26.5009H30.9215V26.2555H31.1626ZM31.1626 26.5009V26.7466H30.9215V26.5009H31.1626ZM30.9215 27.2378V27.4835H30.6802V27.2378H30.9215ZM30.9215 27.4835V27.729H30.6802V27.4835H30.9215ZM30.9215 26.9923V27.2378H30.6802V26.9923H30.9215ZM33.0924 27.729V27.9747H32.8513V27.729H33.0924ZM33.3337 27.729V27.9747H33.0924V27.729H33.3337ZM33.5748 27.729V27.9747H33.3337V27.729H33.5748ZM33.8161 27.729V27.9747H33.5748V27.729H33.8161ZM34.0574 27.729V27.9747H33.8161V27.729H34.0574ZM34.0574 27.9747V28.2204H33.8161V27.9747H34.0574ZM33.8161 27.9747V28.2204H33.5748V27.9747H33.8161ZM33.5748 27.9747V28.2204H33.3337V27.9747H33.5748ZM33.3337 27.9747V28.2204H33.0924V27.9747H33.3337ZM33.0924 27.9747V28.2204H32.8513V27.9747H33.0924ZM32.8513 27.9747V28.2204H32.61V27.9747H32.8513ZM32.8513 28.2204V28.4658H32.61V28.2204H32.8513ZM33.0924 28.2204V28.4658H32.8513V28.2204H33.0924ZM33.3337 28.2204V28.4658H33.0924V28.2204H33.3337ZM33.5748 28.2204V28.4658H33.3337V28.2204H33.5748ZM33.5748 28.4658V28.7115H33.3337V28.4658H33.5748ZM33.8161 28.4658V28.7115H33.5748V28.4658H33.8161ZM33.8161 28.2204V28.4658H33.5748V28.2204H33.8161ZM33.5748 28.7115V28.957H33.3337V28.7115H33.5748ZM33.3337 28.7115V28.957H33.0924V28.7115H33.3337ZM33.3337 28.4658V28.7115H33.0924V28.4658H33.3337ZM33.0924 28.4658V28.7115H32.8513V28.4658H33.0924ZM33.0924 28.7115V28.957H32.8513V28.7115H33.0924ZM33.0924 28.957V29.2027H32.8513V28.957H33.0924ZM32.8513 28.957V29.2027H32.61V28.957H32.8513ZM32.61 28.957V29.2027H32.3687V28.957H32.61ZM32.3687 28.957V29.2027H32.1276V28.957H32.3687ZM32.1276 28.957V29.2027H31.8863V28.957H32.1276ZM31.8863 28.957V29.2027H31.6452V28.957H31.8863ZM31.6452 28.957V29.2027H31.4039V28.957H31.6452ZM31.4039 28.957V29.2027H31.1626V28.957H31.4039ZM31.6452 28.7115V28.957H31.4039V28.7115H31.6452ZM31.8863 28.7115V28.957H31.6452V28.7115H31.8863ZM32.1276 28.7115V28.957H31.8863V28.7115H32.1276ZM32.3687 28.7115V28.957H32.1276V28.7115H32.3687ZM32.61 28.7115V28.957H32.3687V28.7115H32.61ZM32.8513 28.7115V28.957H32.61V28.7115H32.8513ZM32.8513 28.4658V28.7115H32.61V28.4658H32.8513ZM32.61 28.4658V28.7115H32.3687V28.4658H32.61ZM32.3687 28.4658V28.7115H32.1276V28.4658H32.3687ZM32.1276 28.4658V28.7115H31.8863V28.4658H32.1276ZM31.8863 28.4658V28.7115H31.6452V28.4658H31.8863ZM31.6452 28.4658V28.7115H31.4039V28.4658H31.6452ZM31.4039 28.7115V28.957H31.1626V28.7115H31.4039ZM31.1626 28.7115V28.957H30.9215V28.7115H31.1626ZM30.9215 28.7115V28.957H30.6802V28.7115H30.9215ZM30.9215 28.4658V28.7115H30.6802V28.4658H30.9215ZM30.6802 28.4658V28.7115H30.4389V28.4658H30.6802ZM30.6802 28.2204V28.4658H30.4389V28.2204H30.6802ZM30.9215 28.2204V28.4658H30.6802V28.2204H30.9215ZM31.1626 28.2204V28.4658H30.9215V28.2204H31.1626ZM31.4039 28.2204V28.4658H31.1626V28.2204H31.4039ZM31.6452 28.2204V28.4658H31.4039V28.2204H31.6452ZM31.8863 28.2204V28.4658H31.6452V28.2204H31.8863ZM32.1276 28.2204V28.4658H31.8863V28.2204H32.1276ZM32.3687 28.2204V28.4658H32.1276V28.2204H32.3687ZM32.61 28.2204V28.4658H32.3687V28.2204H32.61ZM31.4039 28.4658V28.7115H31.1626V28.4658H31.4039ZM31.1626 28.4658V28.7115H30.9215V28.4658H31.1626ZM34.0574 26.2555V26.5009H33.8161V26.2555H34.0574ZM33.8161 26.2555V26.5009H33.5748V26.2555H33.8161ZM33.5748 26.2555V26.5009H33.3337V26.2555H33.5748ZM33.3337 26.2555V26.5009H33.0924V26.2555H33.3337ZM33.0924 26.2555V26.5009H32.8513V26.2555H33.0924ZM34.0574 26.5009V26.7466H33.8161V26.5009H34.0574ZM33.5748 26.5009V26.7466H33.3337V26.5009H33.5748ZM33.3337 26.5009V26.7466H33.0924V26.5009H33.3337ZM32.8513 26.5009V26.7466H32.61V26.5009H32.8513ZM32.61 26.5009V26.7466H32.3687V26.5009H32.61ZM32.3687 26.5009V26.7466H32.1276V26.5009H32.3687ZM32.1276 26.5009V26.7466H31.8863V26.5009H32.1276ZM31.8863 26.5009V26.7466H31.6452V26.5009H31.8863ZM31.6452 26.5009V26.7466H31.4039V26.5009H31.6452ZM33.0924 26.5009V26.7466H32.8513V26.5009H33.0924ZM33.8161 26.5009V26.7466H33.5748V26.5009H33.8161ZM34.0574 26.7466V26.9923H33.8161V26.7466H34.0574ZM33.8161 26.7466V26.9923H33.5748V26.7466H33.8161ZM33.5748 26.7466V26.9923H33.3337V26.7466H33.5748ZM33.3337 26.7466V26.9923H33.0924V26.7466H33.3337ZM33.0924 26.7466V26.9923H32.8513V26.7466H33.0924ZM32.8513 26.7466V26.9923H32.61V26.7466H32.8513ZM32.61 26.7466V26.9923H32.3687V26.7466H32.61ZM32.3687 26.7466V26.9923H32.1276V26.7466H32.3687ZM32.1276 26.7466V26.9923H31.8863V26.7466H32.1276ZM31.8863 26.7466V26.9923H31.6452V26.7466H31.8863ZM31.6452 26.7466V26.9923H31.4039V26.7466H31.6452ZM31.6452 26.9923V27.2378H31.4039V26.9923H31.6452ZM31.8863 26.9923V27.2378H31.6452V26.9923H31.8863ZM32.1276 26.9923V27.2378H31.8863V26.9923H32.1276ZM32.61 26.9923V27.2378H32.3687V26.9923H32.61ZM32.8513 26.9923V27.2378H32.61V26.9923H32.8513ZM33.0924 26.9923V27.2378H32.8513V26.9923H33.0924ZM33.3337 26.9923V27.2378H33.0924V26.9923H33.3337ZM33.5748 26.9923V27.2378H33.3337V26.9923H33.5748ZM33.8161 26.9923V27.2378H33.5748V26.9923H33.8161ZM34.0574 26.9923V27.2378H33.8161V26.9923H34.0574ZM32.3687 26.9923V27.2378H32.1276V26.9923H32.3687ZM37.0044 28.957V29.2027H36.7634V28.957H37.0044ZM37.0044 28.7115V28.957H36.7634V28.7115H37.0044ZM37.0044 28.4658V28.7115H36.7634V28.4658H37.0044ZM37.0044 28.2204V28.4658H36.7634V28.2204H37.0044ZM37.0044 27.9747V28.2204H36.7634V27.9747H37.0044ZM37.0044 27.729V27.9747H36.7634V27.729H37.0044ZM37.0044 27.4835V27.729H36.7634V27.4835H37.0044ZM37.0044 27.2378V27.4835H36.7634V27.2378H37.0044ZM37.0044 26.9923V27.2378H36.7634V26.9923H37.0044ZM37.0044 26.7466V26.9923H36.7634V26.7466H37.0044ZM37.0044 26.5009V26.7466H36.7634V26.5009H37.0044ZM37.0044 26.2555V26.5009H36.7634V26.2555H37.0044ZM37.0044 26.0098V26.2555H36.7634V26.0098H37.0044ZM37.0044 25.7641V26.0098H36.7634V25.7641H37.0044ZM37.0044 25.5186V25.7641H36.7634V25.5186H37.0044ZM37.2458 25.5186V25.7641H37.0044V25.5186H37.2458ZM37.2458 25.7641V26.0098H37.0044V25.7641H37.2458ZM37.2458 26.0098V26.2555H37.0044V26.0098H37.2458ZM37.2458 26.2555V26.5009H37.0044V26.2555H37.2458ZM37.2458 26.5009V26.7466H37.0044V26.5009H37.2458ZM37.2458 26.7466V26.9923H37.0044V26.7466H37.2458ZM37.2458 26.9923V27.2378H37.0044V26.9923H37.2458ZM37.4868 27.2378V27.4835H37.2458V27.2378H37.4868ZM37.4868 27.4835V27.729H37.2458V27.4835H37.4868ZM37.4868 27.729V27.9747H37.2458V27.729H37.4868ZM37.4868 27.9747V28.2204H37.2458V27.9747H37.4868ZM37.4868 28.2204V28.4658H37.2458V28.2204H37.4868ZM37.4868 28.4658V28.7115H37.2458V28.4658H37.4868ZM37.4868 28.7115V28.957H37.2458V28.7115H37.4868ZM37.4868 28.957V29.2027H37.2458V28.957H37.4868ZM37.7282 28.957V29.2027H37.4868V28.957H37.7282ZM37.9695 28.957V29.2027H37.7282V28.957H37.9695ZM37.9695 28.7115V28.957H37.7282V28.7115H37.9695ZM37.9695 28.4658V28.7115H37.7282V28.4658H37.9695ZM37.9695 28.2204V28.4658H37.7282V28.2204H37.9695ZM37.9695 27.9747V28.2204H37.7282V27.9747H37.9695ZM37.9695 27.729V27.9747H37.7282V27.729H37.9695ZM37.9695 27.4835V27.729H37.7282V27.4835H37.9695ZM37.9695 27.2378V27.4835H37.7282V27.2378H37.9695ZM37.7282 27.2378V27.4835H37.4868V27.2378H37.7282ZM37.7282 26.9923V27.2378H37.4868V26.9923H37.7282ZM37.7282 27.4835V27.729H37.4868V27.4835H37.7282ZM37.7282 27.729V27.9747H37.4868V27.729H37.7282ZM37.7282 27.9747V28.2204H37.4868V27.9747H37.7282ZM37.7282 28.2204V28.4658H37.4868V28.2204H37.7282ZM37.7282 28.4658V28.7115H37.4868V28.4658H37.7282ZM37.7282 28.7115V28.957H37.4868V28.7115H37.7282ZM37.2458 28.957V29.2027H37.0044V28.957H37.2458ZM37.2458 28.7115V28.957H37.0044V28.7115H37.2458ZM37.2458 28.4658V28.7115H37.0044V28.4658H37.2458ZM37.2458 28.2204V28.4658H37.0044V28.2204H37.2458ZM37.2458 27.9747V28.2204H37.0044V27.9747H37.2458ZM37.2458 27.729V27.9747H37.0044V27.729H37.2458ZM37.2458 27.4835V27.729H37.0044V27.4835H37.2458ZM37.2458 27.2378V27.4835H37.0044V27.2378H37.2458ZM37.0044 24.5361V24.7817H36.7634V24.5361H37.0044ZM37.0044 24.7817V25.0273H36.7634V24.7817H37.0044ZM37.0044 25.0273V25.2729H36.7634V25.0273H37.0044ZM37.0044 25.2729V25.5186H36.7634V25.2729H37.0044ZM37.7282 24.7817V25.0273H37.4868V24.7817H37.7282ZM37.7282 25.0273V25.2729H37.4868V25.0273H37.7282ZM37.7282 25.2729V25.5186H37.4868V25.2729H37.7282ZM37.7282 25.5186V25.7641H37.4868V25.5186H37.7282ZM37.7282 25.7641V26.0098H37.4868V25.7641H37.7282ZM37.7282 26.0098V26.2555H37.4868V26.0098H37.7282ZM37.7282 26.2555V26.5009H37.4868V26.2555H37.7282ZM37.9695 26.5009V26.7466H37.7282V26.5009H37.9695ZM37.9695 26.7466V26.9923H37.7282V26.7466H37.9695ZM37.9695 26.9923V27.2378H37.7282V26.9923H37.9695ZM37.9695 26.2555V26.5009H37.7282V26.2555H37.9695ZM37.9695 26.0098V26.2555H37.7282V26.0098H37.9695ZM37.9695 25.7641V26.0098H37.7282V25.7641H37.9695ZM37.9695 25.5186V25.7641H37.7282V25.5186H37.9695ZM37.9695 25.2729V25.5186H37.7282V25.2729H37.9695ZM37.9695 25.0273V25.2729H37.7282V25.0273H37.9695ZM37.9695 24.7817V25.0273H37.7282V24.7817H37.9695ZM37.9695 24.5361V24.7817H37.7282V24.5361H37.9695ZM37.7282 24.5361V24.7817H37.4868V24.5361H37.7282ZM37.4868 24.5361V24.7817H37.2458V24.5361H37.4868ZM37.4868 24.7817V25.0273H37.2458V24.7817H37.4868ZM37.2458 25.0273V25.2729H37.0044V25.0273H37.2458ZM37.2458 25.2729V25.5186H37.0044V25.2729H37.2458ZM37.2458 24.7817V25.0273H37.0044V24.7817H37.2458ZM37.2458 24.5361V24.7817H37.0044V24.5361H37.2458ZM37.4868 25.0273V25.2729H37.2458V25.0273H37.4868ZM37.4868 25.2729V25.5186H37.2458V25.2729H37.4868ZM37.4868 25.5186V25.7641H37.2458V25.5186H37.4868ZM37.4868 25.7641V26.0098H37.2458V25.7641H37.4868ZM37.4868 26.0098V26.2555H37.2458V26.0098H37.4868ZM37.4868 26.2555V26.5009H37.2458V26.2555H37.4868ZM37.4868 26.5009V26.7466H37.2458V26.5009H37.4868ZM37.4868 26.7466V26.9923H37.2458V26.7466H37.4868ZM37.4868 26.9923V27.2378H37.2458V26.9923H37.4868ZM37.7282 26.7466V26.9923H37.4868V26.7466H37.7282ZM37.7282 26.5009V26.7466H37.4868V26.5009H37.7282ZM39.658 25.5186V25.7641H39.4166V25.5186H39.658ZM39.658 24.5361V24.7817H39.4166V24.5361H39.658ZM39.658 24.7817V25.0273H39.4166V24.7817H39.658ZM39.8993 24.7817V25.0273H39.658V24.7817H39.8993ZM40.1404 25.0273V25.2729H39.8993V25.0273H40.1404ZM39.8993 25.2729V25.5186H39.658V25.2729H39.8993ZM39.8993 25.0273V25.2729H39.658V25.0273H39.8993ZM39.658 25.0273V25.2729H39.4166V25.0273H39.658ZM39.4166 25.0273V25.2729H39.1756V25.0273H39.4166ZM39.4166 25.2729V25.5186H39.1756V25.2729H39.4166ZM39.658 25.2729V25.5186H39.4166V25.2729H39.658ZM39.4166 25.5186V25.7641H39.1756V25.5186H39.4166ZM39.1756 25.2729V25.5186H38.9343V25.2729H39.1756ZM39.1756 25.0273V25.2729H38.9343V25.0273H39.1756ZM39.1756 24.7817V25.0273H38.9343V24.7817H39.1756ZM39.1756 24.5361V24.7817H38.9343V24.5361H39.1756ZM39.4166 24.5361V24.7817H39.1756V24.5361H39.4166ZM39.4166 24.7817V25.0273H39.1756V24.7817H39.4166ZM38.9343 24.5361V24.7817H38.6929V24.5361H38.9343ZM38.9343 24.7817V25.0273H38.6929V24.7817H38.9343ZM38.9343 25.0273V25.2729H38.6929V25.0273H38.9343ZM38.9343 25.2729V25.5186H38.6929V25.2729H38.9343ZM38.6929 24.5361V24.7817H38.4519V24.5361H38.6929ZM38.6929 24.7817V25.0273H38.4519V24.7817H38.6929ZM38.4519 24.7817V25.0273H38.2105V24.7817H38.4519ZM38.4519 25.0273V25.2729H38.2105V25.0273H38.4519ZM38.2105 25.0273V25.2729H37.9695V25.0273H38.2105ZM38.2105 25.2729V25.5186H37.9695V25.2729H38.2105ZM38.4519 25.2729V25.5186H38.2105V25.2729H38.4519ZM38.6929 25.2729V25.5186H38.4519V25.2729H38.6929ZM38.6929 25.0273V25.2729H38.4519V25.0273H38.6929ZM38.2105 25.5186V25.7641H37.9695V25.5186H38.2105ZM38.4519 24.5361V24.7817H38.2105V24.5361H38.4519ZM38.2105 24.7817V25.0273H37.9695V24.7817H38.2105ZM39.1756 25.5186V25.7641H38.9343V25.5186H39.1756ZM39.4166 25.7641V26.0098H39.1756V25.7641H39.4166Z" fill="#0C0C0C"/>
</g>
<defs>
<clipPath id="clip0_356_2">
<rect width="45" height="36" fill="white"/>
</clipPath>
</defs>
</svg>
